<svg xmlns="http://www.w3.org/2000/svg" xmlns:xlink="http://www.w3.org/1999/xlink" width="93.934" height="93.934" viewBox="0 0 93.934 93.934">
  <defs>
    <filter id="Trazado_978624" x="0" y="0" width="93.934" height="93.934" filterUnits="userSpaceOnUse">
      <feOffset dy="3" input="SourceAlpha"/>
      <feGaussianBlur stdDeviation="3" result="blur"/>
      <feFlood flood-opacity="0.161"/>
      <feComposite operator="in" in2="blur"/>
      <feComposite in="SourceGraphic"/>
    </filter>
  </defs>
  <g id="Grupo_1231547" data-name="Grupo 1231547" transform="translate(-189 -678.189)">
    <g id="Grupo_1229586" data-name="Grupo 1229586" transform="translate(0 -1390.891)">
      <g id="Grupo_1229387" data-name="Grupo 1229387" transform="translate(-1 -1914.14)">
        <g id="Grupo_1226961" data-name="Grupo 1226961" transform="translate(0 -11.918)">
          <g id="Grupo_1225961" data-name="Grupo 1225961" transform="translate(0 2131.139)">
            <g id="Grupo_1224945" data-name="Grupo 1224945" transform="translate(0.001 -1279.381)">
              <g id="Grupo_1214679" data-name="Grupo 1214679" transform="translate(-631 2418.347)">
                <g id="Grupo_1212848" data-name="Grupo 1212848" transform="translate(212 -798.5)">
                  <g id="Grupo_1210963" data-name="Grupo 1210963" transform="translate(0 -377.186)">
                    <g id="Grupo_1208068" data-name="Grupo 1208068" transform="translate(412 470.719)">
                      <g id="Grupo_1144123" data-name="Grupo 1144123" transform="translate(206 1436)">
                        <g transform="matrix(1, 0, 0, 1, -9, -6)" filter="url(#Trazado_978624)">
                          <g id="Trazado_978624-2" data-name="Trazado 978624" transform="translate(9 6)" fill="#e7f2f8">
                            <path d="M 37.966796875 74.43359375 C 33.04315185546875 74.43359375 28.26757431030273 73.46962738037109 23.77274131774902 71.56847381591797 C 19.43047523498535 69.73184967041016 15.53040790557861 67.10224914550781 12.18087482452393 63.75271987915039 C 8.831341743469238 60.4031867980957 6.201741218566895 56.50312042236328 4.365118980407715 52.16086196899414 C 2.463963508605957 47.66601943969727 1.499996900558472 42.89044189453125 1.499996900558472 37.966796875 C 1.499996900558472 33.04315185546875 2.463963508605957 28.26757431030273 4.365118980407715 23.77274131774902 C 6.201741218566895 19.43047523498535 8.831341743469238 15.53040790557861 12.18087482452393 12.18087482452393 C 15.53040790557861 8.831341743469238 19.43047523498535 6.201741218566895 23.77274131774902 4.365118980407715 C 28.26757431030273 2.463963508605957 33.04315185546875 1.499996900558472 37.966796875 1.499996900558472 C 42.89044189453125 1.499996900558472 47.66601943969727 2.463963508605957 52.16086196899414 4.365118980407715 C 56.50312042236328 6.201741218566895 60.4031867980957 8.831341743469238 63.75271987915039 12.18087482452393 C 67.10224914550781 15.53040790557861 69.73184967041016 19.43047523498535 71.56847381591797 23.77274131774902 C 73.46962738037109 28.26757431030273 74.43359375 33.04315185546875 74.43359375 37.966796875 C 74.43359375 42.89044189453125 73.46962738037109 47.66601943969727 71.56847381591797 52.16086196899414 C 69.73184967041016 56.50313186645508 67.10224914550781 60.4031867980957 63.75271987915039 63.75271987915039 C 60.4031867980957 67.10224914550781 56.50313186645508 69.73184967041016 52.16086196899414 71.56847381591797 C 47.66601943969727 73.46962738037109 42.89044189453125 74.43359375 37.966796875 74.43359375 Z" stroke="none"/>
                            <path d="M 37.966796875 3 C 33.2449836730957 3 28.66600799560547 3.924095153808594 24.35705947875977 5.746635437011719 C 20.19359588623047 7.507621765136719 16.45379638671875 10.02927398681641 13.24153518676758 13.24153518676758 C 10.02927398681641 16.45379638671875 7.507621765136719 20.19359588623047 5.746635437011719 24.35705947875977 C 3.924095153808594 28.66600799560547 3 33.2449836730957 3 37.966796875 C 3 42.6886100769043 3.924095153808594 47.26758575439453 5.746635437011719 51.57653427124023 C 7.507621765136719 55.73999786376953 10.02927398681641 59.47979736328125 13.24153518676758 62.69205856323242 C 16.45379638671875 65.90431976318359 20.19359588623047 68.42597198486328 24.35705947875977 70.18695831298828 C 28.66600799560547 72.00949859619141 33.2449836730957 72.93359375 37.966796875 72.93359375 C 42.6886100769043 72.93359375 47.26758575439453 72.00949859619141 51.57653427124023 70.18695831298828 C 55.73999786376953 68.42597198486328 59.47979736328125 65.90431976318359 62.69205856323242 62.69205856323242 C 65.90431976318359 59.47979736328125 68.42597198486328 55.73999786376953 70.18695831298828 51.57653427124023 C 72.00949859619141 47.26758575439453 72.93359375 42.6886100769043 72.93359375 37.966796875 C 72.93359375 33.2449836730957 72.00949859619141 28.66600799560547 70.18695831298828 24.35705947875977 C 68.42597198486328 20.19359588623047 65.90431976318359 16.45379638671875 62.69205856323242 13.24153518676758 C 59.47979736328125 10.02927398681641 55.73999786376953 7.507621765136719 51.57653427124023 5.746635437011719 C 47.26758575439453 3.924095153808594 42.6886100769043 3 37.966796875 3 M 37.966796875 0 C 58.93528366088867 0 75.93359375 16.99831008911133 75.93359375 37.966796875 C 75.93359375 58.93528366088867 58.93528366088867 75.93359375 37.966796875 75.93359375 C 16.99831008911133 75.93359375 0 58.93528366088867 0 37.966796875 C 0 16.99831008911133 16.99831008911133 0 37.966796875 0 Z" stroke="none" fill="#248abf"/>
                          </g>
                        </g>
                      </g>
                    </g>
                  </g>
                </g>
              </g>
            </g>
          </g>
        </g>
      </g>
    </g>
    <g id="obediente_12_" data-name="obediente (12)" transform="translate(205.636 696.863)">
      <g id="Grupo_1231537" data-name="Grupo 1231537" transform="translate(9.303 0.727)">
        <g id="Grupo_1231535" data-name="Grupo 1231535">
          <g id="Grupo_1231532" data-name="Grupo 1231532" transform="translate(0 19.002)">
            <g id="Grupo_1231525" data-name="Grupo 1231525" transform="translate(0 0)">
              <path id="Trazado_1192520" data-name="Trazado 1192520" d="M39.2,203.876l1.747,3.026a.291.291,0,0,0,.252.145H53.168a.291.291,0,0,0,.252-.145l1.747-3.026a.291.291,0,0,0-.252-.436H39.452A.291.291,0,0,0,39.2,203.876Z" transform="translate(-39.16 -203.44)" fill="#fed402"/>
            </g>
            <g id="Grupo_1231531" data-name="Grupo 1231531">
              <g id="Grupo_1231526" data-name="Grupo 1231526" transform="translate(26.012 0)">
                <path id="Trazado_1192521" data-name="Trazado 1192521" d="M307.421,203.876l1.747,3.026a.291.291,0,0,0,.252.145H321.39a.291.291,0,0,0,.252-.145l1.747-3.026a.291.291,0,0,0-.252-.436H307.673A.291.291,0,0,0,307.421,203.876Z" transform="translate(-307.382 -203.44)" fill="#fed402"/>
              </g>
              <g id="Grupo_1231527" data-name="Grupo 1231527" transform="translate(0 0)">
                <path id="Trazado_1192522" data-name="Trazado 1192522" d="M39.2,203.876l1.747,3.026a.291.291,0,0,0,.252.145H53.168a.291.291,0,0,0,.252-.145l1.747-3.026a.291.291,0,0,0-.252-.436H39.452A.291.291,0,0,0,39.2,203.876Z" transform="translate(-39.16 -203.44)" fill="#ca6e59"/>
              </g>
              <g id="Grupo_1231528" data-name="Grupo 1231528" transform="translate(0)">
                <path id="Trazado_1192523" data-name="Trazado 1192523" d="M45.057,206.9l-1.747-3.026a.291.291,0,0,1,.252-.436h-4.11a.291.291,0,0,0-.252.436l1.747,3.026a.291.291,0,0,0,.252.146h4.11A.291.291,0,0,1,45.057,206.9Z" transform="translate(-39.161 -203.439)" fill="#bb5d4c"/>
              </g>
              <g id="Grupo_1231529" data-name="Grupo 1231529" transform="translate(26.012 0)">
                <path id="Trazado_1192524" data-name="Trazado 1192524" d="M307.421,203.876l1.747,3.026a.291.291,0,0,0,.252.145H321.39a.291.291,0,0,0,.252-.145l1.747-3.026a.291.291,0,0,0-.252-.436H307.673A.291.291,0,0,0,307.421,203.876Z" transform="translate(-307.382 -203.44)" fill="#ca6e59"/>
              </g>
              <g id="Grupo_1231530" data-name="Grupo 1231530" transform="translate(26.012)">
                <path id="Trazado_1192525" data-name="Trazado 1192525" d="M313.787,206.9l-1.747-3.026a.291.291,0,0,1,.252-.436h-4.618a.291.291,0,0,0-.252.436l1.747,3.026a.291.291,0,0,0,.252.146h4.618A.291.291,0,0,1,313.787,206.9Z" transform="translate(-307.383 -203.439)" fill="#bb5d4c"/>
              </g>
            </g>
          </g>
          <path id="Trazado_1192526" data-name="Trazado 1192526" d="M239.852,121.39V103.608a.485.485,0,0,0-.485-.485h-2.916a.485.485,0,0,0-.485.485V121.39h3.886Z" transform="translate(-216.88 -93.85)" fill="#bb5d4c"/>
          <path id="Trazado_1192527" data-name="Trazado 1192527" d="M237.611,121.39V103.608a.485.485,0,0,1,.485-.485h-1.645a.485.485,0,0,0-.485.485V121.39h1.645Z" transform="translate(-216.88 -93.85)" fill="#a44f3e"/>
          <g id="Grupo_1231533" data-name="Grupo 1231533" transform="translate(18.314 0)">
            <circle id="Elipse_14816" data-name="Elipse 14816" cx="2.715" cy="2.715" r="2.715" fill="#883f2e"/>
          </g>
          <g id="Grupo_1231534" data-name="Grupo 1231534" transform="translate(18.314)">
            <path id="Trazado_1192528" data-name="Trazado 1192528" d="M230.43,10.215a2.714,2.714,0,0,1,1.5-2.429,2.715,2.715,0,1,0,0,4.858A2.714,2.714,0,0,1,230.43,10.215Z" transform="translate(-228.005 -7.5)" fill="#6d3326"/>
          </g>
        </g>
        <g id="Grupo_1231536" data-name="Grupo 1231536" transform="translate(3.738 27.541)">
          <path id="Trazado_1192529" data-name="Trazado 1192529" d="M218.322,295.652v-2.228a1.94,1.94,0,0,0-1.94-1.94H211.2a1.94,1.94,0,0,0-1.94,1.94v2.228Z" transform="translate(-196.498 -291.485)" fill="#883f2e"/>
          <path id="Trazado_1192530" data-name="Trazado 1192530" d="M212.528,295.652v-2.228a1.94,1.94,0,0,1,1.94-1.94h-3.273a1.94,1.94,0,0,0-1.94,1.94v2.228Z" transform="translate(-196.497 -291.485)" fill="#6d3326"/>
          <path id="Trazado_1192531" data-name="Trazado 1192531" d="M187.625,338.874v-2.755a1.662,1.662,0,0,0-1.662-1.662H172.834a1.662,1.662,0,0,0-1.662,1.662v2.755Z" transform="translate(-162.107 -330.29)" fill="#bb5d4c"/>
          <path id="Trazado_1192532" data-name="Trazado 1192532" d="M175.263,338.874v-2.755a1.662,1.662,0,0,1,1.662-1.662h-4.09a1.662,1.662,0,0,0-1.662,1.662v2.755Z" transform="translate(-162.108 -330.29)" fill="#a44f3e"/>
          <path id="Trazado_1192533" data-name="Trazado 1192533" d="M80.293,379.006a2.59,2.59,0,0,0-2.59,2.59v4.922a2.59,2.59,0,0,0,2.59,2.59h1.05v-6.865h5.3v6.865H116.3v-10.1Z" transform="translate(-77.703 -370.518)" fill="#fff3de"/>
        </g>
      </g>
      <g id="Grupo_1231546" data-name="Grupo 1231546" transform="translate(6.823 36.756)">
        <g id="Grupo_1231541" data-name="Grupo 1231541" transform="translate(0)">
          <g id="Grupo_1231538" data-name="Grupo 1231538">
            <path id="Trazado_1192534" data-name="Trazado 1192534" d="M22.4,389.109a2.59,2.59,0,0,1-2.59-2.59V381.6a2.59,2.59,0,0,1,2.59-2.59H18.647a5.051,5.051,0,0,0,0,10.1H22.4Z" transform="translate(-13.596 -379.006)" fill="#3675bb"/>
          </g>
          <g id="Grupo_1231539" data-name="Grupo 1231539">
            <path id="Trazado_1192535" data-name="Trazado 1192535" d="M16.05,384.057a5.051,5.051,0,0,1,5.051-5.051H18.647a5.051,5.051,0,0,0,0,10.1H21.1A5.051,5.051,0,0,1,16.05,384.057Z" transform="translate(-13.596 -379.006)" fill="#2b68b6"/>
          </g>
          <g id="Grupo_1231540" data-name="Grupo 1231540" transform="translate(6.217 0.003)">
            <path id="Trazado_1192536" data-name="Trazado 1192536" d="M81.343,386.3a2.588,2.588,0,0,1-1.187-2.177V379.2c0-.055,0-.108.006-.162a2.59,2.59,0,0,0-2.459,2.587v4.922a2.59,2.59,0,0,0,2.59,2.59h1.05Z" transform="translate(-77.703 -379.041)" fill="#ffe5c2"/>
            <path id="Trazado_1192537" data-name="Trazado 1192537" d="M169.857,458.174h29.66V460.6h-29.66Z" transform="translate(-160.92 -450.5)" fill="#ffe5c2"/>
          </g>
        </g>
        <g id="Grupo_1231545" data-name="Grupo 1231545" transform="translate(9.857 3.238)">
          <g id="Grupo_1231542" data-name="Grupo 1231542">
            <path id="Trazado_1192538" data-name="Trazado 1192538" d="M120.537,421.036V412.4h-5.3v8.641a.291.291,0,0,0,.456.239l2.192-1.517,2.192,1.517A.291.291,0,0,0,120.537,421.036Z" transform="translate(-115.24 -412.395)" fill="#fb2b3a"/>
          </g>
          <g id="Grupo_1231544" data-name="Grupo 1231544" transform="translate(0)">
            <g id="Grupo_1231543" data-name="Grupo 1231543">
              <path id="Trazado_1192539" data-name="Trazado 1192539" d="M117.678,412.4H115.24v8.641a.291.291,0,0,0,.456.239l1.982-1.372Z" transform="translate(-115.24 -412.395)" fill="#e41f2d"/>
            </g>
          </g>
        </g>
      </g>
      <path id="Trazado_1192540" data-name="Trazado 1192540" d="M53.84,46.131H52.365V37.483H53.84a.727.727,0,1,0,0-1.455H39.285V34.1a2.392,2.392,0,0,0-2.39-2.39h-1.3v-1.5A2.67,2.67,0,0,0,33,27.543V15.808a.727.727,0,0,0-1.455,0V27.541H29.116V10.728h2.431v1.685a.727.727,0,0,0,1.455,0V10.486a1.214,1.214,0,0,0-1.212-1.212h-.731V6.807A3.452,3.452,0,0,0,33.7,4.17H42.61V5.5L35.5,19.009a1.017,1.017,0,0,0-.774,1.52l1.747,3.026a1.021,1.021,0,0,0,.882.509H44.2a.727.727,0,0,0,0-1.455H37.6l-1.243-2.153H50.313L49.07,22.61H47.594a.727.727,0,1,0,0,1.455h1.728a1.021,1.021,0,0,0,.882-.509l1.747-3.026a1.017,1.017,0,0,0-.774-1.52L44.065,5.5V4.17h2.723a.727.727,0,0,0,0-1.455H33.7a3.442,3.442,0,0,0-6.729,0H13.876a.727.727,0,0,0,0,1.455H16.6V5.5L9.486,19.009a1.017,1.017,0,0,0-.774,1.52h0l1.747,3.026a1.021,1.021,0,0,0,.882.509H23.31a1.021,1.021,0,0,0,.882-.509l1.747-3.026a1.017,1.017,0,0,0-.774-1.52L18.053,5.5V4.17h8.914A3.452,3.452,0,0,0,29.6,6.806V9.273h-.731a1.214,1.214,0,0,0-1.212,1.212V27.543a2.67,2.67,0,0,0-2.59,2.665v1.5h-1.3a2.392,2.392,0,0,0-2.39,2.39v1.931h-9.5a5.779,5.779,0,1,0,0,11.557h4.079v1.049a1.018,1.018,0,0,0,1.6.837l1.778-1.23,1.778,1.23a1.018,1.018,0,0,0,1.6-.837V47.586H53.84a.727.727,0,1,0,0-1.454ZM42.61,19H37.146L42.61,8.62ZM44.065,8.62,49.529,19H44.065ZM16.6,8.62V19H11.134Zm6.46,13.99H11.593L10.35,20.457H24.3ZM23.517,19H18.053V8.62Zm4.827-15.56A1.988,1.988,0,1,1,30.332,5.43,1.99,1.99,0,0,1,28.344,3.442ZM26.526,30.207A1.214,1.214,0,0,1,27.738,29h5.187a1.214,1.214,0,0,1,1.212,1.212v1.5H26.526ZM11.875,46.131a4.324,4.324,0,1,1,0-8.648h1.012a3.3,3.3,0,0,0-.574,1.863v4.922a3.3,3.3,0,0,0,.574,1.863ZM21.25,47.8l-1.507-1.043a.727.727,0,0,0-.828,0L17.408,47.8V40.721H21.25Zm29.66-8.535H35.189a.727.727,0,1,0,0,1.455H50.911v2.172H35.189a.727.727,0,1,0,0,1.455H50.911v1.783H22.7v-5.41h6.137a.727.727,0,1,0,0-1.455H15.631a.727.727,0,0,0,0,1.455h.323v5.41h-.323a1.865,1.865,0,0,1-1.863-1.863V39.346a1.865,1.865,0,0,1,1.863-1.863H27.325a.727.727,0,0,0,0-1.455H22.832V34.1a.936.936,0,0,1,.935-.935H36.9a.936.936,0,0,1,.935.935v1.931H30.719a.727.727,0,0,0,0,1.455H50.91Z" transform="translate(0)"/>
    </g>
  </g>
</svg>
