<svg xmlns="http://www.w3.org/2000/svg" xmlns:xlink="http://www.w3.org/1999/xlink" width="93.934" height="93.934" viewBox="0 0 93.934 93.934">
  <defs>
    <filter id="Trazado_978624" x="0" y="0" width="93.934" height="93.934" filterUnits="userSpaceOnUse">
      <feOffset dy="3" input="SourceAlpha"/>
      <feGaussianBlur stdDeviation="3" result="blur"/>
      <feFlood flood-opacity="0.161"/>
      <feComposite operator="in" in2="blur"/>
      <feComposite in="SourceGraphic"/>
    </filter>
  </defs>
  <g id="Grupo_1231572" data-name="Grupo 1231572" transform="translate(-189 -820.189)">
    <g id="Grupo_1229587" data-name="Grupo 1229587" transform="translate(0 -1248.891)">
      <g id="Grupo_1229387" data-name="Grupo 1229387" transform="translate(-1 -1914.14)">
        <g id="Grupo_1226961" data-name="Grupo 1226961" transform="translate(0 -11.918)">
          <g id="Grupo_1225961" data-name="Grupo 1225961" transform="translate(0 2131.139)">
            <g id="Grupo_1224945" data-name="Grupo 1224945" transform="translate(0.001 -1279.381)">
              <g id="Grupo_1214679" data-name="Grupo 1214679" transform="translate(-631 2418.347)">
                <g id="Grupo_1212848" data-name="Grupo 1212848" transform="translate(212 -798.5)">
                  <g id="Grupo_1210963" data-name="Grupo 1210963" transform="translate(0 -377.186)">
                    <g id="Grupo_1208068" data-name="Grupo 1208068" transform="translate(412 470.719)">
                      <g id="Grupo_1144123" data-name="Grupo 1144123" transform="translate(206 1436)">
                        <g transform="matrix(1, 0, 0, 1, -9, -6)" filter="url(#Trazado_978624)">
                          <g id="Trazado_978624-2" data-name="Trazado 978624" transform="translate(9 6)" fill="#e7f2f8">
                            <path d="M 37.966796875 74.43359375 C 33.04315185546875 74.43359375 28.26757431030273 73.46962738037109 23.77274131774902 71.56847381591797 C 19.43047523498535 69.73184967041016 15.53040790557861 67.10224914550781 12.18087482452393 63.75271987915039 C 8.831341743469238 60.4031867980957 6.201741218566895 56.50312042236328 4.365118980407715 52.16086196899414 C 2.463963508605957 47.66601943969727 1.499996900558472 42.89044189453125 1.499996900558472 37.966796875 C 1.499996900558472 33.04315185546875 2.463963508605957 28.26757431030273 4.365118980407715 23.77274131774902 C 6.201741218566895 19.43047523498535 8.831341743469238 15.53040790557861 12.18087482452393 12.18087482452393 C 15.53040790557861 8.831341743469238 19.43047523498535 6.201741218566895 23.77274131774902 4.365118980407715 C 28.26757431030273 2.463963508605957 33.04315185546875 1.499996900558472 37.966796875 1.499996900558472 C 42.89044189453125 1.499996900558472 47.66601943969727 2.463963508605957 52.16086196899414 4.365118980407715 C 56.50312042236328 6.201741218566895 60.4031867980957 8.831341743469238 63.75271987915039 12.18087482452393 C 67.10224914550781 15.53040790557861 69.73184967041016 19.43047523498535 71.56847381591797 23.77274131774902 C 73.46962738037109 28.26757431030273 74.43359375 33.04315185546875 74.43359375 37.966796875 C 74.43359375 42.89044189453125 73.46962738037109 47.66601943969727 71.56847381591797 52.16086196899414 C 69.73184967041016 56.50313186645508 67.10224914550781 60.4031867980957 63.75271987915039 63.75271987915039 C 60.4031867980957 67.10224914550781 56.50313186645508 69.73184967041016 52.16086196899414 71.56847381591797 C 47.66601943969727 73.46962738037109 42.89044189453125 74.43359375 37.966796875 74.43359375 Z" stroke="none"/>
                            <path d="M 37.966796875 3 C 33.2449836730957 3 28.66600799560547 3.924095153808594 24.35705947875977 5.746635437011719 C 20.19359588623047 7.507621765136719 16.45379638671875 10.02927398681641 13.24153518676758 13.24153518676758 C 10.02927398681641 16.45379638671875 7.507621765136719 20.19359588623047 5.746635437011719 24.35705947875977 C 3.924095153808594 28.66600799560547 3 33.2449836730957 3 37.966796875 C 3 42.6886100769043 3.924095153808594 47.26758575439453 5.746635437011719 51.57653427124023 C 7.507621765136719 55.73999786376953 10.02927398681641 59.47979736328125 13.24153518676758 62.69205856323242 C 16.45379638671875 65.90431976318359 20.19359588623047 68.42597198486328 24.35705947875977 70.18695831298828 C 28.66600799560547 72.00949859619141 33.2449836730957 72.93359375 37.966796875 72.93359375 C 42.6886100769043 72.93359375 47.26758575439453 72.00949859619141 51.57653427124023 70.18695831298828 C 55.73999786376953 68.42597198486328 59.47979736328125 65.90431976318359 62.69205856323242 62.69205856323242 C 65.90431976318359 59.47979736328125 68.42597198486328 55.73999786376953 70.18695831298828 51.57653427124023 C 72.00949859619141 47.26758575439453 72.93359375 42.6886100769043 72.93359375 37.966796875 C 72.93359375 33.2449836730957 72.00949859619141 28.66600799560547 70.18695831298828 24.35705947875977 C 68.42597198486328 20.19359588623047 65.90431976318359 16.45379638671875 62.69205856323242 13.24153518676758 C 59.47979736328125 10.02927398681641 55.73999786376953 7.507621765136719 51.57653427124023 5.746635437011719 C 47.26758575439453 3.924095153808594 42.6886100769043 3 37.966796875 3 M 37.966796875 0 C 58.93528366088867 0 75.93359375 16.99831008911133 75.93359375 37.966796875 C 75.93359375 58.93528366088867 58.93528366088867 75.93359375 37.966796875 75.93359375 C 16.99831008911133 75.93359375 0 58.93528366088867 0 37.966796875 C 0 16.99831008911133 16.99831008911133 0 37.966796875 0 Z" stroke="none" fill="#248abf"/>
                          </g>
                        </g>
                      </g>
                    </g>
                  </g>
                </g>
              </g>
            </g>
          </g>
        </g>
      </g>
    </g>
    <g id="obediente_13_" data-name="obediente (13)" transform="translate(199.133 840.571)">
      <g id="Grupo_1231548" data-name="Grupo 1231548" transform="translate(24.22 0.677)">
        <path id="Trazado_1192541" data-name="Trazado 1192541" d="M145.524,7.5H116.767a.452.452,0,0,0-.452.452V20.47h2.961a2.213,2.213,0,0,1,.154,4.42v2.745h0a.9.9,0,0,1,.766.891v5.606a.9.9,0,0,1-.766.891h0V37.77a2.213,2.213,0,0,1-.154,4.42h-2.961V45.9h6.232a.9.9,0,0,1,.9.9v1.8h.688a.9.9,0,0,1,.9.9v2.88h20.935V7.952A.452.452,0,0,0,145.524,7.5Z" transform="translate(-116.315 -7.5)" fill="#fff3de"/>
      </g>
      <g id="Grupo_1231549" data-name="Grupo 1231549" transform="translate(24.22 0.677)">
        <path id="Trazado_1192542" data-name="Trazado 1192542" d="M119.276,20.47l.081,0V7.952a.452.452,0,0,1,.452-.452h-3.042a.452.452,0,0,0-.452.452V20.47Z" transform="translate(-116.315 -7.5)" fill="#ffe5c2"/>
        <path id="Trazado_1192543" data-name="Trazado 1192543" d="M119.276,391.629h-2.961v3.706h3.042v-3.708Z" transform="translate(-116.315 -356.938)" fill="#ffe5c2"/>
      </g>
      <g id="Grupo_1231567" data-name="Grupo 1231567" transform="translate(15.755 13.648)">
        <g id="Grupo_1231550" data-name="Grupo 1231550" transform="translate(12.346 9.316)">
          <path id="Trazado_1192544" data-name="Trazado 1192544" d="M159.3,254.29h4.18v3.088H159.3Z" transform="translate(-159.296 -254.29)" fill="#883f2e"/>
          <path id="Trazado_1192545" data-name="Trazado 1192545" d="M237.5,254.29h5.971v3.088H237.5Z" transform="translate(-230.44 -254.29)" fill="#883f2e"/>
        </g>
        <g id="Grupo_1231551" data-name="Grupo 1231551" transform="translate(12.346 10.915)">
          <path id="Trazado_1192546" data-name="Trazado 1192546" d="M159.3,272h4.18v1.489H159.3Z" transform="translate(-159.296 -272)" fill="#6d3326"/>
          <path id="Trazado_1192547" data-name="Trazado 1192547" d="M237.5,272h5.971v1.489H237.5Z" transform="translate(-230.44 -272)" fill="#6d3326"/>
        </g>
        <g id="Grupo_1231552" data-name="Grupo 1231552" transform="translate(25.379 8.595)">
          <path id="Trazado_1192548" data-name="Trazado 1192548" d="M320.4,248.575a2.265,2.265,0,0,1-2.265,2.265h-14a.515.515,0,0,1-.515-.515v-3.5a.515.515,0,0,1,.515-.515h14A2.265,2.265,0,0,1,320.4,248.575Z" transform="translate(-303.616 -246.31)" fill="#ca6e59"/>
        </g>
        <g id="Grupo_1231553" data-name="Grupo 1231553" transform="translate(25.379 8.595)">
          <path id="Trazado_1192549" data-name="Trazado 1192549" d="M306.694,248.9a.515.515,0,0,1-.515-.515V246.31h-2.048a.515.515,0,0,0-.515.515v3.5a.515.515,0,0,0,.515.515h14a2.265,2.265,0,0,0,2.241-1.939Z" transform="translate(-303.616 -246.31)" fill="#bb5d4c"/>
        </g>
        <g id="Grupo_1231554" data-name="Grupo 1231554" transform="translate(16.526 8.595)">
          <path id="Trazado_1192550" data-name="Trazado 1192550" d="M208.467,246.763v3.626a.452.452,0,0,1-.452.452h-1.979a.452.452,0,0,1-.452-.452v-3.626a.452.452,0,0,1,.452-.452h1.979a.451.451,0,0,1,.452.452Z" transform="translate(-205.585 -246.311)" fill="#ca6e59"/>
        </g>
        <g id="Grupo_1231555" data-name="Grupo 1231555" transform="translate(16.526 8.595)">
          <path id="Trazado_1192551" data-name="Trazado 1192551" d="M206.894,250.389v-3.626a.452.452,0,0,1,.452-.452h-1.309a.452.452,0,0,0-.452.452v3.626a.452.452,0,0,0,.452.452h1.309A.452.452,0,0,1,206.894,250.389Z" transform="translate(-205.585 -246.311)" fill="#bb5d4c"/>
        </g>
        <g id="Grupo_1231556" data-name="Grupo 1231556" transform="translate(5.61 4.42)">
          <path id="Trazado_1192552" data-name="Trazado 1192552" d="M90.536,312.309h-5.7a.907.907,0,0,1-.137-.012v2.745c.051,0,.1-.006.154-.006h5.662c.052,0,.1,0,.154.006V312.3A.9.9,0,0,1,90.536,312.309Z" transform="translate(-84.703 -302.163)" fill="#883f2e"/>
          <path id="Trazado_1192553" data-name="Trazado 1192553" d="M84.84,312.309a.907.907,0,0,1-.137-.012v2.745c.051,0,.1-.006.154-.006h2.12v-2.728H84.84Z" transform="translate(-84.703 -302.163)" fill="#6d3326"/>
          <path id="Trazado_1192554" data-name="Trazado 1192554" d="M84.84,202.813h5.7a.907.907,0,0,1,.137.012v-2.745c-.051,0-.1.006-.154.006H84.857c-.052,0-.1,0-.154-.006v2.745A.907.907,0,0,1,84.84,202.813Z" transform="translate(-84.703 -200.079)" fill="#883f2e"/>
          <path id="Trazado_1192555" data-name="Trazado 1192555" d="M84.84,202.812h2.137v-2.728h-2.12c-.052,0-.1,0-.154-.006v2.745A.919.919,0,0,1,84.84,202.812Z" transform="translate(-84.703 -200.078)" fill="#6d3326"/>
        </g>
        <g id="Grupo_1231557" data-name="Grupo 1231557" transform="translate(4.845 7.154)">
          <path id="Trazado_1192556" data-name="Trazado 1192556" d="M83.727,231.255v5.605a.9.9,0,0,1-.9.9h-5.7a.9.9,0,0,1-.9-.9v-5.605a.9.9,0,0,1,.9-.9h5.7A.9.9,0,0,1,83.727,231.255Z" transform="translate(-76.225 -230.352)" fill="#ca6e59"/>
        </g>
        <g id="Grupo_1231558" data-name="Grupo 1231558" transform="translate(4.845 7.154)">
          <path id="Trazado_1192557" data-name="Trazado 1192557" d="M79.275,236.861v-5.605a.9.9,0,0,1,.9-.9h-3.05a.9.9,0,0,0-.9.9v5.605a.9.9,0,0,0,.9.9h3.05A.9.9,0,0,1,79.275,236.861Z" transform="translate(-76.225 -230.352)" fill="#bb5d4c"/>
        </g>
        <g id="Grupo_1231561" data-name="Grupo 1231561" transform="translate(0 25.426)">
          <path id="Trazado_1192558" data-name="Trazado 1192558" d="M54.2,435.477a.922.922,0,0,0,0-.093v-1.8a.9.9,0,0,0-.9-.9H41.1a.9.9,0,0,0-.9.9v1.8a.924.924,0,0,0,0,.093Z" transform="translate(-38.604 -432.685)" fill="#ca6e59"/>
          <path id="Trazado_1192559" data-name="Trazado 1192559" d="M43.252,435.477a.922.922,0,0,1,0-.093v-1.8a.9.9,0,0,1,.9-.9H41.1a.9.9,0,0,0-.9.9v1.8a.923.923,0,0,0,0,.093Z" transform="translate(-38.604 -432.685)" fill="#bb5d4c"/>
          <g id="Grupo_1231559" data-name="Grupo 1231559" transform="translate(0 2.702)">
            <path id="Trazado_1192560" data-name="Trazado 1192560" d="M39.769,466.391H23.03a.452.452,0,0,1-.452-.452v-2.428a.9.9,0,0,1,.9-.9H38.866a.9.9,0,0,1,.9.9Z" transform="translate(-22.578 -462.608)" fill="#883f2e"/>
          </g>
          <g id="Grupo_1231560" data-name="Grupo 1231560" transform="translate(0 2.702)">
            <path id="Trazado_1192561" data-name="Trazado 1192561" d="M25.6,465.94v-2.428a.9.9,0,0,1,.9-.9H23.481a.9.9,0,0,0-.9.9v2.428a.452.452,0,0,0,.452.452h3.018A.452.452,0,0,1,25.6,465.94Z" transform="translate(-22.578 -462.608)" fill="#6d3326"/>
          </g>
        </g>
        <g id="Grupo_1231566" data-name="Grupo 1231566" transform="translate(3.551)">
          <g id="Grupo_1231562" data-name="Grupo 1231562" transform="translate(0 17.294)">
            <path id="Trazado_1192562" data-name="Trazado 1192562" d="M71.993,344.846a2.213,2.213,0,0,1-2.213,2.213H64.118a2.213,2.213,0,0,1,0-4.426H69.78A2.213,2.213,0,0,1,71.993,344.846Z" transform="translate(-61.905 -342.633)" fill="#ca6e59"/>
          </g>
          <g id="Grupo_1231563" data-name="Grupo 1231563" transform="translate(0 17.294)">
            <path id="Trazado_1192563" data-name="Trazado 1192563" d="M64.92,344.846a2.213,2.213,0,0,1,2.213-2.213H64.118a2.213,2.213,0,0,0,0,4.426h3.015A2.213,2.213,0,0,1,64.92,344.846Z" transform="translate(-61.905 -342.633)" fill="#bb5d4c"/>
          </g>
          <g id="Grupo_1231564" data-name="Grupo 1231564" transform="translate(0)">
            <path id="Trazado_1192564" data-name="Trazado 1192564" d="M71.993,153.341a2.213,2.213,0,0,1-2.213,2.213H64.118a2.213,2.213,0,0,1,0-4.426H69.78A2.213,2.213,0,0,1,71.993,153.341Z" transform="translate(-61.905 -151.128)" fill="#ca6e59"/>
          </g>
          <g id="Grupo_1231565" data-name="Grupo 1231565">
            <path id="Trazado_1192565" data-name="Trazado 1192565" d="M64.92,153.341a2.213,2.213,0,0,1,2.213-2.213H64.118a2.213,2.213,0,0,0,0,4.426h3.015A2.213,2.213,0,0,1,64.92,153.341Z" transform="translate(-61.905 -151.128)" fill="#bb5d4c"/>
          </g>
        </g>
      </g>
      <g id="Grupo_1231570" data-name="Grupo 1231570" transform="translate(32.714 4.886)">
        <g id="Grupo_1231568" data-name="Grupo 1231568">
          <circle id="Elipse_14817" data-name="Elipse 14817" cx="6.337" cy="6.337" r="6.337" fill="#4fc123"/>
        </g>
        <g id="Grupo_1231569" data-name="Grupo 1231569" transform="translate(0)">
          <path id="Trazado_1192566" data-name="Trazado 1192566" d="M213.409,60.444a6.338,6.338,0,0,1,4.818-6.152,6.337,6.337,0,1,0,0,12.3A6.338,6.338,0,0,1,213.409,60.444Z" transform="translate(-210.372 -54.107)" fill="#47a920"/>
        </g>
      </g>
      <g id="Grupo_1231571" data-name="Grupo 1231571" transform="translate(15.078 0)">
        <path id="Trazado_1192567" data-name="Trazado 1192567" d="M55.649,21.566H54.558V9.843a.677.677,0,0,0-.7-.677.7.7,0,0,0-.657.705V21.566H48.664a.677.677,0,1,0,0,1.355h6.985a1.587,1.587,0,0,1,0,3.175H41.812V22.92H45.5a.677.677,0,1,0,0-1.355H41.649a1.193,1.193,0,0,0-1.094.721H35.764a1.13,1.13,0,0,0-1.051-.721H32.733a1.13,1.13,0,0,0-1.051.721h-2.9V21.7a1.579,1.579,0,0,0-.766-1.352V18.629a2.89,2.89,0,0,0-.832-5.659H24.9V1.355H53.2V6.683a.677.677,0,0,0,.7.677.7.7,0,0,0,.657-.705V1.129A1.129,1.129,0,0,0,53.43,0H24.672a1.129,1.129,0,0,0-1.129,1.129V12.97H21.52a2.89,2.89,0,0,0-.832,5.658v1.725a1.579,1.579,0,0,0-.766,1.352V27.31a1.579,1.579,0,0,0,.766,1.352v1.725a2.89,2.89,0,0,0,.832,5.659h2.023V38.4H18.249a1.582,1.582,0,0,0-1.58,1.58V41.1h-.011a1.582,1.582,0,0,0-1.58,1.58v2.428a1.13,1.13,0,0,0,1.129,1.129H53.43a1.129,1.129,0,0,0,1.129-1.129V27.45h1.091a2.942,2.942,0,0,0,0-5.884ZM35.841,23.641h4.616v1.734H35.841Zm-2.882-.721h1.528V26.1H32.959Zm-4.18.721H31.6v1.734H28.779Zm-8.795-7.78a1.538,1.538,0,0,1,1.536-1.536h5.662a1.536,1.536,0,1,1,0,3.072H21.52A1.538,1.538,0,0,1,19.984,15.861ZM21.5,27.536a.226.226,0,0,1-.226-.226V21.7a.226.226,0,0,1,.226-.226h5.7a.226.226,0,0,1,.226.226V27.31a.226.226,0,0,1-.226.226Zm5.156,1.355v1.373H22.043V28.891Zm-4.616-8.766V18.751h4.616v1.373ZM21.52,34.691a1.536,1.536,0,1,1,0-3.072h5.662a1.536,1.536,0,1,1,0,3.072ZM32.269,44.882H16.433v-2.2a.226.226,0,0,1,.226-.226H20.85a.677.677,0,1,0,0-1.355H18.023V39.977a.226.226,0,0,1,.226-.226h12.2a.226.226,0,0,1,.226.226V41.1H24.011a.677.677,0,1,0,0,1.355h8.032a.226.226,0,0,1,.226.226Zm20.935,0H33.623v-2.2a1.582,1.582,0,0,0-1.58-1.58h-.011V39.977a1.582,1.582,0,0,0-1.58-1.58H24.9V36.045h2.284a2.89,2.89,0,0,0,.832-5.659V28.662a1.579,1.579,0,0,0,.766-1.352v-.581h2.9a1.13,1.13,0,0,0,1.051.721h1.979a1.13,1.13,0,0,0,1.051-.721h4.791a1.193,1.193,0,0,0,1.094.721H53.2V44.882Z" transform="translate(-15.078 0)"/>
        <path id="Trazado_1192568" data-name="Trazado 1192568" d="M202.872,53.621a7.014,7.014,0,1,0,7.014-7.014,7.022,7.022,0,0,0-7.014,7.014Zm12.673,0a5.659,5.659,0,1,1-5.659-5.659,5.666,5.666,0,0,1,5.659,5.659Z" transform="translate(-185.913 -42.398)"/>
        <path id="Trazado_1192569" data-name="Trazado 1192569" d="M247.5,102.5a.677.677,0,0,0-.958.958l2.083,2.083a.677.677,0,0,0,.958,0l3.229-3.229a.677.677,0,1,0-.958-.958l-2.75,2.75Z" transform="translate(-225.459 -92.024)"/>
        <path id="Trazado_1192570" data-name="Trazado 1192570" d="M243.681,327.746a.677.677,0,0,0,.677.677h12.456a.677.677,0,1,0,0-1.355H244.358A.677.677,0,0,0,243.681,327.746Z" transform="translate(-223.037 -297.533)"/>
        <path id="Trazado_1192571" data-name="Trazado 1192571" d="M317.6,363.546h-6.422a.677.677,0,1,0,0,1.355H317.6a.677.677,0,1,0,0-1.355Z" transform="translate(-283.822 -330.716)"/>
        <path id="Trazado_1192572" data-name="Trazado 1192572" d="M244.358,364.9h3.686a.677.677,0,1,0,0-1.355h-3.686a.677.677,0,1,0,0,1.355Z" transform="translate(-223.037 -330.716)"/>
        <path id="Trazado_1192573" data-name="Trazado 1192573" d="M256.813,400.023H244.357a.677.677,0,1,0,0,1.355h12.456a.677.677,0,0,0,0-1.355Z" transform="translate(-223.036 -363.899)"/>
        <path id="Trazado_1192574" data-name="Trazado 1192574" d="M349.438,436.5h-3.261a.677.677,0,1,0,0,1.355h3.261a.677.677,0,1,0,0-1.355Z" transform="translate(-315.661 -397.082)"/>
        <path id="Trazado_1192575" data-name="Trazado 1192575" d="M251.476,436.5h-7.118a.677.677,0,1,0,0,1.355h7.118a.677.677,0,1,0,0-1.355Z" transform="translate(-223.037 -397.082)"/>
      </g>
    </g>
  </g>
</svg>
