<svg xmlns="http://www.w3.org/2000/svg" xmlns:xlink="http://www.w3.org/1999/xlink" width="93.934" height="93.934" viewBox="0 0 93.934 93.934">
  <defs>
    <filter id="Trazado_978624" x="0" y="0" width="93.934" height="93.934" filterUnits="userSpaceOnUse">
      <feOffset dy="3" input="SourceAlpha"/>
      <feGaussianBlur stdDeviation="3" result="blur"/>
      <feFlood flood-opacity="0.161"/>
      <feComposite operator="in" in2="blur"/>
      <feComposite in="SourceGraphic"/>
    </filter>
  </defs>
  <g id="Grupo_1231574" data-name="Grupo 1231574" transform="translate(-189 -997.033)">
    <g id="Grupo_1229588" data-name="Grupo 1229588" transform="translate(0 -1072.047)">
      <g id="Grupo_1229387" data-name="Grupo 1229387" transform="translate(-1 -1914.14)">
        <g id="Grupo_1226961" data-name="Grupo 1226961" transform="translate(0 -11.918)">
          <g id="Grupo_1225961" data-name="Grupo 1225961" transform="translate(0 2131.139)">
            <g id="Grupo_1224945" data-name="Grupo 1224945" transform="translate(0.001 -1279.381)">
              <g id="Grupo_1214679" data-name="Grupo 1214679" transform="translate(-631 2418.347)">
                <g id="Grupo_1212848" data-name="Grupo 1212848" transform="translate(212 -798.5)">
                  <g id="Grupo_1210963" data-name="Grupo 1210963" transform="translate(0 -377.186)">
                    <g id="Grupo_1208068" data-name="Grupo 1208068" transform="translate(412 470.719)">
                      <g id="Grupo_1144123" data-name="Grupo 1144123" transform="translate(206 1436)">
                        <g transform="matrix(1, 0, 0, 1, -9, -6)" filter="url(#Trazado_978624)">
                          <g id="Trazado_978624-2" data-name="Trazado 978624" transform="translate(9 6)" fill="#e7f2f8">
                            <path d="M 37.966796875 74.43359375 C 33.04315185546875 74.43359375 28.26757431030273 73.46962738037109 23.77274131774902 71.56847381591797 C 19.43047523498535 69.73184967041016 15.53040790557861 67.10224914550781 12.18087482452393 63.75271987915039 C 8.831341743469238 60.4031867980957 6.201741218566895 56.50312042236328 4.365118980407715 52.16086196899414 C 2.463963508605957 47.66601943969727 1.499996900558472 42.89044189453125 1.499996900558472 37.966796875 C 1.499996900558472 33.04315185546875 2.463963508605957 28.26757431030273 4.365118980407715 23.77274131774902 C 6.201741218566895 19.43047523498535 8.831341743469238 15.53040790557861 12.18087482452393 12.18087482452393 C 15.53040790557861 8.831341743469238 19.43047523498535 6.201741218566895 23.77274131774902 4.365118980407715 C 28.26757431030273 2.463963508605957 33.04315185546875 1.499996900558472 37.966796875 1.499996900558472 C 42.89044189453125 1.499996900558472 47.66601943969727 2.463963508605957 52.16086196899414 4.365118980407715 C 56.50312042236328 6.201741218566895 60.4031867980957 8.831341743469238 63.75271987915039 12.18087482452393 C 67.10224914550781 15.53040790557861 69.73184967041016 19.43047523498535 71.56847381591797 23.77274131774902 C 73.46962738037109 28.26757431030273 74.43359375 33.04315185546875 74.43359375 37.966796875 C 74.43359375 42.89044189453125 73.46962738037109 47.66601943969727 71.56847381591797 52.16086196899414 C 69.73184967041016 56.50313186645508 67.10224914550781 60.4031867980957 63.75271987915039 63.75271987915039 C 60.4031867980957 67.10224914550781 56.50313186645508 69.73184967041016 52.16086196899414 71.56847381591797 C 47.66601943969727 73.46962738037109 42.89044189453125 74.43359375 37.966796875 74.43359375 Z" stroke="none"/>
                            <path d="M 37.966796875 3 C 33.2449836730957 3 28.66600799560547 3.924095153808594 24.35705947875977 5.746635437011719 C 20.19359588623047 7.507621765136719 16.45379638671875 10.02927398681641 13.24153518676758 13.24153518676758 C 10.02927398681641 16.45379638671875 7.507621765136719 20.19359588623047 5.746635437011719 24.35705947875977 C 3.924095153808594 28.66600799560547 3 33.2449836730957 3 37.966796875 C 3 42.6886100769043 3.924095153808594 47.26758575439453 5.746635437011719 51.57653427124023 C 7.507621765136719 55.73999786376953 10.02927398681641 59.47979736328125 13.24153518676758 62.69205856323242 C 16.45379638671875 65.90431976318359 20.19359588623047 68.42597198486328 24.35705947875977 70.18695831298828 C 28.66600799560547 72.00949859619141 33.2449836730957 72.93359375 37.966796875 72.93359375 C 42.6886100769043 72.93359375 47.26758575439453 72.00949859619141 51.57653427124023 70.18695831298828 C 55.73999786376953 68.42597198486328 59.47979736328125 65.90431976318359 62.69205856323242 62.69205856323242 C 65.90431976318359 59.47979736328125 68.42597198486328 55.73999786376953 70.18695831298828 51.57653427124023 C 72.00949859619141 47.26758575439453 72.93359375 42.6886100769043 72.93359375 37.966796875 C 72.93359375 33.2449836730957 72.00949859619141 28.66600799560547 70.18695831298828 24.35705947875977 C 68.42597198486328 20.19359588623047 65.90431976318359 16.45379638671875 62.69205856323242 13.24153518676758 C 59.47979736328125 10.02927398681641 55.73999786376953 7.507621765136719 51.57653427124023 5.746635437011719 C 47.26758575439453 3.924095153808594 42.6886100769043 3 37.966796875 3 M 37.966796875 0 C 58.93528366088867 0 75.93359375 16.99831008911133 75.93359375 37.966796875 C 75.93359375 58.93528366088867 58.93528366088867 75.93359375 37.966796875 75.93359375 C 16.99831008911133 75.93359375 0 58.93528366088867 0 37.966796875 C 0 16.99831008911133 16.99831008911133 0 37.966796875 0 Z" stroke="none" fill="#248abf"/>
                          </g>
                        </g>
                      </g>
                    </g>
                  </g>
                </g>
              </g>
            </g>
          </g>
        </g>
      </g>
    </g>
    <g id="juez_6_" data-name="juez (6)" transform="translate(207.703 1013.29)">
      <path id="Trazado_1192576" data-name="Trazado 1192576" d="M47,12.464h3.23v6.7H47Z" transform="translate(-8.085 -2.207)" fill="#955a21"/>
      <path id="Trazado_1192577" data-name="Trazado 1192577" d="M12.855,39.405a2.855,2.855,0,0,1-2.019-4.874L17.267,28.1l8.075-1.615V24.326h4.845v2.159L38.262,28.1l3.23,11.3Z" transform="translate(-0.963 -4.491)" fill="#5a5b5d"/>
      <path id="Trazado_1192578" data-name="Trazado 1192578" d="M38.765,20.572l-.883-10.146-.173-1.99A7.046,7.046,0,0,0,30.69,2H29.075a7.045,7.045,0,0,0-7.019,6.435l-.173,1.991L21,20.572Z" transform="translate(-3.08 -0.193)" fill="#955a21"/>
      <path id="Trazado_1192579" data-name="Trazado 1192579" d="M38.46,10.426l-.173-1.99A7.046,7.046,0,0,0,31.267,2H29.652a7.025,7.025,0,0,0-2.594.493,7.015,7.015,0,0,0-2,4.327l-.173,1.991L24,18.957H39.2Z" transform="translate(-3.658 -0.193)" fill="#ab692a"/>
      <path id="Trazado_1192580" data-name="Trazado 1192580" d="M36.3,16.267a5.652,5.652,0,0,1-11.3,0V10.615h2.919A22.583,22.583,0,0,0,36.3,9Z" transform="translate(-3.85 -1.54)" fill="#deb2ae"/>
      <path id="Trazado_1192581" data-name="Trazado 1192581" d="M24.23,12H23.019a2.019,2.019,0,0,0,0,4.037H24.23" transform="translate(-3.08 -2.118)" fill="#deb2ae"/>
      <path id="Trazado_1192582" data-name="Trazado 1192582" d="M39,12h1.211a2.019,2.019,0,0,1,0,4.037H39" transform="translate(-6.545 -2.118)" fill="#deb2ae"/>
      <path id="Trazado_1192583" data-name="Trazado 1192583" d="M8,47H46.76V59.92H8Z" transform="translate(-0.578 -8.855)" fill="#ab692a"/>
      <g id="Grupo_1231573" data-name="Grupo 1231573" transform="translate(7.422 40.567)">
        <path id="Trazado_1192584" data-name="Trazado 1192584" d="M8,50H46.76v1.615H8Z" transform="translate(-8 -50)" fill="#b4b5b9"/>
        <path id="Trazado_1192585" data-name="Trazado 1192585" d="M26,61.46V55h9.69v6.46" transform="translate(-11.465 -50.963)" fill="#b4b5b9"/>
        <path id="Trazado_1192586" data-name="Trazado 1192586" d="M12,61.46V55h8.075v6.46" transform="translate(-8.77 -50.963)" fill="#b4b5b9"/>
        <path id="Trazado_1192587" data-name="Trazado 1192587" d="M42,61.46V55h8.075v6.46" transform="translate(-14.545 -50.963)" fill="#b4b5b9"/>
      </g>
      <path id="Trazado_1192588" data-name="Trazado 1192588" d="M51.46,36.5V26H45V36.5a3.23,3.23,0,1,0,6.46,0Z" transform="translate(-7.7 -4.813)" fill="#424344"/>
      <path id="Trazado_1192589" data-name="Trazado 1192589" d="M46,24.845V22.422a2.422,2.422,0,1,1,4.845,0v2.422" transform="translate(-7.893 -3.658)" fill="#fbe2d9"/>
      <path id="Trazado_1192590" data-name="Trazado 1192590" d="M35.075,40.806l-1.328-9.2h-5.42L27,40.806Z" transform="translate(-4.235 -5.891)" fill="#dcdddf"/>
      <circle id="Elipse_14818" data-name="Elipse 14818" cx="3.343" cy="3.343" r="3.343" transform="translate(37.474 3.865)" fill="#dc8039"/>
      <circle id="Elipse_14819" data-name="Elipse 14819" cx="1.433" cy="1.433" r="1.433" transform="translate(39.384 5.775)" fill="#955a21"/>
      <path id="Trazado_1192591" data-name="Trazado 1192591" d="M27.517,27l2.422,4.844-8.643-3.6" transform="translate(-3.137 -5.005)" fill="#b4b5b9"/>
      <path id="Trazado_1192592" data-name="Trazado 1192592" d="M34.422,27,32,31.844l8.643-3.6" transform="translate(-5.198 -5.005)" fill="#b4b5b9"/>
      <path id="Trazado_1192593" data-name="Trazado 1192593" d="M25,11.615V16.46a5.652,5.652,0,0,0,11.3,0V10a22.584,22.584,0,0,1-8.386,1.615Z" transform="translate(-3.85 -1.733)" fill="#fbe2d9"/>
      <path id="Trazado_1192594" data-name="Trazado 1192594" d="M33.845,24.32v2.164l-2.422,4.845L29,26.484V24.32A5.618,5.618,0,0,0,33.845,24.32Z" transform="translate(-4.62 -4.489)" fill="#deb2ae"/>
      <path id="Trazado_1192595" data-name="Trazado 1192595" d="M29,26.386v.5l2.422,4.845,2.422-4.845v-.5a6.166,6.166,0,0,1-4.845,0Z" transform="translate(-4.62 -4.887)" fill="#fbe2d9"/>
      <path id="Trazado_1192596" data-name="Trazado 1192596" d="M23,37h1.615a2.422,2.422,0,1,1,0,4.845H23" transform="translate(-3.465 -6.93)" fill="#fbe2d9"/>
      <path id="Trazado_1192597" data-name="Trazado 1192597" d="M22.652,41.46H21.037V36.615H17V35h4.845a.807.807,0,0,1,.807.807Z" transform="translate(-2.31 -6.545)" fill="#77787c"/>
      <path id="Trazado_1192598" data-name="Trazado 1192598" d="M6,43H47.99v3.23H6Z" transform="translate(-0.193 -8.085)" fill="#955a21"/>
      <path id="Trazado_1192599" data-name="Trazado 1192599" d="M9.615,44.615h38.76V43H8A1.615,1.615,0,0,0,9.615,44.615Z" transform="translate(-0.578 -8.085)" fill="#ab692a"/>
      <path id="Trazado_1192600" data-name="Trazado 1192600" d="M6,43H47.99v3.23H6Z" transform="translate(-0.193 -8.085)" fill="#955a21"/>
      <path id="Trazado_1192601" data-name="Trazado 1192601" d="M13,55h7.267v5.652H13Z" transform="translate(-1.54 -10.396)" fill="#dcdddf"/>
      <path id="Trazado_1192602" data-name="Trazado 1192602" d="M27,55h8.882v5.652H27Z" transform="translate(-4.235 -10.396)" fill="#dcdddf"/>
      <path id="Trazado_1192603" data-name="Trazado 1192603" d="M43,55h7.267v5.652H43Z" transform="translate(-7.315 -10.396)" fill="#dcdddf"/>
      <path id="Trazado_1192604" data-name="Trazado 1192604" d="M46.99,51.064V38.952H47.8a.807.807,0,0,0,.807-.807v-3.23a.807.807,0,0,0-.807-.807H43.739a4,4,0,0,0,.828-2.422v-10.5a.807.807,0,0,0-.807-.807V18.765a3.2,3.2,0,0,0-.807-2.116v-5.98a4.037,4.037,0,1,0-4.845,0v5.983a3.2,3.2,0,0,0-.807,2.113V20.38a.807.807,0,0,0-.807.807v1.437l-6.46-1.292v-.145h5.652a.807.807,0,0,0,.807-.878l-.583-6.7a2.784,2.784,0,0,0-.328-3.772l-.145-1.659A7.81,7.81,0,0,0,27.61,1H25.995a7.808,7.808,0,0,0-7.823,7.172l-.145,1.661A2.784,2.784,0,0,0,17.7,13.6l-.587,6.7a.807.807,0,0,0,.807.878h5.652v.146l-7.429,1.485a.807.807,0,0,0-.413.22L9.3,29.47a3.658,3.658,0,0,0-.443,4.637H5.807A.807.807,0,0,0,5,34.915v3.23a.807.807,0,0,0,.807.807h.807V51.064H8.23V42.182H45.375v8.882Zm-8.882-19.38v-9.69h4.845v9.69a2.422,2.422,0,1,1-4.845,0ZM40.53,5.037A2.422,2.422,0,1,1,38.107,7.46,2.422,2.422,0,0,1,40.53,5.037Zm0,6.46a4.038,4.038,0,0,0,.807-.081V15.65a3.236,3.236,0,0,0-.807-.115,3.169,3.169,0,0,0-.807.115V11.417A4.038,4.038,0,0,0,40.53,11.5Zm-1.615,7.267a1.615,1.615,0,1,1,3.23,0V20.38h-3.23ZM37.321,34.107H31.539L30.4,26.215l5.127-2.136.969.193v7.413A4,4,0,0,0,37.321,34.107Zm-16.978-3.23h.807a1.615,1.615,0,0,1,0,3.23h-.807Zm4.037,1.615a3.2,3.2,0,0,0-.266-1.277l.629-4.36,1.739.727h.006a.8.8,0,0,0,.624,0h.006l1.739-.727,1.05,7.251H23.933a3.2,3.2,0,0,0,.447-1.617ZM26.8,19.572a4.85,4.85,0,0,1-4.845-4.845V9.882h2.112a23.273,23.273,0,0,0,7.578-1.261v6.106A4.85,4.85,0,0,1,26.8,19.572Zm0,1.615a6.422,6.422,0,0,0,1.615-.212V21.8L26.8,25.034,25.187,21.8v-.829a6.422,6.422,0,0,0,1.615.212Zm5.887,2.324L28.5,25.259l1.176-2.351Zm-1.629-3.939a6.441,6.441,0,0,0,2.2-4.845h.4a2.772,2.772,0,0,0,.708-.1l.43,4.946Zm2.2-8.882h.4a1.211,1.211,0,1,1,0,2.422h-.4ZM19.777,8.313a6.2,6.2,0,0,1,6.218-5.7H27.61a6.2,6.2,0,0,1,6.218,5.7L33.9,9.1c-.078-.006-.149-.023-.229-.023h-.4V7.46a.807.807,0,0,0-1.108-.75,21.648,21.648,0,0,1-8.085,1.558H21.15a.807.807,0,0,0-.807.807h-.4c-.081,0-.151.017-.227.023Zm.565,4.8h-.4a1.211,1.211,0,0,1,0-2.422h.4ZM19.23,14.626a2.772,2.772,0,0,0,.708.1h.4a6.441,6.441,0,0,0,2.2,4.845H18.8Zm4.7,8.281,1.173,2.351-4.195-1.747ZM9.845,32.06a2.035,2.035,0,0,1,.6-1.448L16.7,24.353l1.373-.275L23.2,26.215l-.5,3.464a3.186,3.186,0,0,0-1.553-.417h-.807a.807.807,0,0,0-.807-.807H14.69V30.07h4.037v4.037H11.893A2.05,2.05,0,0,1,9.845,32.06Zm-3.23,3.662H46.99v1.615H6.615ZM8.23,40.567V38.952H45.375v1.615Z" transform="translate(0 0)"/>
      <path id="Trazado_1192605" data-name="Trazado 1192605" d="M36.3,61.267v-6.46A.807.807,0,0,0,35.5,54h-9.69a.807.807,0,0,0-.807.807v6.46h1.615V55.615H34.69v5.652Z" transform="translate(-3.85 -10.203)"/>
      <path id="Trazado_1192606" data-name="Trazado 1192606" d="M20.69,61.267v-6.46A.807.807,0,0,0,19.882,54H11.807a.807.807,0,0,0-.807.807v6.46h1.615V55.615h6.46v5.652Z" transform="translate(-1.155 -10.203)"/>
      <path id="Trazado_1192607" data-name="Trazado 1192607" d="M50.69,61.267v-6.46A.807.807,0,0,0,49.882,54H41.807a.807.807,0,0,0-.807.807v6.46h1.615V55.615h6.46v5.652Z" transform="translate(-6.93 -10.203)"/>
    </g>
  </g>
</svg>
