<svg xmlns="http://www.w3.org/2000/svg" width="85" height="188.82" viewBox="0 0 85 188.82">
  <g id="Grupo_1231804" data-name="Grupo 1231804" transform="translate(-180 -8254.18)">
    <rect id="Rectángulo_422987" data-name="Rectángulo 422987" width="85" height="182" rx="10" transform="translate(180 8261)" fill="#248abf"/>
    <g id="Grupo_1231613" data-name="Grupo 1231613" transform="translate(-50.906 8138.352)">
      <path id="Trazado_1192666" data-name="Trazado 1192666" d="M270.807,242.585H248.345a2.715,2.715,0,0,1-2.707-2.707V213.262a2.715,2.715,0,0,1,2.707-2.707h22.462a2.715,2.715,0,0,1,2.707,2.707v26.615A2.714,2.714,0,0,1,270.807,242.585Z" transform="translate(9.394 60.405)" fill="#fbbc42"/>
      <g id="Grupo_1231610" data-name="Grupo 1231610" transform="translate(230.906 294.462)">
        <path id="Trazado_1192667" data-name="Trazado 1192667" d="M304.734,235.092h-68.8a5.044,5.044,0,0,1-5.029-5.029v-.128a5.044,5.044,0,0,1,5.029-5.029h68.8a5.044,5.044,0,0,1,5.029,5.029v.128A5.044,5.044,0,0,1,304.734,235.092Z" transform="translate(-230.906 -224.906)" fill="#4a605a"/>
      </g>
      <g id="Grupo_1231611" data-name="Grupo 1231611" transform="translate(266.432 115.828)">
        <path id="Trazado_1192668" data-name="Trazado 1192668" d="M296.407,116.755c.085-.6.136-.927.136-.927s-.6.655-1.669,1.854c-47.095,79.024-42.124,126.386-42.124,126.386,1.122-.319,2.212-.665,3.28-1.033C259.87,193.441,284.766,139.592,296.407,116.755Z" transform="translate(-252.599 -115.828)" fill="none"/>
        <path id="Trazado_1192669" data-name="Trazado 1192669" d="M295.071,116.394c-11.641,22.837-36.536,76.686-40.377,126.281,16.37-5.635,26.594-16.95,32.554-31.6l-7.181-.65,8.339-2.389c5.2-14.583,6.547-32.131,5.722-50.535l-7.481-.134,7.37-2.111q-.118-2.2-.278-4.42l-5.372,1.012,5.242-2.751c-.041-.531-.082-1.061-.126-1.592C292.506,135.732,294.519,120.293,295.071,116.394Z" transform="translate(-251.263 -115.467)" fill="#fbbc42"/>
      </g>
      <path id="Trazado_1192670" data-name="Trazado 1192670" d="M299.153,116.961c-5.065,5.681-20.712,23.625-33.6,42.591l2.646,5.6-3.839-3.824q-.973,1.454-1.918,2.915l3.685,6.082-4.779-4.378c-5.391,8.491-9.939,16.935-12.459,24.337a56.631,56.631,0,0,0-2.078,7.939l5.322,6.736-5.871-3.087c-1.836,15.659,3.415,28.681,7.214,35.749a86.739,86.739,0,0,0,4.4,29.436l-.988-29.346h0C257.139,222.979,261.544,180.067,299.153,116.961Z" transform="translate(9.554 0.722)" fill="#7ea49a"/>
      <path id="Trazado_1192671" data-name="Trazado 1192671" d="M247.758,210.637s3.983,13.511,25.756,13.511v5.093H245.639V213.2A3.267,3.267,0,0,1,247.758,210.637Z" transform="translate(9.395 60.457)" fill="#dd9544"/>
      <g id="Grupo_1231612" data-name="Grupo 1231612" transform="translate(245.971 284.605)">
        <path id="Trazado_1192672" data-name="Trazado 1192672" d="M280.747,229.073H245.134a5.044,5.044,0,0,1-5.029-5.029v-.128a5.044,5.044,0,0,1,5.029-5.029h35.613a5.044,5.044,0,0,1,5.029,5.029v.128A5.044,5.044,0,0,1,280.747,229.073Z" transform="translate(-240.105 -218.887)" fill="#7ea49a"/>
      </g>
    </g>
  </g>
</svg>
