<svg xmlns="http://www.w3.org/2000/svg" xmlns:xlink="http://www.w3.org/1999/xlink" width="400" height="291" viewBox="0 0 400 291">
  <defs>
    <clipPath id="clip-path">
      <rect id="Rectángulo_423038" data-name="Rectángulo 423038" width="400" height="291" transform="translate(1020 4704)" fill="#fff" stroke="#707070" stroke-width="1"/>
    </clipPath>
  </defs>
  <g id="Enmascarar_grupo_1225079" data-name="Enmascarar grupo 1225079" transform="translate(-1020 -4704)" clip-path="url(#clip-path)">
    <g id="_8685728_3972781" data-name="8685728_3972781" transform="translate(1020 4717.266)">
      <g id="OBJECTS" transform="translate(0 21.387)">
        <g id="Grupo_1231933" data-name="Grupo 1231933" transform="translate(343.454 156.691)">
          <path id="Trazado_1193982" data-name="Trazado 1193982" d="M653.374,349.125a16.818,16.818,0,0,1,4.646,7.271,4.666,4.666,0,0,1,.143,1.189c0,.111-.017.253-.037.413a107.291,107.291,0,0,1-2.974,11.383c-.05.162-.1.324-.146.486-.506,1.668-1.015,3.292-1.479,4.724-.535,1.641-1.783,6.4-2.055,7.334-.19.656-4.5,19.048-7.494,31.825h34.491c.657-11.828,1.609-29.222,1.635-29.469.327-3.039.618-5.809.791-7.244.062-.516.26-1.462.331-1.794.08-.376.157-.758.228-1.147.747-4.05,1.006-8.7,1.335-10.74.037-.223.076-.414.112-.571a6.39,6.39,0,0,1,.2-.623,31.385,31.385,0,0,1,1.835-3.708c.371-.668.727-1.3,1.008-1.829.165-.308.306-.582.406-.805.673-1.479,2.932-4.86,3.872-7.972a27.967,27.967,0,0,0,.619-3.781c.042-.315.084-.633.128-.947.166-1.179.34-2.323.493-3.2a13.482,13.482,0,0,1,.3-1.46,14.338,14.338,0,0,0,.072-4.884c-.241-1.093.271-1.62.09-3.3a22.77,22.77,0,0,0-1.742-5.748,4.575,4.575,0,0,0-2.938-1.845,3.784,3.784,0,0,0-2,.519c-.169.086-.3.158-.365.2a.44.44,0,0,1-.052.029s-.015-.077-.039-.214c-.051-.243-.136-.669-.257-1.147a14.192,14.192,0,0,0-.433-1.467c-.03-.081-.061-.158-.092-.233a5.645,5.645,0,0,0-4.363-2.867,5.9,5.9,0,0,0-3.286,1.478c-.165.134-.255.221-.255.221l-.165-.227a10.4,10.4,0,0,0-1.544-1.785,8.577,8.577,0,0,0-3.132-.867,5.642,5.642,0,0,0-3.013.929c-.173.1-.275.169-.275.169s-.069-.067-.181-.18c-.349-.348-1.12-1.114-1.473-1.458a4.966,4.966,0,0,0-3.958-.378,8.562,8.562,0,0,0-4.181,4.047,10.041,10.041,0,0,0-.636,3.385c-.007.187-.006.3-.006.3s-.207-.09-.555-.231c-1.253-.506-4.314-1.642-5.914-1.39-2.047.324-2.075,1.33-2.613,3.753s-2.846,14.788-2.35,16.509S651.119,347.129,653.374,349.125Z" transform="translate(-643.977 -315.183)" fill="#7c443e"/>
          <path id="Trazado_1193983" data-name="Trazado 1193983" d="M690.987,413.664a8.327,8.327,0,0,0-3.336,3.061c-1.057,1.969-4.139,15.987-4.139,15.987s2.193-12.657,2.22-16.05a8.058,8.058,0,0,0-1.673-4.284A7.772,7.772,0,0,0,690.987,413.664Z" transform="translate(-662.427 -360.54)" fill="#592a1e"/>
          <path id="Trazado_1193984" data-name="Trazado 1193984" d="M660.833,329.168s-3.27-1.57-5.444-1.394-2.34,1.329-2.966,5.229c0,0,.976-3.855,2.554-4.327S660.833,329.168,660.833,329.168Z" transform="translate(-647.918 -321.053)" fill="#9b5954"/>
          <path id="Trazado_1193985" data-name="Trazado 1193985" d="M711.851,406.3s-2.974,20.673-3.935,24.323l.046-3.332a63.072,63.072,0,0,1,3.425-19.646Q711.614,406.985,711.851,406.3Z" transform="translate(-673.815 -357.705)" fill="#9b5954"/>
          <path id="Trazado_1193986" data-name="Trazado 1193986" d="M695.515,320.723a3.316,3.316,0,0,0-2.185-2.133c-1.618-.349-3.844-.346-4.616.449s-1.644,4.186-1.495,5.355a31.932,31.932,0,0,1,.157,5.208,11.862,11.862,0,0,0,.725-4.159c-.024-2.324.034-4.934,1.417-5.627A4.648,4.648,0,0,1,695.515,320.723Z" transform="translate(-664.149 -316.669)" fill="#9b5954"/>
          <path id="Trazado_1193987" data-name="Trazado 1193987" d="M679.311,317.83a2.9,2.9,0,0,0-1.913-1.761,5.169,5.169,0,0,0-4.3.864c-1.019.937-3.239,3.255-2.932,6.082a11.893,11.893,0,0,0,3.513.385,2.254,2.254,0,0,1-1.955-2.543,4.724,4.724,0,0,1,3.281-4.062A4.52,4.52,0,0,1,679.311,317.83Z" transform="translate(-656.187 -315.536)" fill="#9b5954"/>
          <path id="Trazado_1193988" data-name="Trazado 1193988" d="M650.293,347.219s-1.572,7.852-1.171,9.256,6.688,6.364,8.74,8.511a6.891,6.891,0,0,0-2.958-4.345c-2.678-1.935-4.759-4.525-4.644-5.733S650.293,347.219,650.293,347.219Z" transform="translate(-646.348 -330.133)" fill="#9b5954"/>
          <path id="Trazado_1193989" data-name="Trazado 1193989" d="M712.658,368.829a15.84,15.84,0,0,1-1,5.714c-.575,1.507-3.653,6.18-5,7.12s-6.776-.212-8.587-.9a24.353,24.353,0,0,0-5.765-.792s1.691-.931,5.485-.206,7.055,1.955,8.942.468S711.134,375.232,712.658,368.829Z" transform="translate(-666.531 -340.218)" fill="#9b5954"/>
          <path id="Trazado_1193990" data-name="Trazado 1193990" d="M696.842,356s.851,2.873,3.24,3.156a4.673,4.673,0,0,0,3.78-1.174s.245,1.438,2.711,1.7a3.6,3.6,0,0,0,3.442-1.191,3.3,3.3,0,0,0-1.3-1.059c-.135-.07-.278-.138-.427-.2a3.351,3.351,0,0,1-1.742.669h-.013c-1.452-.041-2.185-.564-2.177-1.555,0-.022,0-.041,0-.063-.135-.017-.27-.036-.406-.05,0,.038,0,.073,0,.111a2.036,2.036,0,0,0,.026.347,4.772,4.772,0,0,1-3.438,1.049,3.938,3.938,0,0,1-2.65-1.77c0-.006-.006-.01-.009-.016-.178,0-.276.007-.276.007l-.162.007Z" transform="translate(-668.647 -334.209)" fill="#592a1e"/>
          <path id="Trazado_1193991" data-name="Trazado 1193991" d="M717.74,358.681l7.651,4.259c.166-1.179.34-2.323.493-3.2l-7.311-2.093Z" transform="translate(-678.4 -335.001)" fill="#592a1e"/>
          <path id="Trazado_1193992" data-name="Trazado 1193992" d="M723.29,334.483s.316-2.2-1.1-3.119-2.7-1.065-3.351-.677-2.321,4-2.637,4.5a9.836,9.836,0,0,0-1.422,2.453,2.06,2.06,0,0,0,.955,1.933,3.048,3.048,0,0,1-.01-2.341c.573-.867,2.777-5.116,3.541-5.6S722.02,331.218,723.29,334.483Z" transform="translate(-677.013 -322.324)" fill="#9b5954"/>
          <path id="Trazado_1193993" data-name="Trazado 1193993" d="M710.635,323.055a5,5,0,0,0-3.456-2.3q-.147-.02-.288-.03a3.358,3.358,0,0,0-3.458,2.678l-1.452,6.63s2.266-6.983,3.966-7.686S710.635,323.055,710.635,323.055Z" transform="translate(-671.046 -317.765)" fill="#9b5954"/>
          <path id="Trazado_1193994" data-name="Trazado 1193994" d="M715.626,332.79l2.683-4.459.01-.177-.052.031s-.014-.079-.041-.214h0a19.621,19.621,0,0,0-.69-2.616A27.622,27.622,0,0,1,715.626,332.79Z" transform="translate(-677.413 -319.929)" fill="#592a1e"/>
          <g id="Grupo_1231930" data-name="Grupo 1231930" transform="translate(28.686 3.799)">
            <path id="Trazado_1193995" data-name="Trazado 1193995" d="M697.764,339.518a1.839,1.839,0,0,0,.211.965,4.363,4.363,0,0,0,2.934,1.956,4.023,4.023,0,0,0,.492.043,5.207,5.207,0,0,0,3.126-1.071c.106-.079.166-.133.179-.143a.2.2,0,0,0-.269-.306l-.03.026a4.766,4.766,0,0,1-3.437,1.048,3.939,3.939,0,0,1-2.65-1.77,4.331,4.331,0,0,1,0-2.245,11.522,11.522,0,0,0,.164-1.91,11.669,11.669,0,0,1,.383-3c.121-.578.269-1.3.435-2.2.38-2.081,1.542-6.373,2.159-8.6-.163.135-.255.222-.255.222s-.063-.089-.165-.228c-.625,2.258-1.762,6.467-2.139,8.53-.164.9-.314,1.618-.432,2.195a11.926,11.926,0,0,0-.393,3.1,11.319,11.319,0,0,1-.16,1.839c-.054.382-.106.756-.133,1.1C697.77,339.223,697.763,339.375,697.764,339.518Z" transform="translate(-697.764 -322.306)" fill="#592a1e"/>
          </g>
          <g id="Grupo_1231931" data-name="Grupo 1231931" transform="translate(21.728 2.065)">
            <path id="Trazado_1193996" data-name="Trazado 1193996" d="M684.717,334.1c-.023.838.944,3.611,2.915,4.277a4.077,4.077,0,0,0,1.186.2,7.5,7.5,0,0,0,2.857-.577c.173-.069.279-.12.3-.129a.2.2,0,0,0-.177-.367s-.038.019-.1.046a6.178,6.178,0,0,1-3.931.441c-1.755-.594-2.659-3.143-2.638-3.881a14.631,14.631,0,0,1,.3-1.8,19.763,19.763,0,0,0,.39-2.385c.027-.476-.024-1.34-.084-2.341a23.8,23.8,0,0,1-.056-3.81,21.526,21.526,0,0,1,1.586-4.712c-.172.1-.273.169-.273.169l-.18-.179a22.194,22.194,0,0,0-1.534,4.656,23.761,23.761,0,0,0,.051,3.9c.057.947.109,1.842.083,2.294a19.79,19.79,0,0,1-.383,2.328A14.436,14.436,0,0,0,684.717,334.1Z" transform="translate(-684.716 -319.055)" fill="#592a1e"/>
          </g>
          <path id="Trazado_1193997" data-name="Trazado 1193997" d="M715.108,354.012a23.31,23.31,0,0,1-2.583-1.495,3.753,3.753,0,0,0-.867,1.922c.046.815.5,1.289,1.682,1.313C714.25,355.769,715.108,354.012,715.108,354.012Z" transform="translate(-675.561 -332.605)" fill="#bf8a79"/>
          <path id="Trazado_1193998" data-name="Trazado 1193998" d="M699.952,355.248a2.753,2.753,0,0,1-.007-1.593,16.6,16.6,0,0,0,1.837,1.026,4.649,4.649,0,0,0,2.5.173,1.95,1.95,0,0,1-.146,1.061,2.36,2.36,0,0,1-.968.357,3.167,3.167,0,0,1-3.03-.855A1.259,1.259,0,0,1,699.952,355.248Z" transform="translate(-670.042 -333.136)" fill="#bf8a79"/>
          <path id="Trazado_1193999" data-name="Trazado 1193999" d="M687.5,350.658a2.423,2.423,0,0,1-.306-1.332,9.489,9.489,0,0,0,2.46,1.119,6.508,6.508,0,0,0,2.455,0,1.951,1.951,0,0,1-.146,1.061,2.361,2.361,0,0,1-.968.357,3.169,3.169,0,0,1-3.03-.855C687.9,350.958,687.553,350.718,687.5,350.658Z" transform="translate(-664.141 -331.116)" fill="#bf8a79"/>
          <path id="Trazado_1194000" data-name="Trazado 1194000" d="M677.024,331.7s-1.422,2.4-2.765,2.684-3.968-1.307-3.968-1.307a2.439,2.439,0,0,1,1.029-1.781S675.478,331.143,677.024,331.7Z" transform="translate(-656.257 -322.695)" fill="#bf8a79"/>
          <g id="Grupo_1231932" data-name="Grupo 1231932" transform="translate(7.726 7.657)">
            <path id="Trazado_1194001" data-name="Trazado 1194001" d="M658.488,335a9.546,9.546,0,0,0,2.785,2.708,10.266,10.266,0,0,0,4.4,1.828q.245.028.487.035a5.372,5.372,0,0,0,3.377-1.1A8.671,8.671,0,0,0,671.9,335.7c1.043-1.879.9-4.225.09-4.988-.479-.449-2.016-.528-4.138-.586l-.231-.006c-.8-.022-1.536-.045-2.013-.111a3.036,3.036,0,0,1-1.3-.468c-.007.188-.007.3-.007.3s-.208-.091-.556-.231a3.2,3.2,0,0,0,1.807.8c.533.074,1.358.1,2.231.12,1.486.039,3.519.095,3.928.477.61.571.853,2.654-.169,4.493-.674,1.216-2.593,4-5.826,3.626a11.127,11.127,0,0,1-6.873-4.33.2.2,0,1,0-.356.2Z" transform="translate(-658.463 -329.54)" fill="#592a1e"/>
          </g>
          <path id="Trazado_1194002" data-name="Trazado 1194002" d="M680.275,334.494s-.254.618-.807.433a7.125,7.125,0,0,1-3.757,6.14,6.559,6.559,0,0,1-2.21.618,3.867,3.867,0,0,0,2.275,2.419c1.716.541,6.235,1.546,8.216,3.534s3.63,7.461,1.831,9.99c0,0,1.343-.981,1.5-4.132s-1.546-5.408-1.524-6.2,1.332-.81,1.332-.81-.8-.259-.446-1.965c0,0-.158.671-1.457.864a4.613,4.613,0,0,1-3.664-.5c-1.41-.86-1.829-2.93-1.879-3.575s.67-3.395.682-4.068S680.275,334.494,680.275,334.494Z" transform="translate(-657.755 -324.195)" fill="#592a1e"/>
          <path id="Trazado_1194003" data-name="Trazado 1194003" d="M668.992,350.023a4.869,4.869,0,0,0-2.349-.28,10.37,10.37,0,0,0-6.027,5.173s1.409-5.629,6.872-6.939C667.489,347.976,669.106,348.951,668.992,350.023Z" transform="translate(-651.742 -330.487)" fill="#592a1e"/>
          <path id="Trazado_1194004" data-name="Trazado 1194004" d="M665.4,348.246a21.99,21.99,0,0,0-9.247.687,40.21,40.21,0,0,1,7.212.525Z" transform="translate(-649.659 -330.514)" fill="#592a1e"/>
          <path id="Trazado_1194005" data-name="Trazado 1194005" d="M726.431,347.037a6.45,6.45,0,0,0,2.736-.966,4.621,4.621,0,0,1-3.252,1.776Z" transform="translate(-682.215 -329.597)" fill="#592a1e"/>
          <path id="Trazado_1194006" data-name="Trazado 1194006" d="M721.575,354.724a11.292,11.292,0,0,1,4.882.859s-4.284-.286-6.031.448Z" transform="translate(-679.653 -333.628)" fill="#592a1e"/>
          <path id="Trazado_1194007" data-name="Trazado 1194007" d="M713.429,345.165a4.676,4.676,0,0,0,2.957,2.468s-1.365.258-3.133-1.465Z" transform="translate(-676.306 -329.174)" fill="#592a1e"/>
          <path id="Trazado_1194008" data-name="Trazado 1194008" d="M698.7,347.264a5.744,5.744,0,0,0,4.683,2.2s-1.914,1.039-4.712-1.126Z" transform="translate(-669.501 -330.154)" fill="#592a1e"/>
          <path id="Trazado_1194009" data-name="Trazado 1194009" d="M684.844,342.176a9.348,9.348,0,0,0,4.66,3.047s-1.891.19-4.689-1.976Z" transform="translate(-663.035 -327.78)" fill="#592a1e"/>
          <path id="Trazado_1194010" data-name="Trazado 1194010" d="M664.811,342.824s-5.121-1.457-6.751-5.549c0,0-.613,2.592,2.556,4.17s-.431,1.753-.431,1.753a11.831,11.831,0,0,0,3.513.359,11.808,11.808,0,0,1,1.981-.308Z" transform="translate(-650.527 -325.492)" fill="#592a1e"/>
          <path id="Trazado_1194011" data-name="Trazado 1194011" d="M670.452,393.639c0,.112-.015.251-.036.414,2.931.677,4.414.142,9.2-.668a28.7,28.7,0,0,1,9.253.261c-5-2.174-11.507-.762-14.093-.688a19.08,19.08,0,0,1-4.471-.507A4.645,4.645,0,0,1,670.452,393.639Z" transform="translate(-656.265 -351.236)" fill="#592a1e"/>
          <path id="Trazado_1194012" data-name="Trazado 1194012" d="M693.257,398.134a44.766,44.766,0,0,1,4.69,2.2,9.274,9.274,0,0,0,5.061,1.02,9.305,9.305,0,0,1,2.779.717c.036-.223.073-.414.112-.571a6.145,6.145,0,0,1,.2-.625,8.088,8.088,0,0,0-3.877-.493C699.194,400.636,695.7,398.2,693.257,398.134Z" transform="translate(-666.974 -353.893)" fill="#592a1e"/>
          <path id="Trazado_1194013" data-name="Trazado 1194013" d="M684.019,404.8s-.957-1.383-4.531-1.39-6.273-.533-7.924-1.391a11.186,11.186,0,0,0,6.214,1.866A15.507,15.507,0,0,1,684.019,404.8Z" transform="translate(-656.851 -355.706)" fill="#592a1e"/>
          <path id="Trazado_1194014" data-name="Trazado 1194014" d="M710.172,344.342a2.064,2.064,0,0,0,.025.345,1.645,1.645,0,0,0,.12.423c.316.742,1.152,1.159,2.43,1.194h.012c1.39.035,3.509-1.695,4.4-3.207.52-.878,1.867-2.991,2.885-4.577l0,0,1.719-2.469a4.211,4.211,0,0,0-1.493,1.369l-.029.041-.568.884a0,0,0,0,0,0,0c-1.016,1.584-2.347,3.671-2.865,4.545-.915,1.547-2.918,3.037-4.044,3.009h-.012c-1.452-.039-2.185-.562-2.179-1.553a4.531,4.531,0,0,1,.549-1.718,7.8,7.8,0,0,0,.466-1.156c.129-.462.246-1.174.37-1.927a21.945,21.945,0,0,1,.42-2.155,26.152,26.152,0,0,1,1.648-3.195c.729-1.3,1.55-2.771,2.107-3.962-.253.129-.416.23-.416.23s-.014-.079-.041-.214c-.547,1.142-1.317,2.518-2,3.748a25.22,25.22,0,0,0-1.684,3.281c-.159.556-.3,1.393-.43,2.2-.122.742-.237,1.443-.36,1.883a7.505,7.505,0,0,1-.444,1.094A4.8,4.8,0,0,0,710.172,344.342Z" transform="translate(-674.868 -322.206)" fill="#592a1e"/>
          <path id="Trazado_1194015" data-name="Trazado 1194015" d="M728,344.665l.568-.884A8.841,8.841,0,0,0,728,344.665Z" transform="translate(-683.186 -328.529)" fill="#592a1e"/>
          <path id="Trazado_1194016" data-name="Trazado 1194016" d="M713.777,394.888a6.1,6.1,0,0,0,3.731-.169c.37-.669.725-1.3,1.007-1.828A7.1,7.1,0,0,1,713.777,394.888Z" transform="translate(-676.55 -351.447)" fill="#592a1e"/>
        </g>
        <g id="Grupo_1231935" data-name="Grupo 1231935" transform="translate(7.51 142.781)">
          <path id="Trazado_1194017" data-name="Trazado 1194017" d="M68.873,401.58c-1.938-6.3-4.04-13.15-5.582-18.247-.228-.756-.45-1.5-.673-2.24-2.14-7.067-3.994-13.189-4.61-15.177-.108-.345-.189-.6-.242-.75l-.1-.3a13.041,13.041,0,0,1-.2-4.305c.049-.508.112-1,.186-1.473a12.817,12.817,0,0,1,.6-2.442,1.676,1.676,0,0,1,.327-.589c.06-.06.185-.174.365-.338.975-.89,3.529-3.193,5.908-5.556s4.589-4.788,4.863-5.915c.594-2.466-1.069-10.338-.94-12.463a23.354,23.354,0,0,1,2.319-8.139c1.13-1.9,3.822-5.648.325-6.477-.159-.037-.313-.065-.461-.089h0c-3.235-.466-5.351,2.432-6.917,4.828a16.8,16.8,0,0,0-1.986,4.116c-.077.256-.11.4-.11.4s-.1.252-.243.692a21.507,21.507,0,0,0-.744,3.074,22.871,22.871,0,0,1-.836,3.583,6.2,6.2,0,0,1-.348.805c-.376.7-.816.951-1.3.291a19.971,19.971,0,0,1-3.3-4.527,6.386,6.386,0,0,1-.3-.873,11.666,11.666,0,0,1-.286-1.442c-.275-1.924-.269-4.159-.505-5.678-.347-2.2.713-8.048.483-10.991s-.571-6.454-.631-7.847a.113.113,0,0,1,0-.038c-.005-.148,0-.358.015-.626.135-2.469.771-9.483-3.141-9.791-4.377-.339-3.533,8.369-3.644,9.944-.082,1.168-.166,4.275-.278,6.466-.017.321-.035.622-.049.89-.029.378-.056.7-.081.948-.164,1.414-.11,6.087-.753,7.739a1.074,1.074,0,0,1-.344.528,1.742,1.742,0,0,1-.786.319h0a.7.7,0,0,1-.512-.158h0a1.489,1.489,0,0,1-.426-.815c-.022-.09-.04-.185-.058-.284-.18-1.159-.55-7.458-1.158-9.766-.061-.232-.13-.545-.215-.928-.046-.213-.093-.45-.145-.706-.371-1.82-.881-4.567-1.395-7.179l-.047-.256a63.321,63.321,0,0,0-1.492-6.436c-.929-2.593-2.01-4.512-4.316-4.233s-2.839,3.382-2.2,6.941c.311,1.746.532,3.242.727,4.558a1.434,1.434,0,0,0,.025.152c.195,1.3.369,2.427.591,3.436a47.178,47.178,0,0,1,.606,5.045c.006.038.007.076.013.109.076.8.171,1.565.295,2.229.4,2.139,2.069,7.06,1.067,8.423a.367.367,0,0,1-.486.156,1.362,1.362,0,0,1-.469-.418,20.254,20.254,0,0,1-2.333-5.789c-.042-.242-.16-.725-.326-1.364-.044-.17-.089-.35-.143-.539-.73-2.772-2.106-7.559-2.731-9.533-.834-2.62-.965-9.7-4.4-9.822s-3.959,3.18-3.619,5.86a60.766,60.766,0,0,0,1.523,7.017c.537,2.3,1.842,6.724,2.512,8.629s2.941,7.821,2.787,9.25c-.108.973-.332,1.531-.779,1.714v0a1.337,1.337,0,0,1-.787.019.466.466,0,0,1-.111-.049c-.571-.342-1.8-2.3-2.978-4.453-.113-.206-.225-.417-.338-.623-.691-1.3-1.345-2.606-1.8-3.626-.089-.2-.172-.386-.245-.559-.135-.315-.241-.588-.311-.805-.706-2.114-2.572-8.7-5.283-7.746s-1.939,5.709-.61,9.587,3.029,9.059,3.949,11.557,1.781,4.258,2.568,6.736c.215.666.522,2.039.895,3.774.132.606.274,1.255.418,1.938.986,4.563,2.295,10.428,3.562,13,1.989,4.05,5.065,7.788,6.094,10.921a22.724,22.724,0,0,1,.542,3.266c.4,3.3,1.312,10.988,2.249,18.958.09.78.185,1.564.275,2.345.465,3.944,1.01,8.258,1.517,12.159h31.51Z" transform="translate(-14.081 -289.1)" fill="#ffb79d"/>
          <path id="Trazado_1194018" data-name="Trazado 1194018" d="M69.215,446.617a7.6,7.6,0,0,1,3.1,2.731c1,1.777,4.078,14.511,4.078,14.511s-2.239-11.509-2.329-14.6a7.353,7.353,0,0,1,1.445-3.941A7.1,7.1,0,0,1,69.215,446.617Z" transform="translate(-39.81 -362)" fill="#e28b7e"/>
          <path id="Trazado_1194019" data-name="Trazado 1194019" d="M54.375,467.57c.09.78.185,1.564.275,2.345,12.038,2.79,24.967-4.576,27.444-6.087-.228-.756-.45-1.5-.673-2.239C73.91,467.025,58.394,467.531,54.375,467.57Z" transform="translate(-32.885 -369.595)" fill="#e28b7e"/>
          <g id="Grupo_1231934" data-name="Grupo 1231934" transform="translate(20.406 85.421)">
            <path id="Trazado_1194020" data-name="Trazado 1194020" d="M53.486,462.882A42.47,42.47,0,0,0,81.52,456.47s-.277-5.262-2.607-7.206a51.879,51.879,0,0,1-7.012,2.861l-.081.027-.038.013-.026.01-.015.005q-1.224.423-2.677.888A49.708,49.708,0,0,1,52.684,455a16.9,16.9,0,0,0-.211,5.275A5.544,5.544,0,0,0,53.486,462.882Z" transform="translate(-52.343 -449.264)" fill="#71721b"/>
            <path id="Trazado_1194021" data-name="Trazado 1194021" d="M53.6,462.882a42.47,42.47,0,0,0,28.034-6.412s-.277-5.262-2.607-7.206a51.879,51.879,0,0,1-7.012,2.861c.746-.243,3.918-1.134,5.662.653,1.985,2.035-3.259,6.753-12.639,7.948-6.542.833-10.6.08-12.451-.451A5.544,5.544,0,0,0,53.6,462.882Z" transform="translate(-52.457 -449.264)" fill="#5b5414"/>
          </g>
          <path id="Trazado_1194022" data-name="Trazado 1194022" d="M76.563,384.142a19.469,19.469,0,0,0,9.994-.467l.259-.1a13.138,13.138,0,0,1,.594-2.444,1.767,1.767,0,0,1,.325-.59c.061-.06.186-.175.364-.337h0c1.948-1.779,10.225-9.21,10.771-11.469.6-2.466-1.069-10.337-.941-12.461a23.492,23.492,0,0,1,2.321-8.142c1.129-1.9,3.824-5.647.325-6.476q-.234-.055-.461-.088c.106.02,1.9.386,1.007,2.942-.922,2.634-4.257,7.116-4.485,10.316s1.15,9.519-.6,12.148c-4.712,7.074-7.809,11.8-10.906,13.015S79.306,384.264,76.563,384.142Z" transform="translate(-43.239 -313.587)" fill="#e28b7e"/>
          <path id="Trazado_1194023" data-name="Trazado 1194023" d="M65.036,419.762a36.739,36.739,0,0,1,8.419.22c2.923.58,5.937.918,7.8-.314a16.415,16.415,0,0,1,.779-3.914c-1.063,1.288-3.267,3.438-6.015,3.249C72.116,418.733,67.81,418.4,65.036,419.762Z" transform="translate(-37.86 -348.205)" fill="#e28b7e"/>
          <path id="Trazado_1194024" data-name="Trazado 1194024" d="M49.14,429.27a22.436,22.436,0,0,1,.546,3.266,7.414,7.414,0,0,0,3.938-.553c3.012-1.116,5.2-4.023,13.562-4.849,0,0-7.2.041-10.969,2.006S50.288,430.765,49.14,429.27Z" transform="translate(-30.442 -353.516)" fill="#e28b7e"/>
          <path id="Trazado_1194025" data-name="Trazado 1194025" d="M73.7,433.629a35.239,35.239,0,0,1,12.13-1.415c-.107-.346-.189-.6-.243-.754q-.05-.142-.094-.3C82.647,431.166,77.08,431.471,73.7,433.629Z" transform="translate(-41.903 -355.396)" fill="#e28b7e"/>
          <path id="Trazado_1194026" data-name="Trazado 1194026" d="M77.311,314.39a14.135,14.135,0,0,1,6.126.721c0-.147.005-.359.02-.626A12.148,12.148,0,0,0,77.311,314.39Z" transform="translate(-43.588 -300.739)" fill="#e28b7e"/>
          <path id="Trazado_1194027" data-name="Trazado 1194027" d="M75.543,327.129c-.017.319-.034.619-.052.89q.136-.042.293-.1c2.27-.825,6.653.415,6.653.415A9.931,9.931,0,0,0,75.543,327.129Z" transform="translate(-42.739 -306.763)" fill="#e28b7e"/>
          <path id="Trazado_1194028" data-name="Trazado 1194028" d="M54.224,377.757s7.4-9.626,11.4-12.177a14.694,14.694,0,0,1,7.979-2.054,11.991,11.991,0,0,1-.287-1.445,15.127,15.127,0,0,0-8.662,3.069C59.415,368.96,54.224,377.757,54.224,377.757Z" transform="translate(-32.815 -323.158)" fill="#e28b7e"/>
          <path id="Trazado_1194029" data-name="Trazado 1194029" d="M30.254,371.847l.418,1.937c2.063-1.962,8.478-5.433,12.665-6.593,4.737-1.313,8.191-7.594,8.245-7.692-6.322,7.926-8.657,6.8-12.832,8.491C35.183,369.438,31.468,371.247,30.254,371.847Z" transform="translate(-21.629 -321.954)" fill="#e28b7e"/>
          <path id="Trazado_1194030" data-name="Trazado 1194030" d="M72.115,367.866s-6.8,11.141-4.317,17.343a14.18,14.18,0,0,1,.214-10.688c2.483-5.559,2.271-5.138,1.735-4.93S70.7,367.166,72.115,367.866Z" transform="translate(-38.707 -325.802)" fill="#e28b7e"/>
          <path id="Trazado_1194031" data-name="Trazado 1194031" d="M71.81,346.089a18.855,18.855,0,0,1,6.9,1.287,15.846,15.846,0,0,0-5.764-2.133,1.094,1.094,0,0,1-.345.526A1.694,1.694,0,0,1,71.81,346.089Z" transform="translate(-41.021 -315.3)" fill="#e28b7e"/>
          <path id="Trazado_1194032" data-name="Trazado 1194032" d="M57.815,345.565a33.75,33.75,0,0,1,6.947.252,1.481,1.481,0,0,1-.427-.814A26.585,26.585,0,0,0,57.815,345.565Z" transform="translate(-34.49 -315.187)" fill="#e28b7e"/>
          <path id="Trazado_1194033" data-name="Trazado 1194033" d="M42.489,349.96a7.634,7.634,0,0,0,6.5-2.961,1.36,1.36,0,0,1-.469-.42A7.19,7.19,0,0,1,42.489,349.96Z" transform="translate(-27.338 -315.924)" fill="#e28b7e"/>
          <path id="Trazado_1194034" data-name="Trazado 1194034" d="M122.674,345.651s.39.454-.2,1.8c-.513,1.163-1.471,3.115-2.03,3.121A24.809,24.809,0,0,0,122.674,345.651Z" transform="translate(-63.717 -315.491)" fill="#eec09f"/>
          <path id="Trazado_1194035" data-name="Trazado 1194035" d="M103.361,359.305a6.739,6.739,0,0,1,4.05-.7,6.246,6.246,0,0,0-3.7-.388c-.078.256-.11.4-.11.4S103.5,358.866,103.361,359.305Z" transform="translate(-55.745 -321.29)" fill="#e28b7e"/>
          <path id="Trazado_1194036" data-name="Trazado 1194036" d="M99.745,373.663a40.841,40.841,0,0,1,4.529,4.32,25.407,25.407,0,0,0-4.182-5.126A5.726,5.726,0,0,1,99.745,373.663Z" transform="translate(-54.058 -328.187)" fill="#e28b7e"/>
          <path id="Trazado_1194037" data-name="Trazado 1194037" d="M53.022,325.121c0,.036.007.074.011.11a14.347,14.347,0,0,0,7.634-1.431c-.046-.215-.1-.452-.147-.707A17,17,0,0,1,53.022,325.121Z" transform="translate(-32.254 -304.964)" fill="#e28b7e"/>
          <path id="Trazado_1194038" data-name="Trazado 1194038" d="M50.728,309.62c.008.052.015.1.023.153a17.764,17.764,0,0,1,7.306-.728l-.05-.253A8.96,8.96,0,0,0,50.728,309.62Z" transform="translate(-31.183 -298.096)" fill="#e28b7e"/>
          <path id="Trazado_1194039" data-name="Trazado 1194039" d="M39.035,317.122s-4.271.411-6.228,1.417c0,0,1.814-1.49,6.018-2.119Z" transform="translate(-22.82 -301.85)" fill="#e28b7e"/>
          <path id="Trazado_1194040" data-name="Trazado 1194040" d="M37.407,334.88A11.849,11.849,0,0,0,43.5,332.7q-.066-.256-.142-.543A17.045,17.045,0,0,1,37.407,334.88Z" transform="translate(-24.967 -309.192)" fill="#e28b7e"/>
          <path id="Trazado_1194041" data-name="Trazado 1194041" d="M28.224,362.719c3.4-.46,6.094-5.914,6.132-5.99a1.3,1.3,0,0,1-.787.019.37.37,0,0,1-.109-.047C31.325,361.478,28.224,362.719,28.224,362.719Z" transform="translate(-20.681 -320.647)" fill="#e28b7e"/>
          <path id="Trazado_1194042" data-name="Trazado 1194042" d="M23.02,350.883c2.548.01,4.327-2.075,5.034-3.075-.114-.207-.228-.417-.339-.626A6.579,6.579,0,0,1,23.02,350.883Z" transform="translate(-18.253 -316.205)" fill="#e28b7e"/>
          <path id="Trazado_1194043" data-name="Trazado 1194043" d="M19.079,341.928a6.287,6.287,0,0,0,4.994-2.031h0q-.134-.3-.245-.559A6.452,6.452,0,0,1,19.079,341.928Z" transform="translate(-16.414 -312.544)" fill="#e28b7e"/>
        </g>
        <g id="Grupo_1231953" data-name="Grupo 1231953" transform="translate(9.103 43.599)">
          <g id="Grupo_1231939" data-name="Grupo 1231939" transform="translate(35.5 112.706)">
            <path id="Trazado_1194044" data-name="Trazado 1194044" d="M165.622,344.314a24.634,24.634,0,0,1-2.479,6.014c-1,1.532-1.789,1.623-2.337,2.705a15.527,15.527,0,0,1-3.406,4.046,14.739,14.739,0,0,0-1.257,1.015c-.726.627-1.655,1.467-2.6,2.342-.253.233-.506.47-.757.706a30.2,30.2,0,0,1-3.11,2.747c-2.923,1.966-7.133,3.253-8.711,4.031-.236.119-.543.252-.892.4-.6.249-1.33.537-2.1.843-.735.294-1.5.607-2.219.926l-.039.114c-.059.171-.182.525-.357,1.036-1.5,4.39-7.274,29.083-9.254,42.232H83.631s14.532-29.613,21.782-46.061c2.431-5.517,3.627-7.643,7.976-14.26l1.022-1.378c.185-.226.549-.6.54-.614a8.824,8.824,0,0,0,.851-.748,4.493,4.493,0,0,0,.315-.321,5.073,5.073,0,0,0,.694-1.1,18.212,18.212,0,0,0,1.087-9.282c-.523-3.219-1.822-9.356-1.059-11.138S128.009,318,130.123,316.337s2.825-2.488,4.763-1.357c1.515.885,3.3,3.935,4.006,5.218.195.357.307.574.307.574s.076-.093.209-.245a10.875,10.875,0,0,1,2.853-2.4c1.525-.753,4.562-1.238,6.279-.53a5.381,5.381,0,0,1,3.061,3.03c.059.53.181,1.7.236,2.231.015.171.028.275.028.275s.131.013.347.046a6.11,6.11,0,0,1,3.164,1.286,9.286,9.286,0,0,1,2.031,2.873,11.271,11.271,0,0,1,.072,2.555c-.011.185-.017.3-.017.3s.135-.012.365-.011A6.4,6.4,0,0,1,161.6,331.2a6.115,6.115,0,0,1,1.694,5.394c-.025.084-.053.17-.083.259a15.426,15.426,0,0,1-.642,1.527c-.226.484-.446.9-.571,1.138-.074.132-.114.206-.114.206a.372.372,0,0,0,.064.012c.085.013.242.04.443.083a4.1,4.1,0,0,1,2.033.935A4.947,4.947,0,0,1,165.622,344.314Z" transform="translate(-83.631 -314.459)" fill="#68231d"/>
            <path id="Trazado_1194045" data-name="Trazado 1194045" d="M171.889,412.939a.183.183,0,0,0-.039.114c-.059.171-.182.525-.357,1.036a13.676,13.676,0,0,0-2.681-1.754,8.879,8.879,0,0,1-4.231-2.554,42.865,42.865,0,0,0-3.515-3.5c2.177.849,4.54,4.173,7.35,4.92A8.492,8.492,0,0,1,171.889,412.939Z" transform="translate(-119.767 -357.312)" fill="#4b1218"/>
            <path id="Trazado_1194046" data-name="Trazado 1194046" d="M148.86,409.927s-.47-1.757-4.105-3.069-6.191-2.832-7.558-4.309a12.1,12.1,0,0,0,5.645,4.167A16.794,16.794,0,0,1,148.86,409.927Z" transform="translate(-108.628 -355.568)" fill="#4b1218"/>
            <path id="Trazado_1194047" data-name="Trazado 1194047" d="M147.323,425.016a7.975,7.975,0,0,0-3.876,1.937c-1.492,1.532-8.021,13.619-8.021,13.619s5.353-11.068,6.273-14.182a7.709,7.709,0,0,0-.41-4.382A7.434,7.434,0,0,0,147.323,425.016Z" transform="translate(-107.802 -364.648)" fill="#4b1218"/>
            <path id="Trazado_1194048" data-name="Trazado 1194048" d="M178.129,320.883s-1.666-3.557-3.61-4.9-2.873-.489-6.071,2.353c0,0,3.461-2.564,5.107-1.879S178.129,320.883,178.129,320.883Z" transform="translate(-123.212 -314.881)" fill="#7c3837"/>
            <path id="Trazado_1194049" data-name="Trazado 1194049" d="M209.537,337.712a3.591,3.591,0,0,0-.37-3.286c-1.118-1.4-2.987-2.924-4.179-2.787s-4.247,2.384-4.923,3.467a34.639,34.639,0,0,1-3.437,4.476,12.851,12.851,0,0,0,3.458-2.991c1.573-1.965,3.41-4.115,5.044-3.748A5.033,5.033,0,0,1,209.537,337.712Z" transform="translate(-136.363 -322.472)" fill="#7c3837"/>
            <path id="Trazado_1194050" data-name="Trazado 1194050" d="M200.319,325.291a3.136,3.136,0,0,0-.4-2.787,5.6,5.6,0,0,0-4.194-2.219c-1.5.087-4.947.51-6.627,3.092a12.88,12.88,0,0,0,2.683,2.73,2.442,2.442,0,0,1,.1-3.472,5.116,5.116,0,0,1,5.535-1.158A4.9,4.9,0,0,1,200.319,325.291Z" transform="translate(-132.85 -317.175)" fill="#7c3837"/>
            <path id="Trazado_1194051" data-name="Trazado 1194051" d="M154.452,328.293s-6.7,5.508-7.325,6.96,1.247,9.921,1.5,13.127a7.465,7.465,0,0,0,.5-5.671c-.919-3.458-.89-7.057.035-7.99S154.452,328.293,154.452,328.293Z" transform="translate(-113.203 -320.915)" fill="#7c3837"/>
            <path id="Trazado_1194052" data-name="Trazado 1194052" d="M190.875,396.585a17.143,17.143,0,0,1-4.756,4.106c-1.515.869-7.3,2.679-9.071,2.546s-5.536-4.821-6.582-6.642a26.387,26.387,0,0,0-4.292-4.615s2.056.379,4.741,3.586,4.577,6.475,7.179,6.521S185.209,400.911,190.875,396.585Z" transform="translate(-122.151 -350.635)" fill="#7c3837"/>
            <path id="Trazado_1194053" data-name="Trazado 1194053" d="M192.684,366.85s-1.255,2.992.554,4.867a5.062,5.062,0,0,0,3.974,1.606s-.78,1.374,1.108,3.284a3.9,3.9,0,0,0,3.7,1.359,3.58,3.58,0,0,0-.362-1.777c-.066-.152-.138-.306-.221-.46a3.629,3.629,0,0,1-1.919-.633l-.01-.009c-1.189-1.029-1.445-1.97-.76-2.8.016-.018.027-.035.044-.053-.1-.107-.2-.216-.306-.32-.028.03-.053.058-.078.091a2.149,2.149,0,0,0-.215.309,5.164,5.164,0,0,1-3.6-1.476,4.266,4.266,0,0,1-1.01-3.3c0-.007,0-.012,0-.02-.151-.119-.237-.182-.237-.182l-.141-.105Z" transform="translate(-134.324 -338.908)" fill="#4b1218"/>
            <path id="Trazado_1194054" data-name="Trazado 1194054" d="M208.154,383.884l3.5,8.814c.947-.875,1.877-1.715,2.6-2.341l-4.7-6.766Z" transform="translate(-141.742 -346.721)" fill="#4b1218"/>
            <path id="Trazado_1194055" data-name="Trazado 1194055" d="M225.184,369.481s1.773-1.629,1.219-3.366-1.532-2.742-2.347-2.864-4.686,1.763-5.292,1.963a10.635,10.635,0,0,0-2.874,1.083,2.231,2.231,0,0,0-.524,2.275s.521-1.635,1.6-1.97,5.835-2.387,6.807-2.269S226.357,365.873,225.184,369.481Z" transform="translate(-145.06 -337.226)" fill="#7c3837"/>
            <path id="Trazado_1194056" data-name="Trazado 1194056" d="M221.641,350.767a5.413,5.413,0,0,0-1.323-4.3c-.073-.079-.147-.153-.22-.223a3.637,3.637,0,0,0-4.735-.124L209.6,350.69s6.686-4.3,8.593-3.729S221.641,350.767,221.641,350.767Z" transform="translate(-142.417 -328.856)" fill="#7c3837"/>
            <path id="Trazado_1194057" data-name="Trazado 1194057" d="M220.283,361.369l5.306-1.9.13-.141-.065-.009s.042-.076.113-.207h0a21.24,21.24,0,0,0,1.214-2.667A29.943,29.943,0,0,1,220.283,361.369Z" transform="translate(-147.402 -334.052)" fill="#4b1218"/>
            <g id="Grupo_1231936" data-name="Grupo 1231936" transform="translate(58.79 15.433)">
              <path id="Trazado_1194058" data-name="Trazado 1194058" d="M194.378,355.587a1.99,1.99,0,0,0-.484.954,4.722,4.722,0,0,0,1.12,3.651,4.424,4.424,0,0,0,.383.373,5.636,5.636,0,0,0,3.356,1.244c.142.006.23,0,.248,0a.22.22,0,1,0-.016-.441h-.043a5.163,5.163,0,0,1-3.6-1.476,4.265,4.265,0,0,1-1.01-3.3c.065-.522.814-1.214,1.538-1.884a12.551,12.551,0,0,0,1.446-1.489,12.63,12.63,0,0,1,2.377-2.253c.5-.4,1.116-.9,1.875-1.55,1.745-1.484,5.661-4.288,7.7-5.73-.229,0-.366.012-.366.012s.008-.117.018-.305c-2.072,1.465-5.909,4.217-7.639,5.688-.755.642-1.372,1.142-1.867,1.545a12.905,12.905,0,0,0-2.45,2.327,12.222,12.222,0,0,1-1.395,1.433c-.307.283-.607.562-.868.834C194.586,355.345,194.476,355.467,194.378,355.587Z" transform="translate(-193.862 -343.396)" fill="#4b1218"/>
            </g>
            <g id="Grupo_1231937" data-name="Grupo 1231937" transform="translate(55.12 8.4)">
              <path id="Trazado_1194059" data-name="Trazado 1194059" d="M188,341.394c-.594.687-1.683,3.675-.486,5.585a4.393,4.393,0,0,0,.858.98,8.134,8.134,0,0,0,2.791,1.474c.193.06.316.09.338.1a.221.221,0,0,0,.1-.429s-.045-.011-.118-.032a6.69,6.69,0,0,1-3.6-2.324c-1.065-1.7-.075-4.458.446-5.062a15.907,15.907,0,0,1,1.483-1.3,21.423,21.423,0,0,0,1.962-1.733c.349-.381.9-1.141,1.534-2.021a25.815,25.815,0,0,1,2.564-3.234,23.349,23.349,0,0,1,4.56-2.865c-.214-.033-.345-.046-.345-.046l-.028-.274a24.057,24.057,0,0,0-4.477,2.853,25.686,25.686,0,0,0-2.631,3.307c-.6.833-1.171,1.62-1.5,1.981a21.572,21.572,0,0,1-1.916,1.69A15.711,15.711,0,0,0,188,341.394Z" transform="translate(-186.981 -330.208)" fill="#4b1218"/>
            </g>
            <path id="Trazado_1194060" data-name="Trazado 1194060" d="M208.328,378.186a25.219,25.219,0,0,1-1.141-3.024,4.059,4.059,0,0,0-2.043,1.018c-.521.715-.467,1.421.51,2.253C206.4,379.071,208.328,378.186,208.328,378.186Z" transform="translate(-140.184 -342.787)" fill="#853d36"/>
            <path id="Trazado_1194061" data-name="Trazado 1194061" d="M195.34,368.383a2.976,2.976,0,0,1,1.086-1.34,17.962,17.962,0,0,0,.838,2.12,5.035,5.035,0,0,0,1.974,1.855,2.114,2.114,0,0,1-.85.79,2.544,2.544,0,0,1-1.057-.365,3.429,3.429,0,0,1-1.955-2.794A1.376,1.376,0,0,1,195.34,368.383Z" transform="translate(-135.762 -338.998)" fill="#853d36"/>
            <path id="Trazado_1194062" data-name="Trazado 1194062" d="M188.341,355.937a2.617,2.617,0,0,1,.656-1.326,10.254,10.254,0,0,0,1.3,2.624,7.056,7.056,0,0,0,2.058,1.685,2.115,2.115,0,0,1-.85.79,2.55,2.55,0,0,1-1.057-.364,3.429,3.429,0,0,1-1.955-2.794C188.468,356.461,188.345,356.025,188.341,355.937Z" transform="translate(-132.496 -333.197)" fill="#853d36"/>
            <path id="Trazado_1194063" data-name="Trazado 1194063" d="M192.032,333.47s-2.841,1.041-4.158.356-2.432-3.815-2.432-3.815a2.64,2.64,0,0,1,2.083-.789S191.121,331.94,192.032,333.47Z" transform="translate(-131.143 -321.338)" fill="#853d36"/>
            <g id="Grupo_1231938" data-name="Grupo 1231938" transform="translate(47.098 5.738)">
              <path id="Trazado_1194064" data-name="Trazado 1194064" d="M172,326.135a10.336,10.336,0,0,0,.479,4.179,11.108,11.108,0,0,0,2.435,4.546q.186.191.385.363a5.818,5.818,0,0,0,3.588,1.389,9.389,9.389,0,0,0,3.878-.7c2.163-.861,3.654-2.923,3.494-4.121-.095-.705-1.33-1.824-3.068-3.326L183,328.3c-.653-.564-1.257-1.09-1.612-1.473a3.288,3.288,0,0,1-.77-1.283c-.135.153-.211.246-.211.246s-.113-.219-.307-.575a3.457,3.457,0,0,0,.965,1.911c.4.428,1.073,1.011,1.789,1.629,1.219,1.052,2.886,2.491,2.967,3.092.12.9-1.1,2.811-3.22,3.653-1.4.558-4.916,1.58-7.371-.951a12.051,12.051,0,0,1-2.8-8.341.221.221,0,0,0-.435-.077Z" transform="translate(-171.939 -325.218)" fill="#4b1218"/>
            </g>
            <path id="Trazado_1194065" data-name="Trazado 1194065" d="M189.1,341.323s-.636.344-.973-.19a7.715,7.715,0,0,1-7.358,2.574,7.1,7.1,0,0,1-2.276-1,4.188,4.188,0,0,0,.251,3.587c1.068,1.629,4.169,5.569,4.468,8.594s-2.068,8.745-5.31,9.633c0,0,1.8.1,4.09-2.437s2.41-5.595,2.972-6.245,1.672.233,1.672.233-.495-.766.973-1.954c0,0-.593.454-1.814-.274a4.994,4.994,0,0,1-2.733-2.926c-.593-1.687.474-3.71.875-4.286s2.888-2.388,3.359-2.944S189.1,341.323,189.1,341.323Z" transform="translate(-127.623 -326.907)" fill="#4b1218"/>
            <path id="Trazado_1194066" data-name="Trazado 1194066" d="M169.664,346.012a5.271,5.271,0,0,0-1.778-1.844,11.233,11.233,0,0,0-8.6.208s5.039-3.756,10.518-1.109C169.805,343.266,170.493,345.192,169.664,346.012Z" transform="translate(-118.937 -327.461)" fill="#4b1218"/>
            <path id="Trazado_1194067" data-name="Trazado 1194067" d="M171.491,339.424a23.818,23.818,0,0,0-8.226-5.761,43.51,43.51,0,0,1,5.688,5.383Z" transform="translate(-120.794 -323.421)" fill="#4b1218"/>
            <path id="Trazado_1194068" data-name="Trazado 1194068" d="M222.974,380.6a6.988,6.988,0,0,0,2.957,1.065,5,5,0,0,1-3.945-.739Z" transform="translate(-148.197 -345.322)" fill="#4b1218"/>
            <path id="Trazado_1194069" data-name="Trazado 1194069" d="M213.906,383.395a12.234,12.234,0,0,1,3.506,4.066s-3.4-3.175-5.365-3.757Z" transform="translate(-143.558 -346.629)" fill="#4b1218"/>
            <path id="Trazado_1194070" data-name="Trazado 1194070" d="M213.817,369.2a5.065,5.065,0,0,0,.788,4.1s-1.321-.719-1.623-3.375Z" transform="translate(-143.995 -340.005)" fill="#4b1218"/>
            <path id="Trazado_1194071" data-name="Trazado 1194071" d="M199.985,360.78a6.221,6.221,0,0,0,2.421,5.052s-2.317-.439-3.18-4.173Z" transform="translate(-137.576 -336.075)" fill="#4b1218"/>
            <path id="Trazado_1194072" data-name="Trazado 1194072" d="M191.852,347.017a10.124,10.124,0,0,0,1.82,5.748s-1.715-1.136-2.578-4.87Z" transform="translate(-133.78 -329.653)" fill="#4b1218"/>
            <path id="Trazado_1194073" data-name="Trazado 1194073" d="M173.293,333.844s-3.3-4.73-1.858-9.28c0,0-2.291,1.754-.715,5.249s-1.563,1.175-1.563,1.175a12.8,12.8,0,0,0,2.7,2.708,12.835,12.835,0,0,1,1.873,1.1Z" transform="translate(-123.544 -319.175)" fill="#4b1218"/>
            <path id="Trazado_1194074" data-name="Trazado 1194074" d="M144.27,380.3c-.079.092-.186.2-.314.323,1.993,2.577,3.6,3.145,8.176,5.747a31.079,31.079,0,0,1,7.58,6.56c-2.7-5.246-9.128-8.524-11.347-10.235a20.671,20.671,0,0,1-3.4-3.489A5.013,5.013,0,0,1,144.27,380.3Z" transform="translate(-111.783 -344.675)" fill="#4b1218"/>
            <path id="Trazado_1194075" data-name="Trazado 1194075" d="M203.377,369.488a2.231,2.231,0,0,0-.215.306,1.793,1.793,0,0,0-.189.437c-.244.839.172,1.761,1.22,2.666l.01.009c1.142.982,4.1.983,5.891.327,1.038-.38,3.615-1.229,5.556-1.861h0l3.133-.892a4.564,4.564,0,0,0-2.19.125l-.053.014-1.083.352h0c-1.938.632-4.484,1.47-5.517,1.849-1.828.67-4.529.547-5.453-.248l-.01-.008c-1.19-1.028-1.447-1.968-.763-2.8a4.912,4.912,0,0,1,1.638-1.064,8.471,8.471,0,0,0,1.183-.65c.425-.3,1.011-.816,1.631-1.363a23.7,23.7,0,0,1,1.829-1.52,28.271,28.271,0,0,1,3.571-1.55c1.5-.594,3.2-1.262,4.482-1.878-.3-.065-.506-.093-.506-.093s.042-.076.113-.207c-1.242.582-2.83,1.209-4.25,1.77a27.286,27.286,0,0,0-3.661,1.6c-.514.357-1.2.965-1.869,1.552-.611.539-1.187,1.048-1.593,1.333a8.187,8.187,0,0,1-1.122.614A5.2,5.2,0,0,0,203.377,369.488Z" transform="translate(-139.292 -336.385)" fill="#4b1218"/>
            <path id="Trazado_1194076" data-name="Trazado 1194076" d="M226.446,379l1.083-.352A9.495,9.495,0,0,0,226.446,379Z" transform="translate(-150.278 -344.414)" fill="#4b1218"/>
            <path id="Trazado_1194077" data-name="Trazado 1194077" d="M179.439,412.5a6.606,6.606,0,0,0,3.244,2.415c.768-.307,1.5-.594,2.1-.843A7.69,7.69,0,0,1,179.439,412.5Z" transform="translate(-128.341 -360.21)" fill="#4b1218"/>
          </g>
          <path id="Trazado_1194078" data-name="Trazado 1194078" d="M191.614,343.747l.646.921a11.366,11.366,0,0,0-3.034,2.325l-.528-1.927A12.355,12.355,0,0,0,191.614,343.747Z" transform="translate(-97.162 -215.421)" fill="#af6857"/>
          <g id="Grupo_1231952" data-name="Grupo 1231952" transform="translate(58.684 7.045)">
            <path id="Trazado_1194079" data-name="Trazado 1194079" d="M161.495,226.35a16.679,16.679,0,0,0-1.947,1.9.943.943,0,0,0-.064.069c-.1-.181-.229-.395-.389-.64v-.005c-.357-.56-.848-1.259-1.349-1.952-.117-.16-.235-.32-.347-.48-.976-1.312-1.883-2.48-1.883-2.48l-1.051-3.84-.181-.656-2.213-8.075-.144-.528-.5-1.813-.155-.555-23.333-85.157-.16-.576-.6-2.176a2.4,2.4,0,0,1,1.552-2.912,1.29,1.29,0,0,1,.133-.043,2.117,2.117,0,0,1,.395-.069,1.959,1.959,0,0,1,.245-.016,2.438,2.438,0,0,1,1.989,1.04v.005a2.389,2.389,0,0,1,.315.677l.016.048,2.352,8.592.149.533,20.613,75.2v.005l.224.821.821,2.992.165.608.581,2.123.192.709v.005l2.427,8.843.149.544v.005l1.291,4.7.171.624Z" transform="translate(-127.1 -116.345)" fill="#af6857"/>
            <g id="Grupo_1231940" data-name="Grupo 1231940" transform="translate(0.682 0.016)">
              <path id="Trazado_1194080" data-name="Trazado 1194080" d="M129.633,120.738a4.207,4.207,0,0,1-1.093,1.413l-.16-.576a3.576,3.576,0,0,0,.773-1.072,6.186,6.186,0,0,0,.181-4.016,1.285,1.285,0,0,1,.133-.043,2.116,2.116,0,0,1,.395-.069A6.659,6.659,0,0,1,129.633,120.738Z" transform="translate(-128.38 -116.375)" fill="#c98a7d"/>
            </g>
            <g id="Grupo_1231941" data-name="Grupo 1231941" transform="translate(3.354 1.045)">
              <path id="Trazado_1194081" data-name="Trazado 1194081" d="M137.267,128.156c-.064.005-.123.005-.181.005a3.247,3.247,0,0,1-3.253-2.352,10.646,10.646,0,0,1,.6-7.5,2.39,2.39,0,0,1,.315.677,9.995,9.995,0,0,0-.411,6.661,2.711,2.711,0,0,0,2.779,1.979Z" transform="translate(-133.388 -118.305)" fill="#c98a7d"/>
            </g>
            <g id="Grupo_1231942" data-name="Grupo 1231942" transform="translate(24.826 89.915)">
              <path id="Trazado_1194082" data-name="Trazado 1194082" d="M177.879,285.543a16.446,16.446,0,0,1-4.085,3.323l-.144-.528a16.108,16.108,0,0,0,4.064-3.4Z" transform="translate(-173.65 -284.935)" fill="#c98a7d"/>
            </g>
            <g id="Grupo_1231943" data-name="Grupo 1231943" transform="translate(28.261 92.645)">
              <path id="Trazado_1194083" data-name="Trazado 1194083" d="M184.234,300.156a4.568,4.568,0,0,1-3.813-3.36,8.108,8.108,0,0,1,1.045-6.741l.192.709v.005a7.452,7.452,0,0,0-.725,5.877,4.056,4.056,0,0,0,3.152,2.965Z" transform="translate(-180.09 -290.055)" fill="#c98a7d"/>
            </g>
            <g id="Grupo_1231944" data-name="Grupo 1231944" transform="translate(27.184 101.92)">
              <path id="Trazado_1194084" data-name="Trazado 1194084" d="M181.531,314.9c-.117-.16-.235-.32-.347-.48a4.045,4.045,0,0,0,.427-3.467c-.48-1.3-1.92-2.224-3.36-2.853l-.181-.656c1.664.667,3.445,1.733,4.043,3.323A4.616,4.616,0,0,1,181.531,314.9Z" transform="translate(-178.07 -307.445)" fill="#c98a7d"/>
            </g>
            <g id="Grupo_1231945" data-name="Grupo 1231945" transform="translate(31.994 107.451)">
              <path id="Trazado_1194085" data-name="Trazado 1194085" d="M188.962,318.439a7.81,7.81,0,0,0-1.419,3.829c-.043.043-.064.069-.064.069-.1-.181-.229-.395-.389-.64v-.005a7.328,7.328,0,0,1,1.7-3.877Z" transform="translate(-187.09 -317.815)" fill="#c98a7d"/>
            </g>
            <g id="Grupo_1231946" data-name="Grupo 1231946" transform="translate(24.176 86.101)">
              <path id="Trazado_1194086" data-name="Trazado 1194086" d="M176.323,278.606a11.6,11.6,0,0,1-3.739,4.581l-.155-.555a11.833,11.833,0,0,0,3.669-4.848Z" transform="translate(-172.43 -277.785)" fill="#c98a7d"/>
            </g>
            <path id="Trazado_1194087" data-name="Trazado 1194087" d="M208.172,408.174a2.3,2.3,0,0,1-1.344-.027,2.05,2.05,0,0,1-.485-.208,2.4,2.4,0,0,1-1.131-1.451l-.395-1.44-.149-.539-2.677-9.771-.139-.512-1.557-5.685-.2-.709-2.48-9.056-.192-.709-.645-2.352a4.846,4.846,0,0,0,3.333,1.179c-.16,2.283,1.477,3.077,2.9,3.344l1.333,4.859.16.587,1.749,6.389.144.533,1.184,4.315.149.549,1.184,4.32.155.571.677,2.469.107.384a1.011,1.011,0,0,1,.027.123A2.4,2.4,0,0,1,208.172,408.174Z" transform="translate(-159.618 -237.384)" fill="#af6857"/>
            <g id="Grupo_1231947" data-name="Grupo 1231947" transform="translate(37.808 140.683)">
              <path id="Trazado_1194088" data-name="Trazado 1194088" d="M202.1,387.181a6.833,6.833,0,0,1-1.237,3.419l-.2-.709a6.16,6.16,0,0,0,.9-2.741,6.512,6.512,0,0,0-3.381-6.315l-.192-.709A7.1,7.1,0,0,1,202.1,387.181Z" transform="translate(-197.99 -380.125)" fill="#c98a7d"/>
            </g>
            <g id="Grupo_1231948" data-name="Grupo 1231948" transform="translate(42.816 147.712)">
              <path id="Trazado_1194089" data-name="Trazado 1194089" d="M211.348,400.814c-1.339,0-3.328-.379-3.84-2.517a5.214,5.214,0,0,1,1.787-4.992l.16.587a4.567,4.567,0,0,0-1.429,4.283c.411,1.723,2.011,2.085,3.179,2.107Z" transform="translate(-207.38 -393.305)" fill="#c98a7d"/>
            </g>
            <g id="Grupo_1231949" data-name="Grupo 1231949" transform="translate(42.234 156.821)">
              <path id="Trazado_1194090" data-name="Trazado 1194090" d="M210.546,420.155a3.242,3.242,0,0,1-1.291,1.072l-.149-.539a2.516,2.516,0,0,0,1-.827c.464-.7.272-1.467-.555-2.219a3.484,3.484,0,0,1-1.253-3.861,2.918,2.918,0,0,0-.117-2.064,1.4,1.4,0,0,0-.853-.715,2.493,2.493,0,0,0-.9-.085l-.139-.512a2.992,2.992,0,0,1,1.195.091,1.929,1.929,0,0,1,1.168.976,3.388,3.388,0,0,1,.165,2.411,2.982,2.982,0,0,0,1.088,3.365C210.925,418.171,211.159,419.233,210.546,420.155Z" transform="translate(-206.29 -410.385)" fill="#c98a7d"/>
            </g>
            <g id="Grupo_1231950" data-name="Grupo 1231950" transform="translate(46.723 159.536)">
              <path id="Trazado_1194091" data-name="Trazado 1194091" d="M217.439,420.915a3.011,3.011,0,0,1-2.7-2.5,2.922,2.922,0,0,1,1.211-2.939l.149.549a2.393,2.393,0,0,0-.832,2.32,2.268,2.268,0,0,0,1.477,1.829,3.461,3.461,0,0,0,.539.171Z" transform="translate(-214.706 -415.475)" fill="#c98a7d"/>
            </g>
            <g id="Grupo_1231951" data-name="Grupo 1231951" transform="translate(46.725 167.445)">
              <path id="Trazado_1194092" data-name="Trazado 1194092" d="M218.251,430.812a5.222,5.222,0,0,0-3.056,2.811,2.049,2.049,0,0,1-.485-.208,5.873,5.873,0,0,1,3.408-3.109l.107.384A1.008,1.008,0,0,1,218.251,430.812Z" transform="translate(-214.71 -430.305)" fill="#c98a7d"/>
            </g>
          </g>
          <path id="Trazado_1194093" data-name="Trazado 1194093" d="M160.509,181.688,144.763,184.9l-5.04,1.028L35.2,207.257a2.645,2.645,0,0,1-3.118-2.061l-14.96-73.317a2.643,2.643,0,0,1,2.061-3.119l125.308-25.57a2.644,2.644,0,0,1,3.119,2.063l8.411,41.218,2.111,10.344,4.44,21.755A2.644,2.644,0,0,1,160.509,181.688Z" transform="translate(-17.068 -103.136)" fill="#899e78"/>
        </g>
        <g id="Grupo_1231958" data-name="Grupo 1231958" transform="translate(251.877 51.673)">
          <g id="Grupo_1231957" data-name="Grupo 1231957" transform="translate(28.703 105.9)">
            <path id="Trazado_1194094" data-name="Trazado 1194094" d="M526.114,344.231a23.5,23.5,0,0,0,2.164,5.814c.9,1.493,1.652,1.606,2.138,2.655a14.823,14.823,0,0,0,3.114,3.969,14,14,0,0,1,1.164,1.009c.671.621,1.53,1.452,2.4,2.317.234.23.467.465.7.7a28.823,28.823,0,0,0,2.874,2.72c2.721,1.97,6.692,3.335,8.17,4.129.221.121.509.258.837.408.56.257,1.25.555,1.973.872.691.3,1.412.628,2.084.956,0,.013.015.05.034.11.051.165.156.506.306,1,1.285,4.234,4.956,14.616,6.41,27.213l34.911,1.27s-6.287-15.233-12.657-31.149c-2.136-5.338-3.205-7.4-7.133-13.853l-.929-1.347c-.168-.222-.5-.588-.495-.6a8.442,8.442,0,0,1-.787-.741c-.118-.119-.218-.227-.29-.316a4.821,4.821,0,0,1-.625-1.067,17.362,17.362,0,0,1-.731-8.882c.6-3.051,2.044-8.857,1.376-10.581s-10.3-10.445-12.258-12.1-2.61-2.464-4.5-1.45c-1.473.794-3.277,3.642-3.99,4.842-.2.333-.311.537-.311.537s-.069-.092-.191-.241a10.382,10.382,0,0,0-2.641-2.383c-1.429-.768-4.308-1.33-5.967-.711a5.133,5.133,0,0,0-3.017,2.787c-.074.5-.229,1.615-.3,2.119-.02.163-.036.261-.036.261s-.126.008-.332.033a5.821,5.821,0,0,0-3.058,1.122,8.841,8.841,0,0,0-2.03,2.671,10.72,10.72,0,0,0-.153,2.433c0,.176.006.29.006.29s-.128-.016-.348-.022a6.1,6.1,0,0,0-3.626.841,5.832,5.832,0,0,0-1.792,5.085c.021.081.045.164.07.249a14.694,14.694,0,0,0,.561,1.477c.2.468.4.871.507,1.1.066.128.1.2.1.2a.368.368,0,0,1-.061.009c-.082.01-.232.03-.425.065a3.9,3.9,0,0,0-1.969.825A4.732,4.732,0,0,0,526.114,344.231Z" transform="translate(-526.087 -316.837)" fill="#e79c78"/>
            <path id="Trazado_1194095" data-name="Trazado 1194095" d="M577.925,410.863a.177.177,0,0,1,.034.11c.051.165.156.506.306,1a13.038,13.038,0,0,1,2.612-1.583,8.463,8.463,0,0,0,4.116-2.295,40.922,40.922,0,0,1,3.466-3.216c-2.1.738-4.464,3.828-7.167,4.447A8.108,8.108,0,0,0,577.925,410.863Z" transform="translate(-550.278 -357.923)" fill="#e27961"/>
            <path id="Trazado_1194096" data-name="Trazado 1194096" d="M599.252,408.751s.506-1.66,4.013-2.79,5.994-2.5,7.345-3.858a11.534,11.534,0,0,1-5.517,3.786A15.988,15.988,0,0,0,599.252,408.751Z" transform="translate(-560.231 -356.628)" fill="#e27961"/>
            <path id="Trazado_1194097" data-name="Trazado 1194097" d="M600.15,423.012a7.6,7.6,0,0,1,3.631,1.974c1.371,1.51,7.2,13.244,7.2,13.244s-4.738-10.725-5.512-13.724a7.355,7.355,0,0,1,.535-4.164A7.1,7.1,0,0,1,600.15,423.012Z" transform="translate(-560.65 -365.14)" fill="#e27961"/>
            <path id="Trazado_1194098" data-name="Trazado 1194098" d="M575.993,322.791s1.705-3.336,3.6-4.55,2.754-.371,5.709,2.442c0,0-3.214-2.558-4.805-1.958S575.993,322.791,575.993,322.791Z" transform="translate(-549.377 -317.24)" fill="#e9b18d"/>
            <path id="Trazado_1194099" data-name="Trazado 1194099" d="M542.63,337.68a3.425,3.425,0,0,1,.461-3.12c1.112-1.3,2.943-2.689,4.074-2.519s3.97,2.411,4.578,3.466a32.928,32.928,0,0,0,3.129,4.379,12.25,12.25,0,0,1-3.2-2.965c-1.435-1.924-3.114-4.034-4.684-3.739A4.8,4.8,0,0,0,542.63,337.68Z" transform="translate(-533.719 -323.925)" fill="#e9b18d"/>
            <path id="Trazado_1194100" data-name="Trazado 1194100" d="M553.323,326.193a2.991,2.991,0,0,1,.471-2.644,5.338,5.338,0,0,1,4.07-1.977c1.423.132,4.7.649,6.214,3.165a12.286,12.286,0,0,1-2.646,2.514,2.328,2.328,0,0,0,.016-3.313,4.878,4.878,0,0,0-5.237-1.285A4.67,4.67,0,0,0,553.323,326.193Z" transform="translate(-538.739 -319.041)" fill="#e9b18d"/>
            <path id="Trazado_1194101" data-name="Trazado 1194101" d="M600.333,330.547s6.2,5.469,6.752,6.874-1.515,9.414-1.859,12.462a7.118,7.118,0,0,1-.286-5.421c.99-3.266,1.081-6.7.23-7.617S600.333,330.547,600.333,330.547Z" transform="translate(-560.735 -323.235)" fill="#e9b18d"/>
            <path id="Trazado_1194102" data-name="Trazado 1194102" d="M548.853,394.652a16.353,16.353,0,0,0,4.4,4.069c1.415.878,6.868,2.794,8.562,2.724s5.435-4.413,6.492-6.113a25.161,25.161,0,0,1,4.243-4.257s-1.972.293-4.636,3.261-4.575,6.02-7.056,5.979S554.111,398.96,548.853,394.652Z" transform="translate(-536.711 -351.481)" fill="#e9b18d"/>
            <path id="Trazado_1194103" data-name="Trazado 1194103" d="M560.374,366.24s1.1,2.893-.688,4.621a4.825,4.825,0,0,1-3.841,1.4s.7,1.335-1.164,3.093a3.721,3.721,0,0,1-3.574,1.174,3.42,3.42,0,0,1,.4-1.682c.068-.143.142-.287.226-.431a3.458,3.458,0,0,0,1.85-.54l.01-.009c1.167-.942,1.443-1.83.816-2.64-.015-.018-.025-.035-.04-.052.1-.1.2-.2.3-.295.026.03.049.058.071.09a2.1,2.1,0,0,1,.2.3,4.928,4.928,0,0,0,3.482-1.289,4.07,4.07,0,0,0,1.071-3.113c0-.007,0-.012,0-.019.148-.108.231-.166.231-.166l.138-.1Z" transform="translate(-537.761 -339.892)" fill="#e27961"/>
            <path id="Trazado_1194104" data-name="Trazado 1194104" d="M548.252,381.937l-3.624,8.286c-.874-.865-1.733-1.7-2.4-2.317l4.7-6.294Z" transform="translate(-533.618 -347.065)" fill="#e27961"/>
            <path id="Trazado_1194105" data-name="Trazado 1194105" d="M528.3,367.439s-1.636-1.611-1.051-3.249,1.55-2.563,2.331-2.653,4.409,1.834,4.979,2.045a10.156,10.156,0,0,1,2.7,1.127,2.127,2.127,0,0,1,.424,2.186s-.443-1.575-1.457-1.93-5.483-2.467-6.413-2.386S527.3,363.961,528.3,367.439Z" transform="translate(-526.569 -337.696)" fill="#e9b18d"/>
            <path id="Trazado_1194106" data-name="Trazado 1194106" d="M531.552,349.736a5.161,5.161,0,0,1,1.4-4.051q.108-.109.218-.2a3.468,3.468,0,0,1,4.517.038l5.341,4.541s-6.231-4.322-8.067-3.836S531.552,349.736,531.552,349.736Z" transform="translate(-528.626 -329.822)" fill="#e9b18d"/>
            <path id="Trazado_1194107" data-name="Trazado 1194107" d="M537.131,359.927l-4.995-1.986-.119-.139.062-.007s-.038-.074-.1-.2h0a20.2,20.2,0,0,1-1.069-2.582A28.543,28.543,0,0,0,537.131,359.927Z" transform="translate(-528.338 -334.652)" fill="#e27961"/>
            <g id="Grupo_1231954" data-name="Grupo 1231954" transform="translate(7.921 13.917)">
              <path id="Trazado_1194108" data-name="Trazado 1194108" d="M554.739,355.029a1.9,1.9,0,0,1,.43.925,4.5,4.5,0,0,1-1.187,3.443,4.179,4.179,0,0,1-.378.343,5.379,5.379,0,0,1-3.239,1.075c-.136,0-.22,0-.236-.005a.21.21,0,1,1,.029-.42l.041,0a4.923,4.923,0,0,0,3.481-1.288,4.07,4.07,0,0,0,1.071-3.113c-.045-.5-.736-1.184-1.4-1.846a11.954,11.954,0,0,1-1.329-1.467,12.009,12.009,0,0,0-2.191-2.225c-.461-.4-1.034-.9-1.735-1.539-1.614-1.472-5.254-4.272-7.152-5.715.219.009.349.023.349.023s0-.112-.007-.291c1.926,1.465,5.493,4.213,7.093,5.673.7.637,1.27,1.133,1.728,1.533a12.29,12.29,0,0,1,2.259,2.3,11.678,11.678,0,0,0,1.282,1.411c.283.28.56.555.8.823C554.549,354.791,554.649,354.911,554.739,355.029Z" transform="translate(-540.939 -342.932)" fill="#e27961"/>
            </g>
            <g id="Grupo_1231955" data-name="Grupo 1231955" transform="translate(13.504 7.4)">
              <path id="Trazado_1194109" data-name="Trazado 1194109" d="M562.9,341.769c.543.674,1.483,3.558.28,5.339a4.188,4.188,0,0,1-.85.906,7.749,7.749,0,0,1-2.709,1.313c-.186.051-.3.076-.325.081a.21.21,0,0,1-.085-.412s.043-.009.114-.027a6.38,6.38,0,0,0,3.507-2.1c1.07-1.586.219-4.246-.259-4.839a15.066,15.066,0,0,0-1.371-1.289,20.427,20.427,0,0,1-1.813-1.716c-.32-.374-.818-1.117-1.4-1.976a24.553,24.553,0,0,0-2.337-3.166A22.231,22.231,0,0,0,551.407,331c.205-.024.33-.032.33-.032s.014-.1.036-.26a22.949,22.949,0,0,1,4.173,2.866,24.465,24.465,0,0,1,2.4,3.238c.546.813,1.062,1.582,1.366,1.937a20.519,20.519,0,0,0,1.771,1.674A14.738,14.738,0,0,1,562.9,341.769Z" transform="translate(-551.407 -330.712)" fill="#e27961"/>
            </g>
            <path id="Trazado_1194110" data-name="Trazado 1194110" d="M550.542,376.473a24.128,24.128,0,0,0,1.188-2.844,3.869,3.869,0,0,1,1.914,1.037c.473.7.4,1.37-.561,2.13C552.346,377.38,550.542,376.473,550.542,376.473Z" transform="translate(-537.499 -343.34)" fill="#edc4ab"/>
            <path id="Trazado_1194111" data-name="Trazado 1194111" d="M562.894,367.595a2.839,2.839,0,0,0-.991-1.314,17.152,17.152,0,0,1-.868,1.993,4.8,4.8,0,0,1-1.942,1.7,1.486,1.486,0,0,0,.4.508,1.468,1.468,0,0,0,.381.274,2.434,2.434,0,0,0,1.019-.313,3.272,3.272,0,0,0,1.955-2.6A1.3,1.3,0,0,0,562.894,367.595Z" transform="translate(-541.49 -339.911)" fill="#edc4ab"/>
            <path id="Trazado_1194112" data-name="Trazado 1194112" d="M569.87,355.975a2.494,2.494,0,0,0-.581-1.286,9.8,9.8,0,0,1-1.322,2.458,6.719,6.719,0,0,1-2.017,1.538,1.485,1.485,0,0,0,.4.508,1.467,1.467,0,0,0,.381.274,2.441,2.441,0,0,0,1.019-.313,3.272,3.272,0,0,0,1.955-2.6C569.732,356.47,569.864,356.058,569.87,355.975Z" transform="translate(-544.69 -334.501)" fill="#edc4ab"/>
            <path id="Trazado_1194113" data-name="Trazado 1194113" d="M564.941,334.407s2.673,1.086,3.951.476,2.443-3.556,2.443-3.556a2.52,2.52,0,0,0-1.96-.821S565.859,332.979,564.941,334.407Z" transform="translate(-544.219 -323.21)" fill="#edc4ab"/>
            <g id="Grupo_1231956" data-name="Grupo 1231956" transform="translate(20.191 5.289)">
              <path id="Trazado_1194114" data-name="Trazado 1194114" d="M577.74,327.893a9.858,9.858,0,0,1-.594,3.967,10.594,10.594,0,0,1-2.47,4.252q-.183.176-.378.333a5.549,5.549,0,0,1-3.466,1.206,8.953,8.953,0,0,1-3.673-.794c-2.033-.892-3.387-2.906-3.195-4.043.114-.669,1.327-1.695,3.034-3.069l.186-.15c.641-.516,1.234-1,1.585-1.35a3.136,3.136,0,0,0,.776-1.2c.124.15.193.242.193.242s.114-.205.311-.538a3.3,3.3,0,0,1-.982,1.79c-.392.395-1.056.929-1.759,1.494-1.2.962-2.833,2.279-2.93,2.85-.143.85.959,2.715,2.949,3.587,1.315.578,4.634,1.667,7.056-.664a11.492,11.492,0,0,0,2.939-7.858.211.211,0,0,1,.418-.059Z" transform="translate(-563.946 -326.753)" fill="#e27961"/>
            </g>
            <path id="Trazado_1194115" data-name="Trazado 1194115" d="M563.752,341.745s.595.349.933-.149a7.358,7.358,0,0,0,6.929,2.7,6.776,6.776,0,0,0,2.2-.874,3.992,3.992,0,0,1-.357,3.411c-1.071,1.518-4.156,5.17-4.541,8.044s1.683,8.4,4.744,9.356c0,0-1.717.034-3.818-2.458s-2.112-5.411-2.627-6.05-1.6.167-1.6.167.5-.714-.862-1.894c0,0,.55.452,1.738-.2a4.761,4.761,0,0,0,2.7-2.7c.621-1.589-.33-3.551-.693-4.114s-2.674-2.371-3.105-2.916S563.752,341.745,563.752,341.745Z" transform="translate(-543.664 -328.391)" fill="#e27961"/>
            <path id="Trazado_1194116" data-name="Trazado 1194116" d="M582.4,346.959a5.026,5.026,0,0,1,1.755-1.7,10.714,10.714,0,0,1,8.189.481s-4.679-3.745-9.988-1.4C582.354,344.337,581.635,346.15,582.4,346.959Z" transform="translate(-552.202 -329.311)" fill="#e27961"/>
            <path id="Trazado_1194117" data-name="Trazado 1194117" d="M582.917,340.809a22.717,22.717,0,0,1,8.029-5.219,41.523,41.523,0,0,0-5.6,4.943Z" transform="translate(-552.608 -325.588)" fill="#e27961"/>
            <path id="Trazado_1194118" data-name="Trazado 1194118" d="M536.2,378.327a6.659,6.659,0,0,1-2.853.917,4.771,4.771,0,0,0,3.784-.574Z" transform="translate(-529.475 -345.532)" fill="#e27961"/>
            <path id="Trazado_1194119" data-name="Trazado 1194119" d="M543.478,381.268A11.663,11.663,0,0,0,540,385.027s3.342-2.915,5.237-3.4Z" transform="translate(-532.581 -346.905)" fill="#e27961"/>
            <path id="Trazado_1194120" data-name="Trazado 1194120" d="M547.15,367.773a4.83,4.83,0,0,1-.886,3.877s1.283-.642,1.659-3.163Z" transform="translate(-535.503 -340.607)" fill="#e27961"/>
            <path id="Trazado_1194121" data-name="Trazado 1194121" d="M559.284,360.2a5.931,5.931,0,0,1-2.474,4.735s2.223-.342,3.168-3.873Z" transform="translate(-540.425 -337.075)" fill="#e27961"/>
            <path id="Trazado_1194122" data-name="Trazado 1194122" d="M567.969,347.355a9.653,9.653,0,0,1-1.923,5.419s1.672-1.027,2.618-4.557Z" transform="translate(-544.735 -331.079)" fill="#e27961"/>
            <path id="Trazado_1194123" data-name="Trazado 1194123" d="M584.3,335.366s3.3-4.4,2.077-8.783c0,0,2.126,1.747.509,5.026s1.451,1.171,1.451,1.171a12.227,12.227,0,0,1-2.662,2.493,12.249,12.249,0,0,0-1.821.986Z" transform="translate(-553.045 -321.385)" fill="#e27961"/>
            <path id="Trazado_1194124" data-name="Trazado 1194124" d="M601.005,380.637c.073.091.17.2.289.318-1.985,2.39-3.539,2.878-7.982,5.208a29.645,29.645,0,0,0-7.441,6c2.746-4.911,8.98-7.824,11.151-9.381a19.7,19.7,0,0,0,3.357-3.213A4.746,4.746,0,0,0,601.005,380.637Z" transform="translate(-553.987 -346.113)" fill="#e27961"/>
            <path id="Trazado_1194125" data-name="Trazado 1194125" d="M545.058,367.989a2.089,2.089,0,0,1,.2.3,1.689,1.689,0,0,1,.166.423c.2.807-.221,1.673-1.25,2.5l-.01.008c-1.121.9-3.944.8-5.626.118-.977-.4-3.405-1.29-5.234-1.957h0l-2.957-.953a4.349,4.349,0,0,1,2.083.191l.05.015,1.02.371h0c1.826.666,4.225,1.548,5.2,1.943,1.72.7,4.3.67,5.205-.057l.009-.007c1.169-.941,1.444-1.828.819-2.639a4.688,4.688,0,0,0-1.526-1.068,8.057,8.057,0,0,1-1.106-.658c-.4-.3-.937-.811-1.51-1.353-.607-.574-1.234-1.167-1.693-1.509a26.986,26.986,0,0,0-3.353-1.595c-1.414-.615-3.007-1.308-4.21-1.938.288-.052.485-.071.485-.071s-.038-.074-.1-.2c1.164.6,2.658,1.246,3.992,1.826a26.053,26.053,0,0,1,3.436,1.642c.478.357,1.115.959,1.731,1.54.564.533,1.1,1.038,1.474,1.323a7.711,7.711,0,0,0,1.05.622A4.967,4.967,0,0,1,545.058,367.989Z" transform="translate(-528.072 -336.911)" fill="#e27961"/>
            <path id="Trazado_1194126" data-name="Trazado 1194126" d="M535.359,376.689l-1.02-.371A9.042,9.042,0,0,1,535.359,376.689Z" transform="translate(-529.938 -344.595)" fill="#e27961"/>
            <path id="Trazado_1194127" data-name="Trazado 1194127" d="M575.461,410.193a6.3,6.3,0,0,1-3.172,2.2c-.722-.318-1.41-.615-1.972-.873A7.335,7.335,0,0,0,575.461,410.193Z" transform="translate(-546.728 -360.403)" fill="#e27961"/>
          </g>
          <path id="Trazado_1194128" data-name="Trazado 1194128" d="M573.188,235.24c.814-1.391,3.965-5.166,3.965-5.166l30.4-97.593a2.3,2.3,0,1,0-4.383-1.365L571.339,233.3A17.014,17.014,0,0,1,573.188,235.24Z" transform="translate(-518.501 -123.514)" fill="#10161c"/>
          <path id="Trazado_1194129" data-name="Trazado 1194129" d="M567.623,344.184l-.646.857a10.829,10.829,0,0,1,2.815,2.316l.566-1.82A11.786,11.786,0,0,1,567.623,344.184Z" transform="translate(-516.466 -223.698)" fill="#10161c"/>
          <path id="Trazado_1194130" data-name="Trazado 1194130" d="M540.869,405.124a2.3,2.3,0,0,0,2.876-1.509l9.051-29.053a4.612,4.612,0,0,1-3.217,1.014c.081,2.183-1.51,2.885-2.873,3.094l-7.346,23.579A2.3,2.3,0,0,0,540.869,405.124Z" transform="translate(-503.529 -237.875)" fill="#10161c"/>
          <path id="Trazado_1194131" data-name="Trazado 1194131" d="M474.295,195.375,597.2,224.905a2.643,2.643,0,0,0,3.188-1.953l17.273-71.887a2.643,2.643,0,0,0-1.953-3.188L492.8,118.347a2.643,2.643,0,0,0-3.188,1.953l-17.273,71.887A2.643,2.643,0,0,0,474.295,195.375Z" transform="translate(-472.269 -118.274)" fill="#248abf"/>
          <path id="Trazado_1194132" data-name="Trazado 1194132" d="M585.552,445.066l.961,4.422a1.64,1.64,0,0,1-1.424-.225C584.5,448.77,584.567,445.427,585.552,445.066Z" transform="translate(-524.744 -270.777)" fill="#515414"/>
          <path id="Trazado_1194133" data-name="Trazado 1194133" d="M640.87,434.431l1.648,4.214a1.64,1.64,0,0,0,1.061-.975C643.793,436.935,641.89,434.186,640.87,434.431Z" transform="translate(-550.949 -265.806)" fill="#515414"/>
          <path id="Trazado_1194134" data-name="Trazado 1194134" d="M629.972,469.285H589.316l-4.88-20.576-.389-1.643s-4.832-2.912.219-7.077a5.515,5.515,0,0,0-.219,3.877c.672,2.133,24.651-1.269,28.267-2.96s3.584-5.131,1.067-6.587a2.726,2.726,0,0,1,2.955.843c1.232,1.477.576,4.763.576,4.763Z" transform="translate(-523.459 -265.698)" fill="#71721b"/>
          <path id="Trazado_1194135" data-name="Trazado 1194135" d="M596.807,484.868h-.933L591.58,467.62c1.5-.389,2.24,1.813,2.48,3.349C594.556,474.148,595.671,479.178,596.807,484.868Z" transform="translate(-527.947 -281.281)" fill="#95931b"/>
          <path id="Trazado_1194136" data-name="Trazado 1194136" d="M638.747,474.31c10.585-2.249,2.027-25.707,2.027-25.707a32.728,32.728,0,0,1-3.664.88c4.464-2.224,5.536-4.533,5.536-4.533l13.061,29.36Z" transform="translate(-549.194 -270.723)" fill="#515414"/>
          <path id="Trazado_1194137" data-name="Trazado 1194137" d="M607.79,455.07s-2.587,3.968-21.531,3.387l-.389-1.643S599.518,457.939,607.79,455.07Z" transform="translate(-525.283 -275.445)" fill="#515414"/>
        </g>
        <g id="Grupo_1231973" data-name="Grupo 1231973" transform="translate(125.241 94.671)">
          <path id="Trazado_1194138" data-name="Trazado 1194138" d="M401.817,289.5H237.079a2.252,2.252,0,0,1-2.252-2.252v-86.1a2.252,2.252,0,0,1,2.252-2.252H401.817a2.252,2.252,0,0,1,2.252,2.252v86.1A2.252,2.252,0,0,1,401.817,289.5Z" transform="translate(-234.827 -198.895)" fill="#bca78f"/>
          <g id="Grupo_1231965" data-name="Grupo 1231965" transform="translate(91.926 78.327)">
            <path id="Trazado_1194139" data-name="Trazado 1194139" d="M467.052,399.423c-.2-.743-.4-1.493-.606-2.236-2.061-7.6-4.041-14.933-4.884-18.09a22.31,22.31,0,0,1-.7-3.173c-.208-3.231,1.227-7.76,1.558-12.176a32.08,32.08,0,0,0-.358-5.715h-35.57c-.207.747-.695.673-1.284.183-.066-.056-.134-.118-.2-.183h-.2v-.194c-.07-.073-.142-.149-.213-.23a22.492,22.492,0,0,1-2.071-2.958,21.111,21.111,0,0,0-1.8-2.527c-.29-.349-.474-.541-.474-.541s-.081-.115-.245-.32a16.484,16.484,0,0,0-3.314-3.023c-2.3-1.61-5.29-3.476-8.066-1.868l0,0c-.127.076-.257.157-.388.249-2.882,2.034.941,4.465,2.665,5.781a22.911,22.911,0,0,1,5.089,6.565c.894,1.888,2.258,9.666,3.7,11.7.662.926,3.557,2.328,6.593,3.609s6.2,2.446,7.412,2.9c.224.084.38.142.456.174a1.645,1.645,0,0,1,.514.418,12.658,12.658,0,0,1,1.435,2.007c.239.4.478.829.708,1.274a12.821,12.821,0,0,1,1.394,3.994l.021.306c.007.157.026.419.054.772.166,2.036.716,8.29,1.351,15.509.067.753.137,1.514.206,2.285,1.113,12.623,1.054,24.107,1.054,24.107h35.244S469.872,409.832,467.052,399.423Z" transform="translate(-407.189 -345.757)" fill="#a25e4a"/>
            <path id="Trazado_1194140" data-name="Trazado 1194140" d="M484.113,425.815a7.6,7.6,0,0,1,3.095,2.739c1,1.779,4.039,14.522,4.039,14.522s-2.209-11.515-2.29-14.611a7.352,7.352,0,0,1,1.456-3.937A7.093,7.093,0,0,1,484.113,425.815Z" transform="translate(-443.087 -382.517)" fill="#853d36"/>
            <g id="Grupo_1231964" data-name="Grupo 1231964" transform="translate(29.521 53.13)">
              <path id="Trazado_1194141" data-name="Trazado 1194141" d="M463.9,453.774l.105,1.1,1.866,19.633h36.088l-1.789-9.328-.1-.533-.443-2.309-.117-.607-1.919-10.011-.146-.761-.363-1.895s1.386-1.987.748-3.463c-.274-.633-6.8.157-14.162,1.267h-.011c-9.8,1.477-21.092,3.519-21.092,3.519A4.111,4.111,0,0,0,463.9,453.774Z" transform="translate(-462.541 -445.377)" fill="#c3853b"/>
              <g id="Grupo_1231959" data-name="Grupo 1231959" transform="translate(14.908 8.515)">
                <path id="Trazado_1194142" data-name="Trazado 1194142" d="M498.365,478.94a2.822,2.822,0,0,0,1.538-1.931c.782-2.642,1.821-2.785,3.137-2.966a4.762,4.762,0,0,0,2.925-1.21c.933-.87,1.355-2.462,1.19-4.484a12.9,12.9,0,0,0-.983-3.949,5.787,5.787,0,0,0-1.779-2.494,4.046,4.046,0,0,0-3.981-.084,5.411,5.411,0,0,0-2.93,4.629,1.964,1.964,0,0,1-.568,1.457c-.5.389-1.339.246-2.227.095-1.363-.233-2.907-.5-3.647,1.155a6.56,6.56,0,0,0-.533,2.3,7.328,7.328,0,0,0,5.356,7.521A3.809,3.809,0,0,0,498.365,478.94ZM496,478.457a6.569,6.569,0,0,1-2.66-1.429,6.859,6.859,0,0,1-2.3-5.543,6,6,0,0,1,.488-2.109c.57-1.272,1.783-1.065,3.067-.846a3.393,3.393,0,0,0,2.647-.2,2.437,2.437,0,0,0,.772-1.838,4.889,4.889,0,0,1,2.63-4.189,3.56,3.56,0,0,1,3.449.049c1.183.786,2.315,3.5,2.524,6.041.153,1.855-.21,3.293-1.021,4.049a4.254,4.254,0,0,1-2.632,1.072c-1.387.191-2.7.371-3.578,3.345C498.926,478.419,497.819,478.942,496,478.457Z" transform="translate(-490.494 -461.342)" fill="#996022"/>
              </g>
              <g id="Grupo_1231960" data-name="Grupo 1231960" transform="translate(6.908 20.711)">
                <path id="Trazado_1194143" data-name="Trazado 1194143" d="M477.256,492.631h.664a8.271,8.271,0,0,1-1.012-1.73,8.577,8.577,0,0,1-.459-1.37c-.21-.86-.766-3.145-.1-4.21a1.172,1.172,0,0,1,.779-.542c.771-.172,1.088.368,1.677,1.507a7.877,7.877,0,0,0,3.406,3.787c2.107,1.1,3.115,1.87,3.582,2.558h.62a3.112,3.112,0,0,0-.412-.616,12.038,12.038,0,0,0-3.542-2.418,7.324,7.324,0,0,1-3.177-3.559c-.57-1.1-1.061-2.052-2.27-1.783a1.7,1.7,0,0,0-1.118.783c-.692,1.113-.343,3.053.038,4.619A8.964,8.964,0,0,0,477.256,492.631Z" transform="translate(-475.494 -484.209)" fill="#996022"/>
              </g>
              <g id="Grupo_1231961" data-name="Grupo 1231961" transform="translate(7.156 10.532)">
                <path id="Trazado_1194144" data-name="Trazado 1194144" d="M481.513,473.3c.277-.413.221-1.018-.167-1.8a3.087,3.087,0,0,1,.216-3.275,2.241,2.241,0,0,0,.367-2.013,1.836,1.836,0,0,0-.143-.266,2.173,2.173,0,0,0-2.2-.8c-1.368.154-3.1,1.06-3.506,2.165-.559,1.536,1.019,4,1.18,4.25a4.114,4.114,0,0,0,3.082,2.183A1.231,1.231,0,0,0,481.513,473.3Zm-1.135-.084a3.582,3.582,0,0,1-2.645-1.9l-.019-.034a9.638,9.638,0,0,1-.755-1.41,3.611,3.611,0,0,1-.379-2.374c.293-.8,1.752-1.67,3.062-1.817a1.75,1.75,0,0,1,1.693.557c.354.549.148,1-.247,1.736a3.6,3.6,0,0,0-.222,3.766c.287.576.358,1.023.2,1.258S480.572,473.227,480.377,473.212Z" transform="translate(-475.957 -465.124)" fill="#996022"/>
              </g>
              <g id="Grupo_1231962" data-name="Grupo 1231962" transform="translate(25.008 19.271)">
                <path id="Trazado_1194145" data-name="Trazado 1194145" d="M510.051,491.371a3.732,3.732,0,0,1-.068-1.14,2.1,2.1,0,0,1,1.569-2.034,20.878,20.878,0,0,1,2.1-.491c1.785-.345,2.861-.553,4.625-3.051a6.451,6.451,0,0,1,3.777-2.612l-.1-.533a6.916,6.916,0,0,0-4.113,2.835c-1.639,2.321-2.58,2.5-4.288,2.834a21.237,21.237,0,0,0-2.148.5,2.654,2.654,0,0,0-1.95,2.5,4.326,4.326,0,0,0,.055,1.189h.547Z" transform="translate(-509.431 -481.51)" fill="#996022"/>
              </g>
              <g id="Grupo_1231963" data-name="Grupo 1231963" transform="translate(32.907 5.584)">
                <path id="Trazado_1194146" data-name="Trazado 1194146" d="M528.417,467.225l-.117-.607a5.492,5.492,0,0,1-.661-.3,5.361,5.361,0,0,1-2.627-3.277c-.76-2.432.472-5,1.369-6.437l-.146-.761a13.5,13.5,0,0,0-1.054,1.827,7.63,7.63,0,0,0-.681,5.531,5.932,5.932,0,0,0,2.909,3.6A6.059,6.059,0,0,0,528.417,467.225Z" transform="translate(-524.24 -455.846)" fill="#996022"/>
              </g>
              <path id="Trazado_1194147" data-name="Trazado 1194147" d="M465.1,455.87a3.169,3.169,0,0,1-1.323-2.13l15.989-2.825s-12.268,2.757-13.779,3.573C464.872,455.089,465.1,455.87,465.1,455.87Z" transform="translate(-463.117 -447.961)" fill="#e6a73f"/>
              <path id="Trazado_1194148" data-name="Trazado 1194148" d="M470.243,483.962c-.278-5.991-.65-11.335-.671-14.642-.01-1.556-.41-3.844-1.956-3.678l1.744,18.32h.884Z" transform="translate(-464.909 -454.829)" fill="#e6a73f"/>
              <path id="Trazado_1194149" data-name="Trazado 1194149" d="M465.087,459.461s12.283-.785,19.925-1.9c0,0-7.03,2.529-19.82,3Z" transform="translate(-463.729 -451.064)" fill="#996022"/>
              <path id="Trazado_1194150" data-name="Trazado 1194150" d="M507.455,449.97c1.388,3.673.1,7.816,2.039,15.009a25.927,25.927,0,0,1,.539,9.53H520.44l-4.879-25.444s1.386-1.987.748-3.463c-.274-.633-6.8.157-14.162,1.267A4.987,4.987,0,0,1,507.455,449.97Z" transform="translate(-481.023 -445.377)" fill="#996022" opacity="0.3"/>
            </g>
            <path id="Trazado_1194151" data-name="Trazado 1194151" d="M445.64,377.078a19.111,19.111,0,0,1-9.274,3.229l-.271.007a12.879,12.879,0,0,0-1.435-2.009,1.728,1.728,0,0,0-.512-.418c-.078-.032-.233-.091-.455-.174h0c-2.425-.908-12.682-4.65-14-6.508-1.445-2.028-2.807-9.806-3.7-11.695a23.056,23.056,0,0,0-5.092-6.568c-1.722-1.315-5.548-3.746-2.663-5.78q.193-.136.388-.249c-.09.057-1.593,1.047.159,3.048,1.8,2.061,6.48,4.925,7.858,7.756s2.433,9.092,4.989,10.845c6.879,4.721,11.426,7.89,14.693,7.867S443.186,378.192,445.64,377.078Z" transform="translate(-407.189 -346.297)" fill="#853d36"/>
            <path id="Trazado_1194152" data-name="Trazado 1194152" d="M475.642,400.95a36.057,36.057,0,0,0-7.588,3.279c-2.45,1.6-5.072,3.007-7.217,2.565a16.107,16.107,0,0,0-2.141-3.281c1.439.785,4.233,1.938,6.667.759C468.818,402.6,472.618,400.724,475.642,400.95Z" transform="translate(-431.225 -371.505)" fill="#853d36"/>
            <path id="Trazado_1194153" data-name="Trazado 1194153" d="M492.762,402.322a21.991,21.991,0,0,0,.7,3.174,7.276,7.276,0,0,1-3.789.936c-3.152.085-6.207-1.763-14.126.542,0,0,6.574-2.6,10.725-2.183S492.263,404.1,492.762,402.322Z" transform="translate(-439.088 -372.154)" fill="#853d36"/>
            <path id="Trazado_1194154" data-name="Trazado 1194154" d="M476.969,415.386a34.587,34.587,0,0,0-11.566,3.147c-.029-.354-.047-.617-.054-.776,0-.1-.012-.2-.023-.305C467.919,416.413,473.1,414.656,476.969,415.386Z" transform="translate(-434.319 -378.17)" fill="#853d36"/>
            <path id="Trazado_1194155" data-name="Trazado 1194155" d="M473.591,368.775c1.6,2.161,2.812,4.547,2.815,6.8a14.019,14.019,0,0,0-1.877-6.8Z" transform="translate(-438.176 -356.499)" fill="#853d36"/>
            <path id="Trazado_1194156" data-name="Trazado 1194156" d="M407.8,352.059s-.189.556.841,1.563c.892.871,2.479,2.3,2.99,2.1A24.342,24.342,0,0,1,407.8,352.059Z" transform="translate(-407.467 -348.698)" fill="#cb8c7f"/>
            <path id="Trazado_1194157" data-name="Trazado 1194157" d="M429.114,356.942a6.616,6.616,0,0,0-3.945.842,6.131,6.131,0,0,1,3.225-1.705c.165.2.246.322.246.322S428.823,356.595,429.114,356.942Z" transform="translate(-415.579 -350.574)" fill="#853d36"/>
            <path id="Trazado_1194158" data-name="Trazado 1194158" d="M438.349,368.4v-.2c-.07-.073-.14-.149-.212-.23a24.963,24.963,0,0,0-1.935,6.2,40.1,40.1,0,0,1,2.546-5.591c-.067-.055-.135-.118-.2-.183Z" transform="translate(-420.728 -356.127)" fill="#853d36"/>
          </g>
          <g id="Grupo_1231972" data-name="Grupo 1231972" transform="translate(3.477 78.327)">
            <path id="Trazado_1194159" data-name="Trazado 1194159" d="M250.422,399.423c.2-.743.4-1.493.606-2.236,2.061-7.6,4.041-14.933,4.884-18.09a22.234,22.234,0,0,0,.7-3.173c.208-3.231-1.227-7.76-1.558-12.176a32.079,32.079,0,0,1,.358-5.715h35.57c.207.747.695.673,1.284.183.066-.056.134-.118.2-.183h.2v-.194c.071-.073.142-.149.213-.23a22.492,22.492,0,0,0,2.071-2.958,21.114,21.114,0,0,1,1.8-2.527c.29-.349.474-.541.474-.541s.081-.115.245-.32a16.477,16.477,0,0,1,3.315-3.023c2.3-1.61,5.29-3.476,8.066-1.868l0,0c.127.076.257.157.388.249,2.882,2.034-.941,4.465-2.665,5.781a22.921,22.921,0,0,0-5.089,6.565c-.894,1.888-2.258,9.666-3.7,11.7-.662.926-3.557,2.328-6.592,3.609s-6.2,2.446-7.412,2.9c-.224.084-.38.142-.456.174a1.645,1.645,0,0,0-.514.418,12.658,12.658,0,0,0-1.435,2.007c-.239.4-.478.829-.708,1.274a12.819,12.819,0,0,0-1.394,3.994l-.021.306c-.007.157-.026.419-.054.772-.166,2.036-.716,8.29-1.351,15.509q-.1,1.129-.206,2.285c-1.113,12.623-1.054,24.107-1.054,24.107H241.347S247.6,409.832,250.422,399.423Z" transform="translate(-241.347 -345.757)" fill="#a25e4a"/>
            <path id="Trazado_1194160" data-name="Trazado 1194160" d="M288.42,425.824a7.6,7.6,0,0,0-2.941,2.9c-.9,1.831-3.241,14.721-3.241,14.721s1.577-11.619,1.489-14.714a7.357,7.357,0,0,0-1.669-3.852A7.092,7.092,0,0,0,288.42,425.824Z" transform="translate(-260.346 -382.683)" fill="#853d36"/>
            <g id="Grupo_1231971" data-name="Grupo 1231971" transform="translate(0.385 53.13)">
              <path id="Trazado_1194161" data-name="Trazado 1194161" d="M280.128,453.774l-.105,1.1-1.866,19.633H242.069l1.789-9.328.1-.533.443-2.309.117-.607,1.919-10.011.146-.761.363-1.895s-1.386-1.987-.748-3.463c.274-.633,6.8.157,14.162,1.267h.011c9.8,1.477,21.092,3.519,21.092,3.519A4.113,4.113,0,0,1,280.128,453.774Z" transform="translate(-242.069 -445.377)" fill="#c3853b"/>
              <g id="Grupo_1231966" data-name="Grupo 1231966" transform="translate(7.812 8.515)">
                <path id="Trazado_1194162" data-name="Trazado 1194162" d="M268.044,478.975a7.328,7.328,0,0,0,5.356-7.521,6.559,6.559,0,0,0-.533-2.3c-.741-1.651-2.285-1.388-3.647-1.155-.889.152-1.727.294-2.227-.095a1.961,1.961,0,0,1-.567-1.457,5.411,5.411,0,0,0-2.93-4.629,4.046,4.046,0,0,0-3.981.084,5.787,5.787,0,0,0-1.779,2.494,12.915,12.915,0,0,0-.983,3.949c-.165,2.022.257,3.614,1.19,4.484a4.759,4.759,0,0,0,2.925,1.21c1.316.181,2.354.324,3.137,2.966a2.824,2.824,0,0,0,1.538,1.931A3.81,3.81,0,0,0,268.044,478.975Zm-3.525-2.118c-.881-2.973-2.191-3.154-3.578-3.345a4.252,4.252,0,0,1-2.632-1.072c-.811-.755-1.174-2.193-1.021-4.049.209-2.545,1.341-5.254,2.524-6.041a3.56,3.56,0,0,1,3.449-.049,4.889,4.889,0,0,1,2.63,4.189,2.438,2.438,0,0,0,.772,1.838,3.393,3.393,0,0,0,2.647.2c1.284-.219,2.5-.426,3.067.846a6,6,0,0,1,.488,2.109,6.859,6.859,0,0,1-2.3,5.543,6.575,6.575,0,0,1-2.661,1.429C266.089,478.942,264.981,478.419,264.519,476.856Z" transform="translate(-256.717 -461.342)" fill="#996022"/>
              </g>
              <g id="Grupo_1231967" data-name="Grupo 1231967" transform="translate(21.594 20.711)">
                <path id="Trazado_1194163" data-name="Trazado 1194163" d="M291.71,492.631h-.664a8.269,8.269,0,0,0,1.012-1.73,8.521,8.521,0,0,0,.459-1.37c.21-.86.766-3.145.1-4.21a1.172,1.172,0,0,0-.779-.542c-.771-.172-1.088.368-1.677,1.507a7.875,7.875,0,0,1-3.406,3.787c-2.107,1.1-3.115,1.87-3.582,2.558h-.62a3.112,3.112,0,0,1,.412-.616,12.038,12.038,0,0,1,3.542-2.418,7.321,7.321,0,0,0,3.177-3.559c.57-1.1,1.061-2.052,2.27-1.783a1.7,1.7,0,0,1,1.118.783c.692,1.113.343,3.053-.038,4.619A8.974,8.974,0,0,1,291.71,492.631Z" transform="translate(-282.557 -484.209)" fill="#996022"/>
              </g>
              <g id="Grupo_1231968" data-name="Grupo 1231968" transform="translate(26.166 10.532)">
                <path id="Trazado_1194164" data-name="Trazado 1194164" d="M292.844,473.748a4.116,4.116,0,0,0,3.082-2.183c.161-.246,1.739-2.714,1.18-4.25-.4-1.105-2.138-2.012-3.506-2.165a2.173,2.173,0,0,0-2.2.8,1.83,1.83,0,0,0-.143.266,2.237,2.237,0,0,0,.367,2.013,3.086,3.086,0,0,1,.216,3.275c-.388.779-.444,1.382-.167,1.8A1.232,1.232,0,0,0,292.844,473.748Zm-.729-.75c-.158-.235-.086-.682.2-1.258a3.6,3.6,0,0,0-.222-3.766c-.395-.741-.6-1.187-.247-1.736a1.751,1.751,0,0,1,1.693-.557c1.31.147,2.77,1.013,3.062,1.817a3.611,3.611,0,0,1-.379,2.374,9.56,9.56,0,0,1-.755,1.41l-.019.034a3.58,3.58,0,0,1-2.645,1.9C292.611,473.227,292.263,473.218,292.115,473Z" transform="translate(-291.13 -465.125)" fill="#996022"/>
              </g>
              <g id="Grupo_1231969" data-name="Grupo 1231969" transform="translate(1.789 19.271)">
                <path id="Trazado_1194165" data-name="Trazado 1194165" d="M257.424,491.371a3.733,3.733,0,0,0,.068-1.14,2.1,2.1,0,0,0-1.569-2.034,20.879,20.879,0,0,0-2.1-.491c-1.785-.345-2.861-.553-4.625-3.051a6.451,6.451,0,0,0-3.777-2.612l.1-.533a6.916,6.916,0,0,1,4.113,2.835c1.639,2.321,2.58,2.5,4.289,2.834a21.244,21.244,0,0,1,2.148.5,2.654,2.654,0,0,1,1.95,2.5,4.324,4.324,0,0,1-.055,1.189h-.547Z" transform="translate(-245.424 -481.51)" fill="#996022"/>
              </g>
              <g id="Grupo_1231970" data-name="Grupo 1231970" transform="translate(2.334 5.584)">
                <path id="Trazado_1194166" data-name="Trazado 1194166" d="M246.446,467.225l.117-.607a5.5,5.5,0,0,0,.661-.3,5.361,5.361,0,0,0,2.627-3.277c.76-2.432-.472-5-1.369-6.437l.146-.761a13.5,13.5,0,0,1,1.054,1.827,7.629,7.629,0,0,1,.681,5.531,5.932,5.932,0,0,1-2.909,3.6A6.1,6.1,0,0,1,246.446,467.225Z" transform="translate(-246.446 -455.846)" fill="#996022"/>
              </g>
              <path id="Trazado_1194167" data-name="Trazado 1194167" d="M299.428,455.87a3.169,3.169,0,0,0,1.323-2.13l-15.989-2.825s12.268,2.757,13.779,3.573C299.654,455.089,299.428,455.87,299.428,455.87Z" transform="translate(-261.992 -447.961)" fill="#e6a73f"/>
              <path id="Trazado_1194168" data-name="Trazado 1194168" d="M305.975,483.962c.278-5.991.65-11.335.672-14.642.01-1.556.41-3.844,1.956-3.678l-1.744,18.32h-.884Z" transform="translate(-271.892 -454.829)" fill="#e6a73f"/>
              <path id="Trazado_1194169" data-name="Trazado 1194169" d="M295.994,459.461s-12.283-.785-19.925-1.9c0,0,7.03,2.529,19.82,3Z" transform="translate(-257.936 -451.064)" fill="#996022"/>
              <path id="Trazado_1194170" data-name="Trazado 1194170" d="M255.054,449.97c-1.388,3.673-.1,7.816-2.039,15.009a25.928,25.928,0,0,0-.539,9.53H242.069l4.879-25.444s-1.386-1.987-.748-3.463c.274-.633,6.8.157,14.162,1.267A4.987,4.987,0,0,0,255.054,449.97Z" transform="translate(-242.069 -445.377)" fill="#996022" opacity="0.3"/>
            </g>
            <path id="Trazado_1194171" data-name="Trazado 1194171" d="M298.509,377.078a19.111,19.111,0,0,0,9.274,3.229l.271.007a12.879,12.879,0,0,1,1.435-2.009,1.728,1.728,0,0,1,.512-.418c.078-.032.234-.091.455-.174h0c2.425-.908,12.681-4.65,14-6.508,1.444-2.028,2.807-9.806,3.7-11.695a23.057,23.057,0,0,1,5.092-6.568c1.722-1.315,5.548-3.746,2.663-5.78q-.193-.136-.388-.249c.09.057,1.593,1.047-.159,3.048-1.8,2.061-6.48,4.925-7.858,7.756s-2.433,9.092-4.989,10.845c-6.879,4.721-11.426,7.89-14.693,7.867S300.963,378.192,298.509,377.078Z" transform="translate(-268.023 -346.297)" fill="#853d36"/>
            <path id="Trazado_1194172" data-name="Trazado 1194172" d="M287.324,400.95a36.057,36.057,0,0,1,7.588,3.279c2.45,1.6,5.071,3.007,7.217,2.565a16.107,16.107,0,0,1,2.141-3.281c-1.439.785-4.233,1.938-6.667.759C294.148,402.6,290.349,400.724,287.324,400.95Z" transform="translate(-262.803 -371.505)" fill="#853d36"/>
            <path id="Trazado_1194173" data-name="Trazado 1194173" d="M269.356,402.322a21.991,21.991,0,0,1-.7,3.174,7.276,7.276,0,0,0,3.789.936c3.152.085,6.207-1.763,14.126.542,0,0-6.574-2.6-10.725-2.183S269.855,404.1,269.356,402.322Z" transform="translate(-254.093 -372.154)" fill="#853d36"/>
            <path id="Trazado_1194174" data-name="Trazado 1194174" d="M290.638,415.386a34.587,34.587,0,0,1,11.566,3.147c.029-.354.048-.617.054-.776,0-.1.012-.2.023-.305C299.688,416.413,294.506,414.656,290.638,415.386Z" transform="translate(-264.349 -378.17)" fill="#853d36"/>
            <path id="Trazado_1194175" data-name="Trazado 1194175" d="M301.738,368.775c-1.6,2.161-2.812,4.547-2.815,6.8a14.02,14.02,0,0,1,1.877-6.8Z" transform="translate(-268.215 -356.499)" fill="#853d36"/>
            <path id="Trazado_1194176" data-name="Trazado 1194176" d="M366.633,352.059s.189.556-.841,1.563c-.892.871-2.479,2.3-2.99,2.1A24.369,24.369,0,0,0,366.633,352.059Z" transform="translate(-298.026 -348.698)" fill="#cb8c7f"/>
            <path id="Trazado_1194177" data-name="Trazado 1194177" d="M345.228,356.942a6.616,6.616,0,0,1,3.945.842,6.131,6.131,0,0,0-3.225-1.705c-.165.2-.246.322-.246.322S345.519,356.595,345.228,356.942Z" transform="translate(-289.825 -350.574)" fill="#853d36"/>
            <path id="Trazado_1194178" data-name="Trazado 1194178" d="M337.218,368.4v-.2c.07-.073.14-.149.212-.23a24.965,24.965,0,0,1,1.935,6.2,40.108,40.108,0,0,0-2.546-5.591c.067-.055.135-.118.2-.183Z" transform="translate(-285.901 -356.127)" fill="#853d36"/>
          </g>
        </g>
        <g id="Grupo_1231988" data-name="Grupo 1231988">
          <g id="Grupo_1231975" data-name="Grupo 1231975" transform="translate(278.173 9.158)">
            <g id="Grupo_1231974" data-name="Grupo 1231974">
              <path id="Trazado_1194179" data-name="Trazado 1194179" d="M564.769,44.249c-5.346-2.416-9.069,2.186-9.069,2.186s.336-5.38-4.539-6.388-6.724,4.707-6.724,4.707-3.7-8.237-9.918-5.716-3.866,11.431-3.866,11.431-2.858-2.69-5.716-2.522S521.574,55,521.574,55h52.673S571.836,47.443,564.769,44.249Z" transform="translate(-521.574 -38.558)" fill="#ede7d7"/>
            </g>
          </g>
          <g id="Grupo_1231977" data-name="Grupo 1231977" transform="translate(0 126.917)">
            <g id="Grupo_1231976" data-name="Grupo 1231976">
              <path id="Trazado_1194180" data-name="Trazado 1194180" d="M0,270.808H17.786s-2.411-7.556-9.477-10.75A7.5,7.5,0,0,0,0,261.477v9.331Z" transform="translate(0 -259.356)" fill="#ede7d7"/>
            </g>
          </g>
          <g id="Grupo_1231979" data-name="Grupo 1231979" transform="translate(80.208 20.178)">
            <g id="Grupo_1231978" data-name="Grupo 1231978">
              <path id="Trazado_1194181" data-name="Trazado 1194181" d="M193.586,63.961c-5.345-2.416-9.069,2.186-9.069,2.186s.336-5.38-4.539-6.388-6.724,4.707-6.724,4.707-3.681-7.233-9.9-4.711-3.884,10.427-3.884,10.427-2.858-2.69-5.716-2.522-3.362,7.052-3.362,7.052h52.673S200.652,67.156,193.586,63.961Z" transform="translate(-150.39 -59.221)" fill="#ede7d7"/>
            </g>
          </g>
          <g id="Grupo_1231981" data-name="Grupo 1231981" transform="translate(185.392 55.565)">
            <g id="Grupo_1231980" data-name="Grupo 1231980">
              <path id="Trazado_1194182" data-name="Trazado 1194182" d="M390.805,131.263c-5.346-2.416-9.069,2.186-9.069,2.186s.336-5.38-4.539-6.388-6.724,4.707-6.724,4.707-3.7-8.237-9.919-5.716-3.866,11.431-3.866,11.431-2.858-2.69-5.716-2.522-3.362,7.052-3.362,7.052h52.673S397.872,134.457,390.805,131.263Z" transform="translate(-347.61 -125.572)" fill="#ede7d7"/>
            </g>
          </g>
          <g id="Grupo_1231983" data-name="Grupo 1231983" transform="translate(350.255 39.723)">
            <g id="Grupo_1231982" data-name="Grupo 1231982">
              <path id="Trazado_1194183" data-name="Trazado 1194183" d="M706.473,105.729c-.575-.406-1.156-.8-1.739-1.183-5.5-3.581-8.045,1.35-8.045,1.35s-3.5-11.47-12.426-9.877S677,109.4,677,109.4s-3.73-8.125-10.549-6.019-9.724,10.479-9.724,10.479l49.745-.538Z" transform="translate(-656.728 -95.867)" fill="#ede7d7"/>
            </g>
          </g>
          <g id="Grupo_1231985" data-name="Grupo 1231985" transform="translate(0)">
            <g id="Grupo_1231984" data-name="Grupo 1231984">
              <path id="Trazado_1194184" data-name="Trazado 1194184" d="M41.052,35.648a76.058,76.058,0,0,0-8.793-6.941c-4.636-3.02-6.786,1.139-6.786,1.139s-2.956-9.674-10.481-8.331S8.867,32.8,8.867,32.8,5.732,25.974,0,27.717v7.931Z" transform="translate(0 -21.387)" fill="#ede7d7"/>
            </g>
          </g>
          <g id="Grupo_1231987" data-name="Grupo 1231987" transform="translate(382.214 129.783)">
            <g id="Grupo_1231986" data-name="Grupo 1231986">
              <path id="Trazado_1194185" data-name="Trazado 1194185" d="M734.437,276.183H716.651s2.411-7.556,9.477-10.75a7.5,7.5,0,0,1,8.309,1.42Z" transform="translate(-716.651 -264.731)" fill="#ede7d7"/>
            </g>
          </g>
        </g>
      </g>
    </g>
  </g>
</svg>
