<svg xmlns="http://www.w3.org/2000/svg" xmlns:xlink="http://www.w3.org/1999/xlink" width="103" height="103" viewBox="0 0 103 103">
  <defs>
    <filter id="Trazado_978624" x="0" y="0" width="103" height="103" filterUnits="userSpaceOnUse">
      <feOffset dy="3" input="SourceAlpha"/>
      <feGaussianBlur stdDeviation="3" result="blur"/>
      <feFlood flood-opacity="0.161"/>
      <feComposite operator="in" in2="blur"/>
      <feComposite in="SourceGraphic"/>
    </filter>
  </defs>
  <g id="Grupo_1231706" data-name="Grupo 1231706" transform="translate(-196 -337)">
    <g id="Grupo_1231342" data-name="Grupo 1231342" transform="translate(0 -454.145)">
      <g id="Grupo_1229692" data-name="Grupo 1229692" transform="translate(-420 -35.855)">
        <g id="Grupo_1224934" data-name="Grupo 1224934" transform="translate(445 -6)">
          <g id="Grupo_1222589" data-name="Grupo 1222589">
            <g id="Grupo_1203109" data-name="Grupo 1203109" transform="translate(180 839)">
              <g id="Grupo_1176881" data-name="Grupo 1176881">
                <g id="Grupo_1175148" data-name="Grupo 1175148">
                  <g id="Grupo_1173798" data-name="Grupo 1173798">
                    <g id="Grupo_1171925" data-name="Grupo 1171925">
                      <g id="Grupo_1164524" data-name="Grupo 1164524">
                        <g id="Grupo_1144123" data-name="Grupo 1144123">
                          <g transform="matrix(1, 0, 0, 1, -9, -6)" filter="url(#Trazado_978624)">
                            <g id="Trazado_978624-2" data-name="Trazado 978624" transform="translate(9 6)" fill="#e7f2f8">
                              <path d="M 42.5 83.5 C 36.96437835693359 83.5 31.59512901306152 82.41617584228516 26.54141235351562 80.27863311767578 C 21.65934181213379 78.21369171142578 17.27447128295898 75.25723266601562 13.50862312316895 71.49137878417969 C 9.742764472961426 67.72553253173828 6.786305904388428 63.34066009521484 4.721364498138428 58.45858764648438 C 2.583823442459106 53.40486907958984 1.5 48.03562164306641 1.5 42.5 C 1.5 36.96437835693359 2.583823442459106 31.59512901306152 4.721364498138428 26.54141235351562 C 6.786305904388428 21.65934181213379 9.742764472961426 17.27447128295898 13.50862312316895 13.50862312316895 C 17.27447128295898 9.742764472961426 21.65934181213379 6.786305904388428 26.54141235351562 4.721364498138428 C 31.59512901306152 2.583823442459106 36.96437835693359 1.5 42.5 1.5 C 48.03562164306641 1.5 53.40486907958984 2.583823442459106 58.45858764648438 4.721364498138428 C 63.34066009521484 6.786305904388428 67.72553253173828 9.742764472961426 71.49137878417969 13.50862312316895 C 75.25723266601562 17.27447128295898 78.21369171142578 21.65934181213379 80.27863311767578 26.54141235351562 C 82.41617584228516 31.59512901306152 83.5 36.96437835693359 83.5 42.5 C 83.5 48.03562164306641 82.41617584228516 53.40486907958984 80.27863311767578 58.45858764648438 C 78.21369171142578 63.34066009521484 75.25723266601562 67.72553253173828 71.49137878417969 71.49137878417969 C 67.72553253173828 75.25723266601562 63.34066009521484 78.21369171142578 58.45858764648438 80.27863311767578 C 53.40486907958984 82.41617584228516 48.03562164306641 83.5 42.5 83.5 Z" stroke="none"/>
                              <path d="M 42.5 3 C 37.16621398925781 3 31.99356079101562 4.043960571289062 27.125732421875 6.102882385253906 C 22.42246627807617 8.092185974121094 18.19785308837891 10.94070434570312 14.56928253173828 14.56928253173828 C 10.94070434570312 18.19785308837891 8.092185974121094 22.42246627807617 6.102882385253906 27.125732421875 C 4.043960571289062 31.99356079101562 3 37.16621398925781 3 42.5 C 3 47.83378601074219 4.043960571289062 53.00643920898438 6.102882385253906 57.87425231933594 C 8.092185974121094 62.57753372192383 10.94070434570312 66.80213165283203 14.56928253173828 70.43071746826172 C 18.19786834716797 74.05929565429688 22.42246627807617 76.90781402587891 27.125732421875 78.89711761474609 C 31.99356079101562 80.95603942871094 37.16621398925781 82 42.5 82 C 47.83378601074219 82 53.00642395019531 80.95603942871094 57.87425231933594 78.89711761474609 C 62.57753372192383 76.90781402587891 66.80213165283203 74.05929565429688 70.43071746826172 70.43071746826172 C 74.05929565429688 66.80213165283203 76.90781402587891 62.57753372192383 78.89711761474609 57.87425231933594 C 80.95603942871094 53.00642395019531 82 47.83378601074219 82 42.5 C 82 37.16621398925781 80.95603942871094 31.99356079101562 78.89711761474609 27.125732421875 C 76.90781402587891 22.42246627807617 74.05929565429688 18.19786834716797 70.43071746826172 14.56928253173828 C 66.80213165283203 10.94070434570312 62.57753372192383 8.092185974121094 57.87425231933594 6.102882385253906 C 53.00643920898438 4.043960571289062 47.83378601074219 3 42.5 3 M 42.5 0 C 65.97209167480469 0 85 19.02789306640625 85 42.5 C 85 65.97209167480469 65.97209167480469 85 42.5 85 C 19.02789306640625 85 0 65.97209167480469 0 42.5 C 0 19.02789306640625 19.02789306640625 0 42.5 0 Z" stroke="none" fill="#248abf"/>
                            </g>
                          </g>
                        </g>
                      </g>
                    </g>
                  </g>
                </g>
              </g>
            </g>
          </g>
        </g>
      </g>
    </g>
    <g id="corte_2_" data-name="corte (2)" transform="translate(220.453 355.917)">
      <g id="Grupo_1231705" data-name="Grupo 1231705" transform="translate(0.798 0.794)">
        <path id="Trazado_1192753" data-name="Trazado 1192753" d="M108.913,21.734l-.919-.242-1.127.242-19.673,12h39.249l1.107-.558Z" transform="translate(-78.777 -20.015)" fill="#b7aeb8"/>
        <path id="Trazado_1192754" data-name="Trazado 1192754" d="M0,0H5.49V26.065H0Z" transform="translate(12.17 46.127) rotate(180)" fill="#7b6c79"/>
        <path id="Trazado_1192755" data-name="Trazado 1192755" d="M0,0H5.49V26.065H0Z" transform="translate(34.565 46.127) rotate(180)" fill="#938493"/>
        <path id="Trazado_1192756" data-name="Trazado 1192756" d="M0,0H5.49V26.065H0Z" transform="translate(45.762 46.127) rotate(180)" fill="#938493"/>
        <path id="Trazado_1192757" data-name="Trazado 1192757" d="M0,0H5.49V26.065H0Z" transform="translate(23.367 46.127) rotate(180)" fill="#7b6c79"/>
        <path id="Trazado_1192758" data-name="Trazado 1192758" d="M110.108,159.532v4.26l.4.272.282.129.2.039h36.131a.925.925,0,0,0,.925-.925v-3.776H110.108Z" transform="translate(-99.27 -143.474)" fill="#b7aeb8"/>
        <g id="Grupo_1231704" data-name="Grupo 1231704" transform="translate(3.723)">
          <path id="Trazado_1192759" data-name="Trazado 1192759" d="M49.961,163.309v-3.776H42.753v3.776a.925.925,0,0,0,.925.925h7.208A.925.925,0,0,1,49.961,163.309Z" transform="translate(-42.753 -143.475)" fill="#938493"/>
          <path id="Trazado_1192760" data-name="Trazado 1192760" d="M66.689,9.776a3.852,3.852,0,0,1,2.477-.545L67.3,8.086a3.851,3.851,0,0,0-4.044,0L42.753,20.67l1.058.558H48.03Z" transform="translate(-42.753 -7.512)" fill="#938493"/>
          <path id="Trazado_1192761" data-name="Trazado 1192761" d="M209.555,85.729l-.583-.166-1.268.283-8.187,5.189h17.007l.766-.558Z" transform="translate(-182.958 -77.319)" fill="#938493"/>
        </g>
        <path id="Trazado_1192762" data-name="Trazado 1192762" d="M158.1,72.2a3.859,3.859,0,0,1,2.009-.573l-2.049-1.258a3.851,3.851,0,0,0-4.044,0l-9.784,6.005.454.558h5.7Z" transform="translate(-129.788 -63.218)" fill="#7b6c79"/>
        <path id="Trazado_1192763" data-name="Trazado 1192763" d="M119.689,132.082H75.94l-.2.043-.462.489v2.647l.271.416.479.205h43.664a.925.925,0,0,0,.925-.925v-1.951A.925.925,0,0,0,119.689,132.082Z" transform="translate(-68.117 -118.924)" fill="#ccc6ce"/>
        <path id="Trazado_1192764" data-name="Trazado 1192764" d="M14.713,134.957v-1.951a.925.925,0,0,1,.925-.925H8.43a.925.925,0,0,0-.925.925v1.951a.925.925,0,0,0,.925.925h7.208A.925.925,0,0,1,14.713,134.957Z" transform="translate(-7.505 -118.924)" fill="#b7aeb8"/>
        <path id="Trazado_1192765" data-name="Trazado 1192765" d="M110.108,437.258V433l.4-.272.282-.129.2-.039h36.131a.925.925,0,0,1,.925.925v3.776H110.108Z" transform="translate(-99.27 -387.661)" fill="#b7aeb8"/>
        <path id="Trazado_1192766" data-name="Trazado 1192766" d="M49.961,433.482v3.776H42.753v-3.776a.925.925,0,0,1,.925-.925h7.208A.925.925,0,0,0,49.961,433.482Z" transform="translate(-39.03 -387.66)" fill="#938493"/>
        <path id="Trazado_1192767" data-name="Trazado 1192767" d="M119.689,472.333H75.94l-.2-.043-.462-.489v-2.647l.271-.416.479-.205h43.664a.925.925,0,0,1,.925.925v1.951A.925.925,0,0,1,119.689,472.333Z" transform="translate(-68.117 -419.836)" fill="#ccc6ce"/>
        <path id="Trazado_1192768" data-name="Trazado 1192768" d="M14.713,469.457v1.951a.925.925,0,0,0,.925.925H8.43a.925.925,0,0,1-.925-.925v-1.951a.925.925,0,0,1,.925-.925h7.208A.925.925,0,0,0,14.713,469.457Z" transform="translate(-7.505 -419.835)" fill="#b7aeb8"/>
      </g>
      <path id="Trazado_1192769" data-name="Trazado 1192769" d="M1.723,54.083H25.2a.792.792,0,1,0,0-1.584H1.723a.133.133,0,0,1-.132-.132V50.416a.133.133,0,0,1,.132-.133H52.37a.133.133,0,0,1,.133.133v1.951a.133.133,0,0,1-.133.132H28.9a.792.792,0,0,0,0,1.584H52.37a1.719,1.719,0,0,0,1.717-1.717V50.416A1.719,1.719,0,0,0,52.37,48.7H50.364V46.616A1.719,1.719,0,0,0,48.647,44.9H47.353V35.47a.792.792,0,0,0-1.584,0V44.9H41.862V22.344h3.906v9.429a.792.792,0,0,0,1.584,0V22.344h1.294a1.719,1.719,0,0,0,1.717-1.717V18.544H52.37a1.719,1.719,0,0,0,1.717-1.717V14.877A1.719,1.719,0,0,0,52.37,13.16H49.8L29.483.692a4.637,4.637,0,0,0-4.873,0L4.3,13.16H1.723A1.719,1.719,0,0,0,.006,14.877v1.951a1.719,1.719,0,0,0,1.717,1.717H3.729v2.083a1.719,1.719,0,0,0,1.717,1.717h1.24V44.9H5.446a1.719,1.719,0,0,0-1.717,1.717V48.7H1.723A1.719,1.719,0,0,0,.006,50.415v1.951a1.719,1.719,0,0,0,1.717,1.717ZM25.439,2.043a3.059,3.059,0,0,1,3.215,0L46.767,13.16h-7.69L29.483,7.271a4.636,4.636,0,0,0-4.873,0L15.016,13.16H7.326ZM36.048,13.16h-18l7.394-4.538h0a3.059,3.059,0,0,1,3.215,0ZM1.723,16.96a.133.133,0,0,1-.132-.132V14.877a.133.133,0,0,1,.132-.133H52.37a.133.133,0,0,1,.133.133v1.951a.133.133,0,0,1-.133.132Zm3.723,3.8a.133.133,0,0,1-.132-.132V18.544H48.78v2.083a.133.133,0,0,1-.133.132H5.446Zm34.832,1.584V44.9H36.155V22.344Zm-5.707,0V44.9H30.665V22.344Zm-5.49,0V44.9H24.958V22.344Zm-5.707,0V44.9H19.467V22.344Zm-5.49,0V44.9H13.76V22.344Zm-5.707,0V44.9H8.27V22.344ZM5.314,46.616a.133.133,0,0,1,.132-.133h43.2a.133.133,0,0,1,.133.133V48.7H5.314Z" transform="translate(0)"/>
    </g>
  </g>
</svg>
