<svg xmlns="http://www.w3.org/2000/svg" xmlns:xlink="http://www.w3.org/1999/xlink" width="103" height="103" viewBox="0 0 103 103">
  <defs>
    <filter id="Trazado_978624" x="0" y="0" width="103" height="103" filterUnits="userSpaceOnUse">
      <feOffset dy="3" input="SourceAlpha"/>
      <feGaussianBlur stdDeviation="3" result="blur"/>
      <feFlood flood-opacity="0.161"/>
      <feComposite operator="in" in2="blur"/>
      <feComposite in="SourceGraphic"/>
    </filter>
  </defs>
  <g id="Grupo_1231990" data-name="Grupo 1231990" transform="translate(-205 -8084)">
    <g id="Grupo_1231493" data-name="Grupo 1231493" transform="translate(214 8090)">
      <g id="Grupo_1226966" data-name="Grupo 1226966">
        <g id="Grupo_1222970" data-name="Grupo 1222970">
          <g id="Grupo_1222589" data-name="Grupo 1222589">
            <g id="Grupo_1203109" data-name="Grupo 1203109">
              <g id="Grupo_1176881" data-name="Grupo 1176881">
                <g id="Grupo_1175148" data-name="Grupo 1175148">
                  <g id="Grupo_1173798" data-name="Grupo 1173798">
                    <g id="Grupo_1171925" data-name="Grupo 1171925">
                      <g id="Grupo_1164524" data-name="Grupo 1164524">
                        <g id="Grupo_1144123" data-name="Grupo 1144123">
                          <g transform="matrix(1, 0, 0, 1, -9, -6)" filter="url(#Trazado_978624)">
                            <g id="Trazado_978624-2" data-name="Trazado 978624" transform="translate(9 6)" fill="#e7f2f8">
                              <path d="M 42.5 83.5 C 36.96437835693359 83.5 31.59512901306152 82.41617584228516 26.54141235351562 80.27863311767578 C 21.65934181213379 78.21369171142578 17.27447128295898 75.25723266601562 13.50862312316895 71.49137878417969 C 9.742764472961426 67.72553253173828 6.786305904388428 63.34066009521484 4.721364498138428 58.45858764648438 C 2.583823442459106 53.40486907958984 1.5 48.03562164306641 1.5 42.5 C 1.5 36.96437835693359 2.583823442459106 31.59512901306152 4.721364498138428 26.54141235351562 C 6.786305904388428 21.65934181213379 9.742764472961426 17.27447128295898 13.50862312316895 13.50862312316895 C 17.27447128295898 9.742764472961426 21.65934181213379 6.786305904388428 26.54141235351562 4.721364498138428 C 31.59512901306152 2.583823442459106 36.96437835693359 1.5 42.5 1.5 C 48.03562164306641 1.5 53.40486907958984 2.583823442459106 58.45858764648438 4.721364498138428 C 63.34066009521484 6.786305904388428 67.72553253173828 9.742764472961426 71.49137878417969 13.50862312316895 C 75.25723266601562 17.27447128295898 78.21369171142578 21.65934181213379 80.27863311767578 26.54141235351562 C 82.41617584228516 31.59512901306152 83.5 36.96437835693359 83.5 42.5 C 83.5 48.03562164306641 82.41617584228516 53.40486907958984 80.27863311767578 58.45858764648438 C 78.21369171142578 63.34066009521484 75.25723266601562 67.72553253173828 71.49137878417969 71.49137878417969 C 67.72553253173828 75.25723266601562 63.34066009521484 78.21369171142578 58.45858764648438 80.27863311767578 C 53.40486907958984 82.41617584228516 48.03562164306641 83.5 42.5 83.5 Z" stroke="none"/>
                              <path d="M 42.5 3 C 37.16621398925781 3 31.99356079101562 4.043960571289062 27.125732421875 6.102882385253906 C 22.42246627807617 8.092185974121094 18.19785308837891 10.94070434570312 14.56928253173828 14.56928253173828 C 10.94070434570312 18.19785308837891 8.092185974121094 22.42246627807617 6.102882385253906 27.125732421875 C 4.043960571289062 31.99356079101562 3 37.16621398925781 3 42.5 C 3 47.83378601074219 4.043960571289062 53.00643920898438 6.102882385253906 57.87425231933594 C 8.092185974121094 62.57753372192383 10.94070434570312 66.80213165283203 14.56928253173828 70.43071746826172 C 18.19786834716797 74.05929565429688 22.42246627807617 76.90781402587891 27.125732421875 78.89711761474609 C 31.99356079101562 80.95603942871094 37.16621398925781 82 42.5 82 C 47.83378601074219 82 53.00642395019531 80.95603942871094 57.87425231933594 78.89711761474609 C 62.57753372192383 76.90781402587891 66.80213165283203 74.05929565429688 70.43071746826172 70.43071746826172 C 74.05929565429688 66.80213165283203 76.90781402587891 62.57753372192383 78.89711761474609 57.87425231933594 C 80.95603942871094 53.00642395019531 82 47.83378601074219 82 42.5 C 82 37.16621398925781 80.95603942871094 31.99356079101562 78.89711761474609 27.125732421875 C 76.90781402587891 22.42246627807617 74.05929565429688 18.19786834716797 70.43071746826172 14.56928253173828 C 66.80213165283203 10.94070434570312 62.57753372192383 8.092185974121094 57.87425231933594 6.102882385253906 C 53.00643920898438 4.043960571289062 47.83378601074219 3 42.5 3 M 42.5 0 C 65.97209167480469 0 85 19.02789306640625 85 42.5 C 85 65.97209167480469 65.97209167480469 85 42.5 85 C 19.02789306640625 85 0 65.97209167480469 0 42.5 C 0 19.02789306640625 19.02789306640625 0 42.5 0 Z" stroke="none" fill="#248abf"/>
                            </g>
                          </g>
                        </g>
                      </g>
                    </g>
                  </g>
                </g>
              </g>
            </g>
          </g>
        </g>
      </g>
    </g>
    <g id="leyes_1_" data-name="leyes (1)" transform="translate(229.204 8105.118)">
      <path id="Trazado_1194186" data-name="Trazado 1194186" d="M69.633,59.835a4.183,4.183,0,0,1-2.964-1.229l-.145-.145,1.286-1.286.145.145a2.365,2.365,0,0,0,2.741.444,14.37,14.37,0,0,1,11.3-.649,12.52,12.52,0,0,0,8.544,0,14.38,14.38,0,0,1,11.3.649,2.365,2.365,0,0,0,2.741-.444l.146-.145,1.286,1.286-.145.145a4.189,4.189,0,0,1-4.84.785,12.557,12.557,0,0,0-9.864-.568,14.346,14.346,0,0,1-9.789,0,12.555,12.555,0,0,0-9.864.568,4.192,4.192,0,0,1-1.873.444Zm0,0" transform="translate(-58.961 -49.782)" fill="#ffa912"/>
      <path id="Trazado_1194187" data-name="Trazado 1194187" d="M149.637,296.215h10.914a5.458,5.458,0,0,1,5.457,5.457H144.18A5.457,5.457,0,0,1,149.637,296.215Zm0,0" transform="translate(-127.788 -262.459)" fill="#ffb531"/>
      <path id="Trazado_1194188" data-name="Trazado 1194188" d="M259.818,296.215H256.18a5.458,5.458,0,0,1,5.457,5.457h3.638A5.458,5.458,0,0,0,259.818,296.215Zm0,0" transform="translate(-227.055 -262.459)" fill="#ffa912"/>
      <g id="Grupo_1231989" data-name="Grupo 1231989" transform="translate(0.93 0.998)">
        <path id="Trazado_1194189" data-name="Trazado 1194189" d="M221.635,10.835a2.729,2.729,0,1,0-4.548,2.02V40.849h3.638V12.855A2.708,2.708,0,0,0,221.635,10.835Zm0,0" transform="translate(-192.53 -8.092)" fill="#ffb531"/>
        <path id="Trazado_1194190" data-name="Trazado 1194190" d="M8.18,192.215H26.37a5.457,5.457,0,0,1-5.457,5.457H13.637A5.457,5.457,0,0,1,8.18,192.215Zm0,0" transform="translate(-8.18 -171.282)" fill="#ffb531"/>
        <path id="Trazado_1194191" data-name="Trazado 1194191" d="M312.18,192.215h18.191a5.457,5.457,0,0,1-5.457,5.457h-7.276A5.457,5.457,0,0,1,312.18,192.215Zm0,0" transform="translate(-277.617 -171.282)" fill="#ffb531"/>
      </g>
      <path id="Trazado_1194192" data-name="Trazado 1194192" d="M397.637,192.215a5.457,5.457,0,0,1-5.457,5.457h3.638a5.457,5.457,0,0,0,5.457-5.457Zm0,0" transform="translate(-347.593 -170.283)" fill="#ffa912"/>
      <path id="Trazado_1194193" data-name="Trazado 1194193" d="M10.764,72.776a.943.943,0,0,0-1.479,0L.19,85.509a.91.91,0,1,0,1.479,1.057l8.356-11.7,8.356,11.7a.91.91,0,1,0,1.479-1.057Zm0,0" transform="translate(0 -64.106)" fill="#d6d6d4"/>
      <path id="Trazado_1194194" data-name="Trazado 1194194" d="M323.86,85.509l-9.1-12.734a.943.943,0,0,0-1.479,0l-9.1,12.734a.91.91,0,1,0,1.479,1.057l8.356-11.7,8.356,11.7a.91.91,0,0,0,1.479-1.057Zm0,0" transform="translate(-269.438 -64.106)" fill="#d6d6d4"/>
      <path id="Trazado_1194195" data-name="Trazado 1194195" d="M93.637,192.215a5.457,5.457,0,0,1-5.457,5.457h3.638a5.457,5.457,0,0,0,5.457-5.457Zm0,0" transform="translate(-78.155 -170.283)" fill="#ffa912"/>
      <path id="Trazado_1194196" data-name="Trazado 1194196" d="M74.5,351.491H49.033a8.134,8.134,0,0,1,0-7.276H74.5A8.134,8.134,0,0,0,74.5,351.491Zm0,0" transform="translate(-42.698 -305.002)" fill="#803f37"/>
      <path id="Trazado_1194197" data-name="Trazado 1194197" d="M74.9,344.64l.225-.425H73.112a9.08,9.08,0,0,0,0,7.276h2.014l-.215-.406a7.255,7.255,0,0,1-.008-6.445Zm0,0" transform="translate(-64.126 -305.002)" fill="#ffb531"/>
      <path id="Trazado_1194198" data-name="Trazado 1194198" d="M234.435,344.656l.245-.441h-2.03a9.083,9.083,0,0,0,0,7.276h2.025l-.226-.406A7.25,7.25,0,0,1,234.435,344.656Zm0,0" transform="translate(-205.526 -305.002)" fill="#ffb531"/>
      <path id="Trazado_1194199" data-name="Trazado 1194199" d="M273.033,344.215a8.134,8.134,0,0,0,0,7.276h17.281a8.134,8.134,0,0,1,0-7.276Zm0,0" transform="translate(-241.231 -305.002)" fill="#e0e0de"/>
      <path id="Trazado_1194200" data-name="Trazado 1194200" d="M111.73,368.215h10.914v1.819H111.73Zm0,0" transform="translate(-99.028 -326.273)" fill="#f98500"/>
      <path id="Trazado_1194201" data-name="Trazado 1194201" d="M289.522,368.215H272.241a8.247,8.247,0,0,0,0,1.819h17.281A8.254,8.254,0,0,1,289.522,368.215Zm0,0" transform="translate(-241.245 -326.273)" fill="#d6d6d4"/>
      <path id="Trazado_1194202" data-name="Trazado 1194202" d="M74.5,415.491H49.033a8.134,8.134,0,0,1,0-7.276H74.5A8.134,8.134,0,0,0,74.5,415.491Zm0,0" transform="translate(-42.698 -361.726)" fill="#773730"/>
      <path id="Trazado_1194203" data-name="Trazado 1194203" d="M74.9,408.64l.225-.425H73.112a9.08,9.08,0,0,0,0,7.276h2.014l-.215-.406a7.255,7.255,0,0,1-.008-6.445Zm0,0" transform="translate(-64.126 -361.725)" fill="#ffb531"/>
      <path id="Trazado_1194204" data-name="Trazado 1194204" d="M234.435,408.656l.245-.441h-2.03a9.083,9.083,0,0,0,0,7.276h2.025l-.226-.406A7.25,7.25,0,0,1,234.435,408.656Zm0,0" transform="translate(-205.526 -361.726)" fill="#ffb531"/>
      <path id="Trazado_1194205" data-name="Trazado 1194205" d="M273.033,408.215a8.134,8.134,0,0,0,0,7.276h17.281a8.134,8.134,0,0,1,0-7.276Zm0,0" transform="translate(-241.231 -361.726)" fill="#d6d6d4"/>
      <path id="Trazado_1194206" data-name="Trazado 1194206" d="M111.73,432.215h10.914v1.819H111.73Zm0,0" transform="translate(-99.028 -382.997)" fill="#f98500"/>
      <path id="Trazado_1194207" data-name="Trazado 1194207" d="M289.522,432.215H272.241a8.247,8.247,0,0,0,0,1.819h17.281A8.255,8.255,0,0,1,289.522,432.215Zm0,0" transform="translate(-241.245 -382.997)" fill="#c7c7c5"/>
      <path id="Trazado_1194208" data-name="Trazado 1194208" d="M111.73,432.215h10.914v1.819H111.73Zm0,0" transform="translate(-99.028 -382.997)"/>
      <path id="Trazado_1194209" data-name="Trazado 1194209" d="M111.73,368.215h10.914v1.819H111.73Zm0,0" transform="translate(-99.028 -326.273)"/>
      <path id="Trazado_1194210" data-name="Trazado 1194210" d="M54.582,21.4,46.1,9.523a4.162,4.162,0,0,0,.968-.7l.146-.145L45.923,7.391l-.146.145a2.378,2.378,0,0,1-2.745.447,14.476,14.476,0,0,0-11.292-.649,12.261,12.261,0,0,1-1.546.438V6.133a3.638,3.638,0,1,0-5.457,0V7.77A12.207,12.207,0,0,1,23.2,7.333,14.467,14.467,0,0,0,11.9,7.98a2.425,2.425,0,0,1-2.749-.445l-.145-.145L7.723,8.675l.144.146a4.168,4.168,0,0,0,.97.7L.35,21.4l.012.009a.89.89,0,0,0-.183.519A6.375,6.375,0,0,0,6.547,28.3h7.276a6.375,6.375,0,0,0,6.367-6.367.889.889,0,0,0-.182-.519l.013-.009-8.2-11.472a4.4,4.4,0,0,0,.883-.319,12.627,12.627,0,0,1,9.862-.569,14.2,14.2,0,0,0,2.17.579V32.846H22.009A6.373,6.373,0,0,0,15.715,38.3H6.5a.91.91,0,0,0-.813.5,9.08,9.08,0,0,0-.175,7.683,9.081,9.081,0,0,0,.175,7.683.91.91,0,0,0,.813.5H49.244a.909.909,0,0,0,.814-1.316,7.261,7.261,0,0,1,0-6.463,16.168,16.168,0,0,1,.063-.18.823.823,0,0,0,.02-.114.687.687,0,0,0,0-.226.823.823,0,0,0-.02-.114.732.732,0,0,0-.037-.106.685.685,0,0,0-.025-.074,7.261,7.261,0,0,1,0-6.463.91.91,0,0,0-.814-1.316H39.217a6.372,6.372,0,0,0-6.294-5.457H30.195V9.622a14.37,14.37,0,0,0,2.17-.58,12.628,12.628,0,0,1,9.858.57,4.246,4.246,0,0,0,.882.32L34.913,21.4l.012.009a.89.89,0,0,0-.183.519A6.375,6.375,0,0,0,41.109,28.3h7.276a6.375,6.375,0,0,0,6.367-6.367.889.889,0,0,0-.182-.519Zm-44.4-10.64,7.328,10.258H2.857Zm3.638,15.716H6.547A4.555,4.555,0,0,1,2.09,22.841H18.28a4.555,4.555,0,0,1-4.457,3.638ZM47.532,43.761A9.039,9.039,0,0,0,47.9,45.58H32.559c-.021-.053-.047-.1-.067-.157-.035-.091-.066-.182-.1-.273-.054-.158-.1-.319-.142-.48-.024-.091-.048-.182-.068-.273-.037-.175-.067-.351-.091-.528,0-.034-.01-.067-.015-.1Zm0,5.457H32.082a.774.774,0,0,1,.015-.1c.024-.177.054-.353.091-.528.02-.091.044-.182.068-.273.042-.161.091-.322.142-.481.031-.091.062-.182.1-.273.02-.053.046-.1.068-.157H47.9a9.019,9.019,0,0,0-.366,1.811ZM30.443,40.759l-.007.024a9.138,9.138,0,0,0-.158.91c-.01.078-.018.155-.026.233-.03.3-.051.606-.052.91v.024c0,.3.022.607.052.91.008.079.016.155.026.232a9.138,9.138,0,0,0,.158.91l.007.024q.075.323.175.637H28.873a7.252,7.252,0,0,1,0-5.457h1.744q-.1.327-.175.651ZM10.73,47.4H26.943a9.094,9.094,0,0,0,0,5.457H10.73A7.256,7.256,0,0,1,10.73,47.4ZM26.941,45.58H10.73a7.256,7.256,0,0,1,0-5.457H26.943a9.094,9.094,0,0,0,0,5.457ZM7.082,40.122H8.8a9.094,9.094,0,0,0,0,5.457H7.082a7.269,7.269,0,0,1,0-5.457Zm0,7.276H8.8a9.094,9.094,0,0,0,0,5.457H7.082a7.269,7.269,0,0,1,0-5.457Zm21.791,5.457a7.252,7.252,0,0,1,0-5.457h1.744q-.1.318-.175.637l-.007.024a9.139,9.139,0,0,0-.158.91c-.01.078-.018.155-.026.233-.03.3-.051.606-.052.91v.024c0,.3.022.607.052.91.008.079.016.155.026.232a9.139,9.139,0,0,0,.158.91l.007.024q.075.323.175.637Zm3.686,0c-.021-.053-.047-.1-.067-.157-.035-.091-.066-.182-.1-.273-.054-.158-.1-.319-.142-.48-.024-.091-.048-.182-.068-.273-.037-.175-.067-.351-.091-.528,0-.034-.01-.067-.015-.1H47.532a9.044,9.044,0,0,0,.364,1.819ZM47.531,41.941H32.082a.775.775,0,0,1,.015-.1c.024-.177.054-.353.091-.528.02-.091.044-.182.068-.273.042-.161.091-.322.142-.481.031-.091.062-.182.1-.273.02-.053.046-.1.068-.157H47.9a9.019,9.019,0,0,0-.366,1.811ZM37.38,38.3H17.552a4.555,4.555,0,0,1,4.457-3.638H32.923A4.555,4.555,0,0,1,37.38,38.3ZM26.557,32.846V5.762a.912.912,0,0,0-.3-.676,1.793,1.793,0,0,1-.609-1.345,1.819,1.819,0,0,1,3.638,0,1.8,1.8,0,0,1-.61,1.345.91.91,0,0,0-.3.676V32.846ZM52.075,21.022H37.419l7.328-10.258Zm-3.69,5.457H41.109a4.555,4.555,0,0,1-4.457-3.638h16.19a4.555,4.555,0,0,1-4.457,3.638Zm0,0" transform="translate(-0.16)"/>
    </g>
  </g>
</svg>
