<svg xmlns="http://www.w3.org/2000/svg" xmlns:xlink="http://www.w3.org/1999/xlink" width="103" height="103" viewBox="0 0 103 103">
  <defs>
    <filter id="Trazado_978624" x="0" y="0" width="103" height="103" filterUnits="userSpaceOnUse">
      <feOffset dy="3" input="SourceAlpha"/>
      <feGaussianBlur stdDeviation="3" result="blur"/>
      <feFlood flood-opacity="0.161"/>
      <feComposite operator="in" in2="blur"/>
      <feComposite in="SourceGraphic"/>
    </filter>
  </defs>
  <g id="Grupo_1232018" data-name="Grupo 1232018" transform="translate(-722 -8868)">
    <g id="Grupo_1231494" data-name="Grupo 1231494" transform="translate(731 8874)">
      <g id="Grupo_1226966" data-name="Grupo 1226966">
        <g id="Grupo_1222970" data-name="Grupo 1222970">
          <g id="Grupo_1222589" data-name="Grupo 1222589">
            <g id="Grupo_1203109" data-name="Grupo 1203109">
              <g id="Grupo_1176881" data-name="Grupo 1176881">
                <g id="Grupo_1175148" data-name="Grupo 1175148">
                  <g id="Grupo_1173798" data-name="Grupo 1173798">
                    <g id="Grupo_1171925" data-name="Grupo 1171925">
                      <g id="Grupo_1164524" data-name="Grupo 1164524">
                        <g id="Grupo_1144123" data-name="Grupo 1144123">
                          <g transform="matrix(1, 0, 0, 1, -9, -6)" filter="url(#Trazado_978624)">
                            <g id="Trazado_978624-2" data-name="Trazado 978624" transform="translate(9 6)" fill="#fcf5f0">
                              <path d="M 42.5 83.5 C 36.96437835693359 83.5 31.59512901306152 82.41617584228516 26.54141235351562 80.27863311767578 C 21.65934181213379 78.21369171142578 17.27448272705078 75.25723266601562 13.50862312316895 71.49137878417969 C 9.742776870727539 67.72553253173828 6.786305904388428 63.34066009521484 4.721364498138428 58.45858764648438 C 2.583823442459106 53.40486907958984 1.5 48.03562164306641 1.5 42.5 C 1.5 36.96437835693359 2.583823442459106 31.59512901306152 4.721364498138428 26.54141235351562 C 6.786305904388428 21.65934181213379 9.742776870727539 17.27447128295898 13.50862312316895 13.50862312316895 C 17.27448272705078 9.742764472961426 21.65934181213379 6.786305904388428 26.54141235351562 4.721364498138428 C 31.59512901306152 2.583823442459106 36.96437835693359 1.5 42.5 1.5 C 48.03562164306641 1.5 53.40486907958984 2.583823442459106 58.45858764648438 4.721364498138428 C 63.34066009521484 6.786305904388428 67.72553253173828 9.742764472961426 71.49137878417969 13.50862312316895 C 75.25723266601562 17.27447128295898 78.21369171142578 21.65934181213379 80.27863311767578 26.54141235351562 C 82.41617584228516 31.59512901306152 83.5 36.96437835693359 83.5 42.5 C 83.5 48.03562164306641 82.41617584228516 53.40486907958984 80.27863311767578 58.45858764648438 C 78.21369171142578 63.34066009521484 75.25723266601562 67.72553253173828 71.49137878417969 71.49137878417969 C 67.72553253173828 75.25723266601562 63.34066009521484 78.21369171142578 58.45858764648438 80.27863311767578 C 53.40486907958984 82.41617584228516 48.03562164306641 83.5 42.5 83.5 Z" stroke="none"/>
                              <path d="M 42.5 3 C 37.16621398925781 3 31.99356079101562 4.043960571289062 27.125732421875 6.102882385253906 C 22.42246627807617 8.092185974121094 18.19785308837891 10.94070434570312 14.56928253173828 14.56928253173828 C 10.94070434570312 18.19785308837891 8.092185974121094 22.42246627807617 6.102882385253906 27.125732421875 C 4.043960571289062 31.99356079101562 3 37.16621398925781 3 42.5 C 3 47.83378601074219 4.043960571289062 53.00643920898438 6.102882385253906 57.87425231933594 C 8.092185974121094 62.57753372192383 10.94070434570312 66.80213165283203 14.56928253173828 70.43071746826172 C 18.19786834716797 74.05929565429688 22.42246627807617 76.90781402587891 27.125732421875 78.89711761474609 C 31.99356079101562 80.95603942871094 37.16621398925781 82 42.5 82 C 47.83378601074219 82 53.00643920898438 80.95603942871094 57.874267578125 78.89711761474609 C 62.57753372192383 76.90781402587891 66.80213165283203 74.05929565429688 70.43071746826172 70.43071746826172 C 74.05929565429688 66.80213165283203 76.90781402587891 62.57753372192383 78.89711761474609 57.87425231933594 C 80.95603942871094 53.00643920898438 82 47.83378601074219 82 42.5 C 82 37.16621398925781 80.95603942871094 31.99356079101562 78.89711761474609 27.125732421875 C 76.90781402587891 22.42246627807617 74.05929565429688 18.19785308837891 70.43071746826172 14.56928253173828 C 66.80214691162109 10.94070434570312 62.57753372192383 8.092185974121094 57.874267578125 6.102882385253906 C 53.00643920898438 4.043960571289062 47.83378601074219 3 42.5 3 M 42.5 0 C 65.97210693359375 0 85 19.02789306640625 85 42.5 C 85 65.97209167480469 65.97210693359375 85 42.5 85 C 19.02789306640625 85 0 65.97209167480469 0 42.5 C 0 19.02789306640625 19.02789306640625 0 42.5 0 Z" stroke="none" fill="#eca675"/>
                            </g>
                          </g>
                        </g>
                      </g>
                    </g>
                  </g>
                </g>
              </g>
            </g>
          </g>
        </g>
      </g>
    </g>
    <g id="ley_10_" data-name="ley (10)" transform="translate(718.865 8890.604)">
      <g id="Grupo_1231991" data-name="Grupo 1231991" transform="translate(47.783 2.183)">
        <path id="Trazado_1194211" data-name="Trazado 1194211" d="M188.27,21.583h13.7V34.954h-13.7Z" transform="translate(-188.27 -21.583)" fill="#ffe07d"/>
      </g>
      <g id="Grupo_1231992" data-name="Grupo 1231992" transform="translate(47.783 2.183)">
        <path id="Trazado_1194212" data-name="Trazado 1194212" d="M197.925,21.583v7.693a3.655,3.655,0,0,1-3.655,3.655h-6v2.023h13.7V21.583Z" transform="translate(-188.27 -21.583)" fill="#ffd064"/>
      </g>
      <g id="Grupo_1231993" data-name="Grupo 1231993" transform="translate(43.922 0.759)">
        <path id="Trazado_1194213" data-name="Trazado 1194213" d="M152.54,23.72h-1.014A1.423,1.423,0,0,1,150.1,22.3V8.923A1.423,1.423,0,0,1,151.526,7.5h1.014a1.423,1.423,0,0,1,1.423,1.423V22.3A1.423,1.423,0,0,1,152.54,23.72Z" transform="translate(-150.103 -7.5)" fill="#e2bcaf"/>
      </g>
      <g id="Grupo_1231994" data-name="Grupo 1231994" transform="translate(38.629 0.759)">
        <path id="Trazado_1194214" data-name="Trazado 1194214" d="M99.2,23.72A1.425,1.425,0,0,1,97.771,22.3V8.925a1.425,1.425,0,1,1,2.849,0V22.3A1.425,1.425,0,0,1,99.2,23.72Z" transform="translate(-97.771 -7.5)" fill="#e2bcaf"/>
      </g>
      <g id="Grupo_1231995" data-name="Grupo 1231995" transform="translate(50.318 15.554)">
        <path id="Trazado_1194215" data-name="Trazado 1194215" d="M221.963,155.192a1.425,1.425,0,0,1-1.425,1.425h-5.782a1.425,1.425,0,0,1,0-2.849h5.782A1.425,1.425,0,0,1,221.963,155.192Z" transform="translate(-213.332 -153.767)" fill="#e2bcaf"/>
      </g>
      <g id="Grupo_1231996" data-name="Grupo 1231996" transform="translate(41.478 2.183)">
        <path id="Trazado_1194216" data-name="Trazado 1194216" d="M127.159,33.485a1.222,1.222,0,0,0-1.222,1.222V21.83a1.222,1.222,0,1,0,2.444,0V34.707A1.222,1.222,0,0,0,127.159,33.485Z" transform="translate(-125.937 -21.583)" fill="#d09080"/>
      </g>
      <g id="Grupo_1231997" data-name="Grupo 1231997" transform="translate(35.803 2.183)">
        <path id="Trazado_1194217" data-name="Trazado 1194217" d="M72.176,34.954h.487V21.583h-.487a2.339,2.339,0,0,0-2.339,2.339v8.693A2.339,2.339,0,0,0,72.176,34.954Z" transform="translate(-69.837 -21.583)" fill="#d09080"/>
      </g>
      <g id="Grupo_1231998" data-name="Grupo 1231998" transform="translate(61.484 0.759)">
        <path id="Trazado_1194218" data-name="Trazado 1194218" d="M325.142,23.72h1.014A1.423,1.423,0,0,0,327.58,22.3V8.923A1.423,1.423,0,0,0,326.156,7.5h-1.014a1.423,1.423,0,0,0-1.423,1.423V22.3A1.423,1.423,0,0,0,325.142,23.72Z" transform="translate(-323.719 -7.5)" fill="#e2bcaf"/>
      </g>
      <g id="Grupo_1231999" data-name="Grupo 1231999" transform="translate(67.79 0.759)">
        <path id="Trazado_1194219" data-name="Trazado 1194219" d="M387.478,23.72A1.425,1.425,0,0,0,388.9,22.3V8.925a1.425,1.425,0,0,0-2.849,0V22.3a1.424,1.424,0,0,0,1.425,1.425Z" transform="translate(-386.053 -7.5)" fill="#e2bcaf"/>
      </g>
      <g id="Grupo_1232000" data-name="Grupo 1232000" transform="translate(65.345 2.183)">
        <path id="Trazado_1194220" data-name="Trazado 1194220" d="M363.108,33.485a1.222,1.222,0,0,1,1.222,1.222V21.83a1.222,1.222,0,1,1-2.444,0V34.707A1.222,1.222,0,0,1,363.108,33.485Z" transform="translate(-361.886 -21.583)" fill="#d09080"/>
      </g>
      <g id="Grupo_1232001" data-name="Grupo 1232001" transform="translate(70.639 2.183)">
        <path id="Trazado_1194221" data-name="Trazado 1194221" d="M414.706,34.954h-.487V21.583h.487a2.339,2.339,0,0,1,2.339,2.339v8.693A2.339,2.339,0,0,1,414.706,34.954Z" transform="translate(-414.219 -21.583)" fill="#d09080"/>
      </g>
      <g id="Grupo_1232002" data-name="Grupo 1232002" transform="translate(50.566 18.403)">
        <path id="Trazado_1194222" data-name="Trazado 1194222" d="M219.848,214.562a4.068,4.068,0,0,1-4.061-4.308l1.676-28.321h4.769l1.676,28.321A4.068,4.068,0,0,1,219.848,214.562Z" transform="translate(-215.78 -181.933)" fill="#d09080"/>
      </g>
      <g id="Grupo_1232003" data-name="Grupo 1232003" transform="translate(51.098 18.403)">
        <path id="Trazado_1194223" data-name="Trazado 1194223" d="M228.64,210.254l-1.676-28.321h-3.926l1.556,26.3a4.068,4.068,0,0,1-3.55,4.276,4.068,4.068,0,0,0,7.6-2.253Z" transform="translate(-221.044 -181.933)" fill="#c67d66"/>
      </g>
      <g id="Grupo_1232004" data-name="Grupo 1232004" transform="translate(32.732 21.274)">
        <path id="Trazado_1194224" data-name="Trazado 1194224" d="M58.151,221.624H46.913a3.875,3.875,0,0,1,0-7.749h11.7l.211-3.565H46.913a7.44,7.44,0,0,0,0,14.879H57.94Z" transform="translate(-39.473 -210.31)" fill="#8993da"/>
      </g>
      <g id="Grupo_1232005" data-name="Grupo 1232005" transform="translate(57.858 32.588)">
        <path id="Trazado_1194225" data-name="Trazado 1194225" d="M306.388,322.161H287.867l.211,3.565h18.31a.157.157,0,0,0,.157-.157v-3.251A.157.157,0,0,0,306.388,322.161Z" transform="translate(-287.867 -322.161)" fill="#8993da"/>
      </g>
      <g id="Grupo_1232006" data-name="Grupo 1232006" transform="translate(57.188 21.274)">
        <path id="Trazado_1194226" data-name="Trazado 1194226" d="M300.439,210.309H281.248l.211,3.565h18.98a.157.157,0,0,0,.157-.157v-3.251A.157.157,0,0,0,300.439,210.309Z" transform="translate(-281.248 -210.309)" fill="#8993da"/>
      </g>
      <g id="Grupo_1232007" data-name="Grupo 1232007" transform="translate(36.297 24.839)">
        <path id="Trazado_1194227" data-name="Trazado 1194227" d="M90.289,245.552h-11.7a3.875,3.875,0,0,0,0,7.749H89.83Z" transform="translate(-74.717 -245.552)" fill="#f1f4f6"/>
      </g>
      <g id="Grupo_1232008" data-name="Grupo 1232008" transform="translate(57.399 24.839)">
        <path id="Trazado_1194228" data-name="Trazado 1194228" d="M283.333,245.552l.459,7.749h16.233v-7.749Z" transform="translate(-283.333 -245.552)" fill="#f1f4f6"/>
      </g>
      <g id="Grupo_1232009" data-name="Grupo 1232009" transform="translate(36.767 30.565)">
        <path id="Trazado_1194229" data-name="Trazado 1194229" d="M79.365,302.161a3.874,3.874,0,0,0,3.4,2.023H94.008l.12-2.023Z" transform="translate(-79.365 -302.161)" fill="#efecef"/>
      </g>
      <g id="Grupo_1232010" data-name="Grupo 1232010" transform="translate(57.738 24.839)">
        <path id="Trazado_1194230" data-name="Trazado 1194230" d="M298.991,245.551V247.7a3.572,3.572,0,0,1-3.572,3.572h-8.734l.12,2.023h16.233v-7.749h-4.046Z" transform="translate(-286.684 -245.551)" fill="#efecef"/>
      </g>
      <g id="Grupo_1232011" data-name="Grupo 1232011" transform="translate(32.732 36.153)">
        <path id="Trazado_1194231" data-name="Trazado 1194231" d="M39.63,360.97h18.1l.211-3.565H39.63a.157.157,0,0,0-.157.157v3.251a.157.157,0,0,0,.157.157Z" transform="translate(-39.473 -357.405)" fill="#b3e59f"/>
      </g>
      <g id="Grupo_1232012" data-name="Grupo 1232012" transform="translate(54.634 36.153)">
        <path id="Trazado_1194232" data-name="Trazado 1194232" d="M270.457,357.4H259.43l.211,3.565h10.816a3.875,3.875,0,1,1,0,7.749H260.032a4.069,4.069,0,0,1-4.037,3.565h14.462a7.44,7.44,0,1,0,0-14.879Z" transform="translate(-255.995 -357.405)" fill="#b3e59f"/>
      </g>
      <g id="Grupo_1232013" data-name="Grupo 1232013" transform="translate(32.732 47.467)">
        <path id="Trazado_1194233" data-name="Trazado 1194233" d="M57.338,469.256H39.63a.157.157,0,0,0-.157.157v3.251a.157.157,0,0,0,.157.157H61.375A4.069,4.069,0,0,1,57.338,469.256Z" transform="translate(-39.473 -469.256)" fill="#b3e59f"/>
      </g>
      <g id="Grupo_1232014" data-name="Grupo 1232014" transform="translate(35.177 39.718)">
        <path id="Trazado_1194234" data-name="Trazado 1194234" d="M79.041,399.654l.415-7.006H63.644V400.4h15.42A4.091,4.091,0,0,1,79.041,399.654Z" transform="translate(-63.644 -392.648)" fill="#f1f4f6"/>
      </g>
      <g id="Grupo_1232015" data-name="Grupo 1232015" transform="translate(35.177 45.444)">
        <path id="Trazado_1194235" data-name="Trazado 1194235" d="M79.041,450.536l.076-1.28H63.644v2.023h15.42A4.09,4.09,0,0,1,79.041,450.536Z" transform="translate(-63.644 -449.256)" fill="#efecef"/>
      </g>
      <g id="Grupo_1232016" data-name="Grupo 1232016" transform="translate(58.28 39.718)">
        <path id="Trazado_1194236" data-name="Trazado 1194236" d="M302.855,392.648H292.039l.415,7.006a4.086,4.086,0,0,1-.023.743h10.425a3.875,3.875,0,1,0,0-7.749Z" transform="translate(-292.039 -392.648)" fill="#f1f4f6"/>
      </g>
      <g id="Grupo_1232017" data-name="Grupo 1232017" transform="translate(58.619 39.718)">
        <path id="Trazado_1194237" data-name="Trazado 1194237" d="M305.867,392.648h-.642a3.876,3.876,0,0,1-3.4,5.726H295.39l.076,1.28a4.089,4.089,0,0,1-.023.743h10.425a3.875,3.875,0,1,0,0-7.749Z" transform="translate(-295.39 -392.648)" fill="#efecef"/>
      </g>
      <path id="Trazado_1194238" data-name="Trazado 1194238" d="M206.529,39.083a.759.759,0,0,0,0,1.517h4.322a.759.759,0,1,0,0-1.517Z" transform="translate(-156.217 -35.13)"/>
      <path id="Trazado_1194239" data-name="Trazado 1194239" d="M32.889,51.791H69.1a8.168,8.168,0,0,0,6.379-3.048.759.759,0,1,0-1.18-.954,6.657,6.657,0,0,1-5.2,2.484H58.147A4.8,4.8,0,0,0,59.3,48.226h9.8a4.633,4.633,0,1,0,0-9.267h-10.1l-.121-2.048H69.1a6.689,6.689,0,0,1,6.564,7.935.759.759,0,1,0,1.491.283,8.2,8.2,0,0,0-3.308-8.217h2.536A.917.917,0,0,0,77.295,36V32.745a.917.917,0,0,0-.916-.916H74.85V25.6h1.529a.917.917,0,0,0,.916-.916V21.431a.917.917,0,0,0-.916-.916H57.9l-.081-1.373A2.186,2.186,0,0,0,59.6,16.313h1.257a2.186,2.186,0,0,0,2.046,1.425h1.014A2.184,2.184,0,0,0,66.1,15.555v-.248a.464.464,0,0,1,.927,0v.247a2.183,2.183,0,0,0,4.232.756,3.1,3.1,0,0,0,2.96-3.095V4.522a3.1,3.1,0,0,0-2.96-3.095,2.183,2.183,0,0,0-4.232.756V2.43a.464.464,0,0,1-.927,0V2.182A2.184,2.184,0,0,0,63.922,0H62.908a2.186,2.186,0,0,0-2.046,1.425H59.455a.759.759,0,1,0,0,1.517h1.271V14.8H48.542V2.942h7.373a.759.759,0,0,0,0-1.517H48.406A2.186,2.186,0,0,0,46.36,0H45.346a2.185,2.185,0,0,0-2.182,2.182V2.43a.464.464,0,0,1-.927,0V2.183A2.183,2.183,0,0,0,38,1.428a3.1,3.1,0,0,0-2.96,3.095v8.693A3.1,3.1,0,0,0,38,16.31a2.183,2.183,0,0,0,4.232-.756v-.247a.464.464,0,0,1,.927,0v.248a2.184,2.184,0,0,0,2.182,2.182H46.36a2.186,2.186,0,0,0,2.046-1.425h1.257a2.186,2.186,0,0,0,1.782,2.829l-.081,1.373H40.171a8.2,8.2,0,0,0-4.747,14.879H32.889a.917.917,0,0,0-.916.916v3.251a.917.917,0,0,0,.916.916h1.529v6.232H32.889a.917.917,0,0,0-.916.916v3.251a.917.917,0,0,0,.916.915Zm3.047-8.785h14.1l-.069,1.174H35.935ZM51,26.609H42.195a.759.759,0,1,0,0,1.517h8.719L50.844,29.3h-8.65a.759.759,0,1,0,0,1.517h8.56l-.06,1.012H40.171a3.116,3.116,0,0,1,0-6.232H51.063Zm.327,20.16,1.634-27.607H56.3c1.778,30.046,1.665,27.651,1.612,28.237a3.31,3.31,0,0,1-6.585-.629ZM69.1,40.477a3.116,3.116,0,1,1,0,6.232H59.453c0-.049.009.146-.06-1.011h7.679a.759.759,0,0,0,0-1.517H59.3l-.069-1.174h7.838a.759.759,0,0,0,0-1.517H59.144l-.06-1.012H69.1Zm6.681-5.082H58.784l-.121-2.048H75.777Zm-17.2-3.565-.06-1.012H66.37a.759.759,0,1,0,0-1.517H58.423l-.069-1.174H73.332V29.3H69.91a.759.759,0,1,0,0,1.517h3.422v1.012Zm14.759-5.221H58.264L58.2,25.6H73.332Zm2.445-4.576V24.08H58.114l-.121-2.048ZM72.706,4.522v8.693A1.583,1.583,0,0,1,71.4,14.772V2.965a1.583,1.583,0,0,1,1.308,1.557ZM68.548,2.183a.666.666,0,0,1,1.332,0V15.554a.666.666,0,0,1-1.332,0ZM67.031,4.356v9.025a1.988,1.988,0,0,0-.927,0V4.356a1.987,1.987,0,0,0,.927,0ZM62.243,2.182a.665.665,0,0,1,.665-.665h1.014a.665.665,0,0,1,.665.665V15.555a.665.665,0,0,1-.665.665H62.908a.665.665,0,0,1-.665-.665V2.182ZM36.562,13.215V4.522A1.583,1.583,0,0,1,37.87,2.965V14.772A1.583,1.583,0,0,1,36.562,13.215Zm4.157,2.339a.666.666,0,1,1-1.332,0V2.183a.666.666,0,1,1,1.332,0Zm1.517-2.173V4.356a1.988,1.988,0,0,0,.927,0v9.025A1.988,1.988,0,0,0,42.236,13.381Zm4.788,2.174a.665.665,0,0,1-.665.665H45.346a.665.665,0,0,1-.665-.665V2.182a.665.665,0,0,1,.665-.665H46.36a.665.665,0,0,1,.665.665Zm4.052,1.423a.667.667,0,0,1,.666-.666h5.782a.666.666,0,1,1,0,1.332H51.743A.667.667,0,0,1,51.077,16.979ZM33.49,28.713a6.689,6.689,0,0,1,6.681-6.681h11.1l-.121,2.048H40.171a4.633,4.633,0,1,0,0,9.267H50.6l-.121,2.048H40.171A6.689,6.689,0,0,1,33.49,28.713Zm0,8.2h16.9l-.121,2.048H33.49Zm16.693,3.565-.06,1.012H35.935V40.477ZM35.935,45.7H49.874c-.069,1.171-.057.968-.06,1.011H35.935ZM33.49,48.226H49.971a4.8,4.8,0,0,0,1.149,2.048H33.49Z"/>
    </g>
  </g>
</svg>
