<svg xmlns="http://www.w3.org/2000/svg" xmlns:xlink="http://www.w3.org/1999/xlink" width="103" height="103" viewBox="0 0 103 103">
  <defs>
    <filter id="Trazado_978624" x="0" y="0" width="103" height="103" filterUnits="userSpaceOnUse">
      <feOffset dy="3" input="SourceAlpha"/>
      <feGaussianBlur stdDeviation="3" result="blur"/>
      <feFlood flood-opacity="0.161"/>
      <feComposite operator="in" in2="blur"/>
      <feComposite in="SourceGraphic"/>
    </filter>
  </defs>
  <g id="Grupo_1231857" data-name="Grupo 1231857" transform="translate(-154 -10448.7)">
    <g id="Grupo_1231363" data-name="Grupo 1231363" transform="translate(163 10454.7)">
      <g id="Grupo_1226966" data-name="Grupo 1226966">
        <g id="Grupo_1222970" data-name="Grupo 1222970">
          <g id="Grupo_1222589" data-name="Grupo 1222589">
            <g id="Grupo_1203109" data-name="Grupo 1203109">
              <g id="Grupo_1176881" data-name="Grupo 1176881">
                <g id="Grupo_1175148" data-name="Grupo 1175148">
                  <g id="Grupo_1173798" data-name="Grupo 1173798">
                    <g id="Grupo_1171925" data-name="Grupo 1171925">
                      <g id="Grupo_1164524" data-name="Grupo 1164524">
                        <g id="Grupo_1144123" data-name="Grupo 1144123">
                          <g transform="matrix(1, 0, 0, 1, -9, -6)" filter="url(#Trazado_978624)">
                            <g id="Trazado_978624-2" data-name="Trazado 978624" transform="translate(9 6)" fill="#e7f2f8">
                              <path d="M 42.5 83.5 C 36.96437835693359 83.5 31.59512901306152 82.41617584228516 26.54141235351562 80.27863311767578 C 21.65934181213379 78.21369171142578 17.27447128295898 75.25723266601562 13.50862312316895 71.49137878417969 C 9.742764472961426 67.72553253173828 6.786305904388428 63.34066009521484 4.721364498138428 58.45858764648438 C 2.583823442459106 53.40486907958984 1.5 48.03562164306641 1.5 42.5 C 1.5 36.96437835693359 2.583823442459106 31.59512901306152 4.721364498138428 26.54141235351562 C 6.786305904388428 21.65934181213379 9.742764472961426 17.27447128295898 13.50862312316895 13.50862312316895 C 17.27447128295898 9.742764472961426 21.65934181213379 6.786305904388428 26.54141235351562 4.721364498138428 C 31.59512901306152 2.583823442459106 36.96437835693359 1.5 42.5 1.5 C 48.03562164306641 1.5 53.40486907958984 2.583823442459106 58.45858764648438 4.721364498138428 C 63.34066009521484 6.786305904388428 67.72553253173828 9.742764472961426 71.49137878417969 13.50862312316895 C 75.25723266601562 17.27447128295898 78.21369171142578 21.65934181213379 80.27863311767578 26.54141235351562 C 82.41617584228516 31.59512901306152 83.5 36.96437835693359 83.5 42.5 C 83.5 48.03562164306641 82.41617584228516 53.40486907958984 80.27863311767578 58.45858764648438 C 78.21369171142578 63.34066009521484 75.25723266601562 67.72553253173828 71.49137878417969 71.49137878417969 C 67.72553253173828 75.25723266601562 63.34066009521484 78.21369171142578 58.45858764648438 80.27863311767578 C 53.40486907958984 82.41617584228516 48.03562164306641 83.5 42.5 83.5 Z" stroke="none"/>
                              <path d="M 42.5 3 C 37.16621398925781 3 31.99356079101562 4.043960571289062 27.125732421875 6.102882385253906 C 22.42246627807617 8.092185974121094 18.19785308837891 10.94070434570312 14.56928253173828 14.56928253173828 C 10.94070434570312 18.19785308837891 8.092185974121094 22.42246627807617 6.102882385253906 27.125732421875 C 4.043960571289062 31.99356079101562 3 37.16621398925781 3 42.5 C 3 47.83378601074219 4.043960571289062 53.00643920898438 6.102882385253906 57.87425231933594 C 8.092185974121094 62.57753372192383 10.94070434570312 66.80213165283203 14.56928253173828 70.43071746826172 C 18.19786834716797 74.05929565429688 22.42246627807617 76.90781402587891 27.125732421875 78.89711761474609 C 31.99356079101562 80.95603942871094 37.16621398925781 82 42.5 82 C 47.83378601074219 82 53.00642395019531 80.95603942871094 57.87425231933594 78.89711761474609 C 62.57753372192383 76.90781402587891 66.80213165283203 74.05929565429688 70.43071746826172 70.43071746826172 C 74.05929565429688 66.80213165283203 76.90781402587891 62.57753372192383 78.89711761474609 57.87425231933594 C 80.95603942871094 53.00642395019531 82 47.83378601074219 82 42.5 C 82 37.16621398925781 80.95603942871094 31.99356079101562 78.89711761474609 27.125732421875 C 76.90781402587891 22.42246627807617 74.05929565429688 18.19786834716797 70.43071746826172 14.56928253173828 C 66.80213165283203 10.94070434570312 62.57753372192383 8.092185974121094 57.87425231933594 6.102882385253906 C 53.00643920898438 4.043960571289062 47.83378601074219 3 42.5 3 M 42.5 0 C 65.97209167480469 0 85 19.02789306640625 85 42.5 C 85 65.97209167480469 65.97209167480469 85 42.5 85 C 19.02789306640625 85 0 65.97209167480469 0 42.5 C 0 19.02789306640625 19.02789306640625 0 42.5 0 Z" stroke="none" fill="#248abf"/>
                            </g>
                          </g>
                        </g>
                      </g>
                    </g>
                  </g>
                </g>
              </g>
            </g>
          </g>
        </g>
      </g>
    </g>
    <g id="fiscal" transform="translate(172.66 10469)">
      <g id="Grupo_1231855" data-name="Grupo 1231855" transform="translate(8.375 0.762)">
        <g id="Grupo_1231851" data-name="Grupo 1231851" transform="translate(2.377)">
          <g id="Grupo_1231850" data-name="Grupo 1231850">
            <g id="Grupo_1231805" data-name="Grupo 1231805" transform="translate(0 28.24)">
              <path id="Trazado_1193278" data-name="Trazado 1193278" d="M75.108,298.185a3.251,3.251,0,0,1-2.74-3.224v-2.133a1.5,1.5,0,0,1,.788-1.323l.053-.029v-2.738l-8.49-3.178a6.868,6.868,0,0,1-1.839.251H57.707a6.873,6.873,0,0,1-1.84-.251L41.82,290.819a5.078,5.078,0,0,0-3.3,4.756v4.249H57.371a.407.407,0,0,1,.406.406v7.059a.407.407,0,0,1-.406.406v.1H75.194v-9.6Z" transform="translate(-38.522 -285.56)" fill="#0055a3"/>
            </g>
            <g id="Grupo_1231806" data-name="Grupo 1231806" transform="translate(6.029 29.74)">
              <path id="Trazado_1193279" data-name="Trazado 1193279" d="M105.2,313.084V300.32l-7.312,2.737v10.027Z" transform="translate(-97.887 -300.32)" fill="#e9b665"/>
            </g>
            <g id="Grupo_1231807" data-name="Grupo 1231807" transform="translate(10.205 29.74)">
              <path id="Trazado_1193280" data-name="Trazado 1193280" d="M142.137,313.084V300.32L139,301.494v11.59Z" transform="translate(-139 -300.32)" fill="#d8aa5e"/>
            </g>
            <g id="Grupo_1231809" data-name="Grupo 1231809" transform="translate(30.201 29.739)">
              <g id="Grupo_1231808" data-name="Grupo 1231808">
                <path id="Trazado_1193281" data-name="Trazado 1193281" d="M342.358,311.459l-.085-.014a3.251,3.251,0,0,1-2.74-3.224v-2.133a1.5,1.5,0,0,1,.788-1.323l.053-.029V302l-4.486-1.68v20.737h6.471Z" transform="translate(-335.887 -300.319)" fill="#e9b665"/>
              </g>
            </g>
            <g id="Grupo_1231811" data-name="Grupo 1231811" transform="translate(33.463 30.96)">
              <g id="Grupo_1231810" data-name="Grupo 1231810">
                <path id="Trazado_1193282" data-name="Trazado 1193282" d="M371.124,322.246a3.251,3.251,0,0,1-2.74-3.224v-2.133a1.5,1.5,0,0,1,.788-1.323l.053-.029V312.8L368,312.341v19.516h3.209v-9.6Z" transform="translate(-368 -312.341)" fill="#d8aa5e"/>
              </g>
            </g>
            <g id="Grupo_1231816" data-name="Grupo 1231816" transform="translate(34.586 23.715)">
              <g id="Grupo_1231812" data-name="Grupo 1231812">
                <path id="Trazado_1193283" data-name="Trazado 1193283" d="M379.825,251.29h2.33v-4.9h-.1v-3.9a1.5,1.5,0,1,0-2.992,0v9a1.491,1.491,0,0,1,.763-.211Z" transform="translate(-379.062 -241)" fill="#ffcebf"/>
              </g>
              <g id="Grupo_1231813" data-name="Grupo 1231813" transform="translate(2.363 9.125)">
                <path id="Trazado_1193284" data-name="Trazado 1193284" d="M411.827,330.847v.1a1.394,1.394,0,1,1-2.789,0h-.2a1.394,1.394,0,0,1-2.789,0h-.2a1.4,1.4,0,0,1-.61,1.153l-.123.084.123.084a1.386,1.386,0,0,1-.784,2.531h-1.515a.61.61,0,0,0-.609.609v3.34l.1.267h6.134a3.368,3.368,0,0,0,3.368-3.368v-4.8h-.1Z" transform="translate(-402.325 -330.847)" fill="#ffcebf"/>
              </g>
              <g id="Grupo_1231815" data-name="Grupo 1231815" transform="translate(6.477 9.125)">
                <g id="Grupo_1231814" data-name="Grupo 1231814">
                  <path id="Trazado_1193285" data-name="Trazado 1193285" d="M448.224,330.848v.1a1.391,1.391,0,0,1-2.02,1.244v3.456a3.368,3.368,0,0,1-3.368,3.368h2.121a3.368,3.368,0,0,0,3.368-3.368v-4.8h-.1Z" transform="translate(-442.836 -330.848)" fill="#ffa78f"/>
                </g>
              </g>
            </g>
            <g id="Grupo_1231835" data-name="Grupo 1231835" transform="translate(7.526)">
              <g id="Grupo_1231818" data-name="Grupo 1231818" transform="translate(18.699 2.01)">
                <g id="Grupo_1231817" data-name="Grupo 1231817">
                  <path id="Trazado_1193286" data-name="Trazado 1193286" d="M298.351,31.373v3.61h.335a3.079,3.079,0,0,1,3.076,3.076v1.96h1.452a3.2,3.2,0,0,1,1.352.3V34.906a7.617,7.617,0,0,0-7.617-7.617h-.211a5.969,5.969,0,0,1,1.613,4.084Z" transform="translate(-296.738 -27.289)" fill="#d8aa5e"/>
                </g>
              </g>
              <g id="Grupo_1231819" data-name="Grupo 1231819" transform="translate(1.964)">
                <path id="Trazado_1193287" data-name="Trazado 1193287" d="M133.315,22.239h1.452v-1.96a3.079,3.079,0,0,1,3.076-3.076h12.57v-3.61A6.094,6.094,0,0,0,144.319,7.5h-6.262a6.094,6.094,0,0,0-6.094,6.094v8.944a3.194,3.194,0,0,1,1.352-.3Z" transform="translate(-131.963 -7.5)" fill="#e9b665"/>
              </g>
              <g id="Grupo_1231834" data-name="Grupo 1231834" transform="translate(0 9.602)">
                <g id="Grupo_1231833" data-name="Grupo 1231833">
                  <g id="Grupo_1231820" data-name="Grupo 1231820" transform="translate(7.359 17.378)">
                    <path id="Trazado_1193288" data-name="Trazado 1193288" d="M194.557,274.661h-5.172a6.857,6.857,0,0,1-4.3-1.512v2.182l6.616,12.624a.3.3,0,0,0,.54,0l6.616-12.624v-2.182A6.856,6.856,0,0,1,194.557,274.661Z" transform="translate(-185.085 -273.149)" fill="#fff"/>
                  </g>
                  <g id="Grupo_1231821" data-name="Grupo 1231821" transform="translate(11.858 24.137)">
                    <path id="Trazado_1193289" data-name="Trazado 1193289" d="M229.376,343.7l2.118,4.041a.3.3,0,0,0,.54,0l2.118-4.041-1.372-4.006h-2.031Z" transform="translate(-229.376 -339.698)" fill="#fd6930"/>
                  </g>
                  <g id="Grupo_1231823" data-name="Grupo 1231823" transform="translate(13.209 24.137)">
                    <g id="Grupo_1231822" data-name="Grupo 1231822">
                      <path id="Trazado_1193290" data-name="Trazado 1193290" d="M244.747,346.293,246.1,343.7l-1.372-4.006H242.7l-.021.061Z" transform="translate(-242.68 -339.698)" fill="#fd5426"/>
                    </g>
                  </g>
                  <g id="Grupo_1231825" data-name="Grupo 1231825" transform="translate(11.138 19.674)">
                    <g id="Grupo_1231824" data-name="Grupo 1231824">
                      <path id="Trazado_1193291" data-name="Trazado 1193291" d="M225.747,295.867a.609.609,0,0,0-.7,0l-2.756,1.949,2.092,2.4h2.031l2.092-2.4Z" transform="translate(-222.287 -295.755)" fill="#fe7d43"/>
                    </g>
                  </g>
                  <g id="Grupo_1231826" data-name="Grupo 1231826" transform="translate(12.841 19.674)">
                    <path id="Trazado_1193292" data-name="Trazado 1193292" d="M240.813,295.867a.609.609,0,0,0-.449-.1.648.648,0,0,0-.272.116l-1.036.732,1.108.783a1.016,1.016,0,0,1,.18,1.5l-1.027,1.179.129.148h2.031l2.092-2.4Z" transform="translate(-239.056 -295.755)" fill="#fd6930"/>
                  </g>
                  <g id="Grupo_1231827" data-name="Grupo 1231827" transform="translate(7.359 17.378)">
                    <path id="Trazado_1193293" data-name="Trazado 1193293" d="M194.557,274.661h-5.172a6.857,6.857,0,0,1-4.3-1.512v2.182l1.9,3.627,4.692-3.318a.508.508,0,0,1,.586,0l4.692,3.318,1.9-3.627v-2.182A6.856,6.856,0,0,1,194.557,274.661Z" transform="translate(-185.085 -273.149)" fill="#f9f3f1"/>
                  </g>
                  <g id="Grupo_1231830" data-name="Grupo 1231830" transform="translate(0 5.036)">
                    <g id="Grupo_1231828" data-name="Grupo 1231828">
                      <path id="Trazado_1193294" data-name="Trazado 1193294" d="M117.4,151.622h-1.462a3.316,3.316,0,1,0,0,6.631H117.4Z" transform="translate(-112.625 -151.622)" fill="#ffb09e"/>
                    </g>
                    <g id="Grupo_1231829" data-name="Grupo 1231829" transform="translate(23.713)">
                      <path id="Trazado_1193295" data-name="Trazado 1193295" d="M347.565,151.622H346.1v6.632h1.462a3.316,3.316,0,0,0,0-6.632Z" transform="translate(-346.103 -151.622)" fill="#f89580"/>
                    </g>
                  </g>
                  <g id="Grupo_1231831" data-name="Grupo 1231831" transform="translate(4.666 0)">
                    <path id="Trazado_1193296" data-name="Trazado 1193296" d="M158.572,105.218v8.822a6.993,6.993,0,0,0,6.993,6.993h5.172a6.993,6.993,0,0,0,6.993-6.993v-8.822a3.177,3.177,0,0,0-3.177-3.177h-12.8A3.177,3.177,0,0,0,158.572,105.218Z" transform="translate(-158.572 -102.041)" fill="#ffcebf"/>
                  </g>
                  <g id="Grupo_1231832" data-name="Grupo 1231832" transform="translate(14.658)">
                    <path id="Trazado_1193297" data-name="Trazado 1193297" d="M262.943,102.041h-2.46a3.2,3.2,0,0,1,2.538,3.131v8.886a7.044,7.044,0,0,1-6.067,6.974h2.173a6.993,6.993,0,0,0,6.993-6.993v-8.822a3.177,3.177,0,0,0-3.177-3.177Z" transform="translate(-256.954 -102.041)" fill="#ffb09e"/>
                  </g>
                </g>
              </g>
            </g>
            <g id="Grupo_1231849" data-name="Grupo 1231849" transform="translate(33.744 27.613)">
              <g id="Grupo_1231836" data-name="Grupo 1231836" transform="translate(2.826 13.19)">
                <path id="Trazado_1193298" data-name="Trazado 1193298" d="M405.212,409.357h-6.072a3.27,3.27,0,0,1-.543-.046v9.614h5.914a1.524,1.524,0,0,0,1.523-1.523v-8.15A3.262,3.262,0,0,1,405.212,409.357Z" transform="translate(-398.598 -409.252)" fill="#0573ce"/>
              </g>
              <g id="Grupo_1231838" data-name="Grupo 1231838" transform="translate(5.531 13.19)">
                <g id="Grupo_1231837" data-name="Grupo 1231837">
                  <path id="Trazado_1193299" data-name="Trazado 1193299" d="M429.139,409.357h-2.386V417.4a1.524,1.524,0,0,1-1.523,1.523h3.209a1.523,1.523,0,0,0,1.523-1.523v-8.15A3.261,3.261,0,0,1,429.139,409.357Z" transform="translate(-425.23 -409.252)" fill="#0067c5"/>
                </g>
              </g>
              <g id="Grupo_1231848" data-name="Grupo 1231848">
                <g id="Grupo_1231839" data-name="Grupo 1231839" transform="translate(9.817 1.688)">
                  <path id="Trazado_1193300" data-name="Trazado 1193300" d="M468.927,296a1.5,1.5,0,0,0-1.5,1.5v2.145a1.5,1.5,0,1,0,2.992,0v-2.145A1.5,1.5,0,0,0,468.927,296Z" transform="translate(-467.431 -295.998)" fill="#ffb09e"/>
                </g>
                <g id="Grupo_1231840" data-name="Grupo 1231840" transform="translate(10.557 1.688)">
                  <path id="Trazado_1193301" data-name="Trazado 1193301" d="M475.471,296a1.487,1.487,0,0,0-.756.207,1.494,1.494,0,0,1,.74,1.289v2.145a1.493,1.493,0,0,1-.74,1.289,1.494,1.494,0,0,0,2.252-1.289v-2.145A1.5,1.5,0,0,0,475.471,296Z" transform="translate(-474.715 -295.998)" fill="#f89580"/>
                </g>
                <g id="Grupo_1231841" data-name="Grupo 1231841" transform="translate(6.825)">
                  <path id="Trazado_1193302" data-name="Trazado 1193302" d="M437.974,280.873v3.833a1.5,1.5,0,1,0,2.992,0v-3.833a1.5,1.5,0,1,0-2.992,0Z" transform="translate(-437.974 -279.377)" fill="#ffb09e"/>
                </g>
                <g id="Grupo_1231842" data-name="Grupo 1231842" transform="translate(6.825)">
                  <path id="Trazado_1193303" data-name="Trazado 1193303" d="M437.974,280.873v3.833a1.5,1.5,0,1,0,2.992,0v-3.833a1.5,1.5,0,1,0-2.992,0Z" transform="translate(-437.974 -279.377)" fill="#ffb09e"/>
                </g>
                <g id="Grupo_1231843" data-name="Grupo 1231843" transform="translate(7.565)">
                  <path id="Trazado_1193304" data-name="Trazado 1193304" d="M446.014,279.377a1.487,1.487,0,0,0-.756.207,1.494,1.494,0,0,1,.74,1.289v3.833a1.493,1.493,0,0,1-.74,1.289,1.494,1.494,0,0,0,2.252-1.289v-3.833A1.5,1.5,0,0,0,446.014,279.377Z" transform="translate(-445.258 -279.377)" fill="#f89580"/>
                </g>
                <g id="Grupo_1231844" data-name="Grupo 1231844" transform="translate(3.833)">
                  <path id="Trazado_1193305" data-name="Trazado 1193305" d="M410.014,279.377a1.5,1.5,0,0,0-1.5,1.5v4.9h1.454a1.466,1.466,0,0,1,.791.23,1.494,1.494,0,0,0,.746-1.293v-3.833A1.5,1.5,0,0,0,410.014,279.377Z" transform="translate(-408.518 -279.377)" fill="#ffb09e"/>
                </g>
                <g id="Grupo_1231845" data-name="Grupo 1231845" transform="translate(4.573)">
                  <path id="Trazado_1193306" data-name="Trazado 1193306" d="M416.559,279.377a1.487,1.487,0,0,0-.756.207,1.494,1.494,0,0,1,.74,1.289v3.833a1.488,1.488,0,0,1-.446,1.063h.42a1.466,1.466,0,0,1,.791.23,1.494,1.494,0,0,0,.746-1.293v-3.833A1.5,1.5,0,0,0,416.559,279.377Z" transform="translate(-415.803 -279.377)" fill="#f89580"/>
                </g>
                <g id="Grupo_1231847" data-name="Grupo 1231847" transform="translate(0 6.291)">
                  <g id="Grupo_1231846" data-name="Grupo 1231846">
                    <path id="Trazado_1193307" data-name="Trazado 1193307" d="M376.062,341.319h-3.683a1.6,1.6,0,0,0-1.6,1.605v2.133a3.368,3.368,0,0,0,3.306,3.367v-3.605a.508.508,0,0,1,.508-.508H376.1a1.5,1.5,0,0,0,1.494-1.568A1.523,1.523,0,0,0,376.062,341.319Z" transform="translate(-370.774 -341.319)" fill="#ffdfcf"/>
                  </g>
                </g>
              </g>
            </g>
          </g>
        </g>
        <g id="Grupo_1231854" data-name="Grupo 1231854" transform="translate(0 42.402)">
          <g id="Grupo_1231852" data-name="Grupo 1231852">
            <path id="Trazado_1193308" data-name="Trazado 1193308" d="M36.34,433.074H15.621a.508.508,0,0,1-.508-.508v-7.059a.508.508,0,0,1,.508-.508H36.34a.508.508,0,0,1,.508.508v7.059A.508.508,0,0,1,36.34,433.074Z" transform="translate(-15.113 -425)" fill="#f3eae6"/>
          </g>
          <g id="Grupo_1231853" data-name="Grupo 1231853" transform="translate(17.66)">
            <path id="Trazado_1193309" data-name="Trazado 1193309" d="M192.566,425H189a.508.508,0,0,1,.508.508v7.059a.508.508,0,0,1-.508.508h3.566a.508.508,0,0,0,.508-.508v-7.059A.508.508,0,0,0,192.566,425Z" transform="translate(-189 -425)" fill="#efe2dd"/>
          </g>
        </g>
      </g>
      <g id="Grupo_1231856" data-name="Grupo 1231856" transform="translate(7.613 0)">
        <path id="Trazado_1193310" data-name="Trazado 1193310" d="M229.079,164.962a2.421,2.421,0,0,0,2.418,2.418.762.762,0,0,0,0-1.523.895.895,0,0,1-.192-1.769,1.2,1.2,0,0,0,.954-1.178v-.834a.762.762,0,0,0-1.523,0v.592A2.434,2.434,0,0,0,229.079,164.962Z" transform="translate(-206.586 -144.931)"/>
        <path id="Trazado_1193311" data-name="Trazado 1193311" d="M204.773,151.867a.762.762,0,0,0-.762.762v1.5a.762.762,0,1,0,1.523,0v-1.5A.762.762,0,0,0,204.773,151.867Z" transform="translate(-184.064 -136.443)"/>
        <path id="Trazado_1193312" data-name="Trazado 1193312" d="M287.525,151.867a.762.762,0,0,0-.762.762v1.5a.762.762,0,0,0,1.523,0v-1.5A.762.762,0,0,0,287.525,151.867Z" transform="translate(-258.412 -136.443)"/>
        <path id="Trazado_1193313" data-name="Trazado 1193313" d="M184.773,122.039h4.063a.762.762,0,0,0,.762-.762v-1.016a.762.762,0,0,0-1.523,0v.254h-3.3a.762.762,0,0,0,0,1.523Z" transform="translate(-166.096 -107.363)"/>
        <path id="Trazado_1193314" data-name="Trazado 1193314" d="M267.525,122.039h4.063a.762.762,0,0,0,0-1.523h-3.3v-.254a.762.762,0,0,0-1.523,0v1.016A.762.762,0,0,0,267.525,122.039Z" transform="translate(-240.443 -107.363)"/>
        <path id="Trazado_1193315" data-name="Trazado 1193315" d="M228.219,241.995h-4.57a.762.762,0,0,0,0,1.523h4.57a.762.762,0,1,0,0-1.523Z" transform="translate(-201.023 -217.417)"/>
        <path id="Trazado_1193316" data-name="Trazado 1193316" d="M55.809,29.3a2.246,2.246,0,0,0-.776.138,2.255,2.255,0,0,0-3.712-1.257,2.251,2.251,0,0,0-2.23-.446V25.972a2.258,2.258,0,1,0-4.515,0v5.072L40.171,29.4V28.23a7.74,7.74,0,0,0,2.68-5.437h.6a4.077,4.077,0,0,0,2.113-7.563v-4.84a8.387,8.387,0,0,0-8.117-8.372A6.833,6.833,0,0,0,32.6,0H26.336a6.863,6.863,0,0,0-6.855,6.855V8.734a.762.762,0,0,0,1.523,0V6.855a5.338,5.338,0,0,1,5.332-5.332H32.6A5.338,5.338,0,0,1,37.93,6.855V9.6H26.122a3.943,3.943,0,0,0-3.939,3.939v1.1h-.589a4.082,4.082,0,0,0-.59.043V12.289a.762.762,0,1,0-1.523,0v2.94a4.077,4.077,0,0,0,2.113,7.563h.6a7.739,7.739,0,0,0,2.68,5.437V29.4L13.783,33.548A5.866,5.866,0,0,0,9.99,39.017V42.4H8.883a1.271,1.271,0,0,0-1.27,1.27V50.73A1.271,1.271,0,0,0,8.883,52H53.236a2.288,2.288,0,0,0,2.285-2.285v-7.5A4.136,4.136,0,0,0,58.067,38.4V31.558A2.26,2.26,0,0,0,55.809,29.3ZM19.04,18.715a2.557,2.557,0,0,1,2.554-2.554h.589v5.108h-.589A2.557,2.557,0,0,1,19.04,18.715ZM52.083,29.87a.734.734,0,0,1,1.468,0V33.7a.734.734,0,0,1-1.468,0Zm-2.992,0a.734.734,0,0,1,1.468,0V33.7a.73.73,0,0,1-.07.31,2.346,2.346,0,0,0-.706-.109h-.693Zm-2.992-3.9a.734.734,0,1,1,1.468,0V33.9H46.1ZM33.193,33.739H31.855L30.611,32.31l1.913-1.352,1.913,1.352Zm.892,4.7-1.561,2.978-1.561-2.978,1.09-3.181H33Zm-3.44-3.774-.656,1.916-1.466-2.8.838-.593Zm5.042-1.475.838.593-1.466,2.8L34.4,34.669ZM36,31.553l0,0-2.029-1.435H35.11a7.7,7.7,0,0,0,3.538-.858v.477l-1.41,2.69Zm7.449-10.284h-.589V16.161h.589a2.554,2.554,0,0,1,0,5.108Zm.59-10.88v4.292a4.094,4.094,0,0,0-.59-.043h-.589v-1.1a3.944,3.944,0,0,0-3.411-3.9V6.855A6.811,6.811,0,0,0,38.68,3.7,6.866,6.866,0,0,1,44.043,10.389ZM23.707,22.362V13.541a2.418,2.418,0,0,1,2.415-2.415h12.8a2.418,2.418,0,0,1,2.415,2.415v8.822a6.238,6.238,0,0,1-6.231,6.231H29.937a6.238,6.238,0,0,1-6.231-6.231Zm6.231,7.754h1.137l-2.03,1.435h0l-1.234.873-1.41-2.69v-.477A7.7,7.7,0,0,0,29.937,30.117Zm-18.424,8.9a4.336,4.336,0,0,1,2.8-4.042l1.7-.638v2.327a.762.762,0,0,0,1.523,0v-2.9L23.332,31.6V42.4H17.543V40.219a.762.762,0,0,0-1.523,0V42.4H11.514ZM9.136,49.232H21.128a.762.762,0,0,0,0-1.523H9.136V46.693h5.525a.762.762,0,1,0,0-1.523H9.136V43.926H29.347v6.551H9.136Zm32.579,1.244V46.414a.762.762,0,0,0-1.523,0v4.063H30.871v-6.8A1.271,1.271,0,0,0,29.6,42.4H24.856V31.029l.419-.157L26.863,33.9h0l4.715,9a1.066,1.066,0,0,0,1.889,0l4.715-9h0l1.589-3.031.419.157v11.83a.762.762,0,1,0,1.523,0V31.6l2.861,1.071v1.791a2.362,2.362,0,0,0-.842,1.808V38.4a4.154,4.154,0,0,0,2.826,3.915v8.158ZM54,49.715a.763.763,0,0,1-.762.762H48.084V42.533h5.853l.061,0ZM56.543,38.4a2.609,2.609,0,0,1-2.607,2.607h-6.12A2.618,2.618,0,0,1,45.258,38.4V36.27a.844.844,0,0,1,.843-.843h3.683a.764.764,0,0,1,.775.7.734.734,0,0,1-.733.771H48.31a1.271,1.271,0,0,0-1.27,1.27V39a.762.762,0,1,0,1.523,0v-.581h1.262a2.268,2.268,0,0,0,1.634-.7,2.258,2.258,0,0,0,.6-1.892,2.243,2.243,0,0,0,2.255-.435,2.251,2.251,0,0,0,2.23.446Zm0-4.7h0a.734.734,0,0,1-1.468,0V31.558a.734.734,0,0,1,1.468,0V33.7Z" transform="translate(-7.613 0)"/>
      </g>
    </g>
  </g>
</svg>
