<svg xmlns="http://www.w3.org/2000/svg" xmlns:xlink="http://www.w3.org/1999/xlink" width="103" height="103" viewBox="0 0 103 103">
  <defs>
    <filter id="Trazado_978624" x="0" y="0" width="103" height="103" filterUnits="userSpaceOnUse">
      <feOffset dy="3" input="SourceAlpha"/>
      <feGaussianBlur stdDeviation="3" result="blur"/>
      <feFlood flood-opacity="0.161"/>
      <feComposite operator="in" in2="blur"/>
      <feComposite in="SourceGraphic"/>
    </filter>
  </defs>
  <g id="Grupo_1231707" data-name="Grupo 1231707" transform="translate(-623 -1627)">
    <g id="Grupo_1231344" data-name="Grupo 1231344" transform="translate(632 1633)">
      <g id="Grupo_1230210" data-name="Grupo 1230210" transform="translate(0)">
        <g id="Grupo_1229456" data-name="Grupo 1229456">
          <g id="Grupo_1226902" data-name="Grupo 1226902">
            <g id="Grupo_1226078" data-name="Grupo 1226078">
              <g id="Grupo_1224953" data-name="Grupo 1224953">
                <g id="Grupo_1222589" data-name="Grupo 1222589">
                  <g id="Grupo_1203109" data-name="Grupo 1203109">
                    <g id="Grupo_1176881" data-name="Grupo 1176881">
                      <g id="Grupo_1175148" data-name="Grupo 1175148">
                        <g id="Grupo_1173798" data-name="Grupo 1173798">
                          <g id="Grupo_1171925" data-name="Grupo 1171925">
                            <g id="Grupo_1164524" data-name="Grupo 1164524">
                              <g id="Grupo_1144123" data-name="Grupo 1144123">
                                <g transform="matrix(1, 0, 0, 1, -9, -6)" filter="url(#Trazado_978624)">
                                  <g id="Trazado_978624-2" data-name="Trazado 978624" transform="translate(9 6)" fill="#fcf5f0">
                                    <path d="M 42.5 83.50005340576172 C 36.96437835693359 83.50005340576172 31.59512901306152 82.41622924804688 26.54141235351562 80.2786865234375 C 21.65934181213379 78.21372985839844 17.27447128295898 75.25727081298828 13.50862312316895 71.49141693115234 C 9.742764472961426 67.72557067871094 6.786305904388428 63.3406982421875 4.721364498138428 58.45862579345703 C 2.583823442459106 53.4048957824707 1.5 48.03564834594727 1.5 42.50002670288086 C 1.5 36.96438980102539 2.583823442459106 31.59514427185059 4.721364498138428 26.54142761230469 C 6.786305904388428 21.65935516357422 9.742764472961426 17.27448463439941 13.50862312316895 13.50862693786621 C 17.27447128295898 9.742779731750488 21.65934181213379 6.786320686340332 26.54141235351562 4.721367835998535 C 31.59512901306152 2.583826780319214 36.96437835693359 1.500003218650818 42.5 1.500003218650818 C 48.03562164306641 1.500003218650818 53.40486907958984 2.583826780319214 58.45858764648438 4.721367835998535 C 63.34066009521484 6.786320686340332 67.72553253173828 9.742779731750488 71.49137878417969 13.50862693786621 C 75.25723266601562 17.27448463439941 78.21369171142578 21.65935516357422 80.27863311767578 26.54142761230469 C 82.41617584228516 31.59514427185059 83.5 36.96438980102539 83.5 42.50002670288086 C 83.5 48.03564834594727 82.41617584228516 53.4048957824707 80.27863311767578 58.45862579345703 C 78.21369171142578 63.3406982421875 75.25723266601562 67.72557067871094 71.49137878417969 71.49141693115234 C 67.72553253173828 75.25727081298828 63.34066009521484 78.21372985839844 58.45858764648438 80.2786865234375 C 53.40486907958984 82.41622924804688 48.03562164306641 83.50005340576172 42.5 83.50005340576172 Z" stroke="none"/>
                                    <path d="M 42.5 3 C 37.16621398925781 3 31.99356079101562 4.043960571289062 27.125732421875 6.102882385253906 C 22.42246627807617 8.092201232910156 18.19786834716797 10.94070434570312 14.56928253173828 14.56929016113281 C 10.94070434570312 18.19786834716797 8.092185974121094 22.42248153686523 6.102882385253906 27.12574768066406 C 4.043960571289062 31.99358749389648 3 37.16624069213867 3 42.50002670288086 C 3 47.83381271362305 4.043960571289062 53.00646591186523 6.102882385253906 57.87429428100586 C 8.092185974121094 62.57757568359375 10.94070434570312 66.80216979980469 14.56928253173828 70.43076324462891 C 18.19786834716797 74.05934906005859 22.42246627807617 76.90785217285156 27.125732421875 78.89717102050781 C 31.99356079101562 80.95609283447266 37.16621398925781 82.00005340576172 42.5 82.00005340576172 C 47.83378601074219 82.00005340576172 53.00642395019531 80.95609283447266 57.87425231933594 78.89717102050781 C 62.57753372192383 76.90785217285156 66.80213165283203 74.05934906005859 70.43071746826172 70.43076324462891 C 74.05929565429688 66.80216979980469 76.90779876708984 62.57757568359375 78.89711761474609 57.87429428100586 C 80.95603942871094 53.00646591186523 82 47.83381271362305 82 42.50002670288086 C 82 37.16624069213867 80.95603942871094 31.99358749389648 78.89711761474609 27.12574768066406 C 76.90781402587891 22.42248153686523 74.05929565429688 18.19786834716797 70.43071746826172 14.56929016113281 C 66.80213165283203 10.94070434570312 62.57753372192383 8.092201232910156 57.87425231933594 6.102882385253906 C 53.00642395019531 4.043960571289062 47.83378601074219 3 42.5 3 M 42.5 0 C 65.97209167480469 0 85 19.02790832519531 85 42.50002670288086 C 85 65.97213745117188 65.97209167480469 85.00005340576172 42.5 85.00005340576172 C 19.02789306640625 85.00005340576172 0 65.97213745117188 0 42.50002670288086 C 0 19.02790832519531 19.02789306640625 0 42.5 0 Z" stroke="none" fill="#eca675"/>
                                  </g>
                                </g>
                              </g>
                            </g>
                          </g>
                        </g>
                      </g>
                    </g>
                  </g>
                </g>
              </g>
            </g>
          </g>
        </g>
      </g>
    </g>
    <g id="archivo_2_" data-name="archivo (2)" transform="translate(646.159 1648.037)">
      <path id="Trazado_1192770" data-name="Trazado 1192770" d="M12,29.317V2H39.317l6.829,7.683V29.317Z" transform="translate(-0.732 -0.146)" fill="#c7e2fb"/>
      <path id="Trazado_1192771" data-name="Trazado 1192771" d="M14,2V20.78a1.707,1.707,0,0,0,1.707,1.707h5.269a1.707,1.707,0,0,1,1.207.5l4.549,4.549a1.707,1.707,0,0,0,1.207.5h18.5V9.683L39.61,2Z" transform="translate(-1.024 -0.146)" fill="#ebf7fe"/>
      <path id="Trazado_1192772" data-name="Trazado 1192772" d="M8,29.707v25.61a1.707,1.707,0,0,0,1.707,1.707H47.268a1.707,1.707,0,0,0,1.707-1.707V34.829a1.707,1.707,0,0,0-1.707-1.707H25.073L19.951,28H9.707A1.707,1.707,0,0,0,8,29.707Z" transform="translate(-0.146 -3.951)" fill="#f5b95b"/>
      <path id="Trazado_1192773" data-name="Trazado 1192773" d="M47.853,33.122H25.658L20.537,28H12v8.994A16.615,16.615,0,0,0,28.615,53.61H49.561V34.829A1.707,1.707,0,0,0,47.853,33.122Z" transform="translate(-0.732 -3.951)" fill="#f9d18f"/>
      <path id="Trazado_1192774" data-name="Trazado 1192774" d="M44,2V9.683h6.829Z" transform="translate(-5.415 -0.146)" fill="#87a5cd"/>
      <path id="Trazado_1192775" data-name="Trazado 1192775" d="M16,6H36.488v5.122H16Z" transform="translate(-1.317 -0.732)" fill="#698ec0"/>
      <path id="Trazado_1192776" data-name="Trazado 1192776" d="M44.537,51A4.268,4.268,0,1,1,36,51Z" transform="translate(-4.244 -7.317)" fill="#976949"/>
      <path id="Trazado_1192777" data-name="Trazado 1192777" d="M40.841,55.226A4.255,4.255,0,0,0,44.683,51H37A4.255,4.255,0,0,0,40.841,55.226Z" transform="translate(-4.39 -7.317)" fill="#c18e5c"/>
      <circle id="Elipse_14828" data-name="Elipse 14828" cx="1.5" cy="1.5" r="1.5" transform="translate(27 33)" fill="#976949"/>
      <ellipse id="Elipse_14829" data-name="Elipse 14829" cx="1.28" cy="1.647" rx="1.28" ry="1.647" transform="translate(27.488 32.646)" fill="#c18e5c"/>
      <path id="Trazado_1192778" data-name="Trazado 1192778" d="M18,6.911a2.5,2.5,0,0,0,2.5,2.5H36.78V6H18Z" transform="translate(-1.61 -0.732)" fill="#87a5cd"/>
      <path id="Trazado_1192779" data-name="Trazado 1192779" d="M26.537,51A4.268,4.268,0,1,1,18,51Z" transform="translate(-1.61 -7.317)" fill="#976949"/>
      <path id="Trazado_1192780" data-name="Trazado 1192780" d="M22.841,55.226A4.255,4.255,0,0,0,26.683,51H19a4.255,4.255,0,0,0,3.841,4.226Z" transform="translate(-1.756 -7.317)" fill="#c18e5c"/>
      <path id="Trazado_1192781" data-name="Trazado 1192781" d="M47.122,28.317h-.854V9.537a.859.859,0,0,0-.215-.568L39.224,1.286A.854.854,0,0,0,38.585,1H11.268a.854.854,0,0,0-.854.854V23.195H9.561A2.561,2.561,0,0,0,7,25.756v25.61a2.561,2.561,0,0,0,2.561,2.561H47.122a2.561,2.561,0,0,0,2.561-2.561V30.878A2.561,2.561,0,0,0,47.122,28.317ZM39.439,4.1l4.074,4.584H39.439ZM12.122,2.707h25.61V9.537a.854.854,0,0,0,.854.854h5.976V28.317H25.28l-4.872-4.872a.854.854,0,0,0-.6-.25H12.122ZM47.975,51.366a.854.854,0,0,1-.854.854H9.561a.854.854,0,0,1-.854-.854V25.756a.854.854,0,0,1,.854-.854h9.89l4.872,4.872a.854.854,0,0,0,.6.25H47.122a.854.854,0,0,1,.854.854Z" transform="translate(0 0)"/>
      <path id="Trazado_1192782" data-name="Trazado 1192782" d="M15.854,11.829H36.341a.854.854,0,0,0,.854-.854V5.854A.854.854,0,0,0,36.341,5H15.854A.854.854,0,0,0,15,5.854v5.122A.854.854,0,0,0,15.854,11.829Zm.854-5.122h18.78v3.415H16.707Z" transform="translate(-1.171 -0.585)"/>
      <path id="Trazado_1192783" data-name="Trazado 1192783" d="M15,15H44.024v1.707H15Z" transform="translate(-1.171 -2.049)"/>
      <path id="Trazado_1192784" data-name="Trazado 1192784" d="M15,19H40.61v1.707H15Z" transform="translate(-1.171 -2.634)"/>
      <path id="Trazado_1192785" data-name="Trazado 1192785" d="M15,23H44.024v1.707H15Z" transform="translate(-1.171 -3.22)"/>
      <path id="Trazado_1192786" data-name="Trazado 1192786" d="M27,27H42.366v1.707H27Z" transform="translate(-2.927 -3.805)"/>
      <path id="Trazado_1192787" data-name="Trazado 1192787" d="M47,19h1.707v1.707H47Z" transform="translate(-5.854 -2.634)"/>
      <path id="Trazado_1192788" data-name="Trazado 1192788" d="M47,27h1.707v1.707H47Z" transform="translate(-5.854 -3.805)"/>
      <path id="Trazado_1192789" data-name="Trazado 1192789" d="M42.5,48.536l-4.268-7.683a.854.854,0,0,0-.746-.439H32.209a2.532,2.532,0,0,0,.157-.854,2.561,2.561,0,0,0-5.122,0,2.532,2.532,0,0,0,.157.854H22.122a.854.854,0,0,0-.746.439l-4.268,7.683a.854.854,0,0,0-.108.415,5.122,5.122,0,1,0,10.244,0,.854.854,0,0,0-.108-.415l-3.563-6.414h5.378V54.073H25.537V55.78h8.537V54.073H30.658V42.122h5.378l-3.563,6.414a.854.854,0,0,0-.108.415,5.122,5.122,0,1,0,10.244,0,.854.854,0,0,0-.108-.415Zm-20.38,3.829A3.421,3.421,0,0,1,18.816,49.8h6.612A3.421,3.421,0,0,1,22.122,52.366ZM24.939,48.1H19.3l2.817-5.072Zm4.012-8.537a.854.854,0,1,1,.854.854A.854.854,0,0,1,28.951,39.561Zm8.537,3.465L40.3,48.1H34.671Zm0,9.34A3.421,3.421,0,0,1,34.181,49.8h6.612a3.421,3.421,0,0,1-3.306,2.561Z" transform="translate(-1.463 -5.269)"/>
    </g>
  </g>
</svg>
