<svg xmlns="http://www.w3.org/2000/svg" xmlns:xlink="http://www.w3.org/1999/xlink" width="103" height="103" viewBox="0 0 103 103">
  <defs>
    <filter id="Trazado_978624" x="0" y="0" width="103" height="103" filterUnits="userSpaceOnUse">
      <feOffset dy="3" input="SourceAlpha"/>
      <feGaussianBlur stdDeviation="3" result="blur"/>
      <feFlood flood-opacity="0.161"/>
      <feComposite operator="in" in2="blur"/>
      <feComposite in="SourceGraphic"/>
    </filter>
  </defs>
  <g id="Grupo_1231712" data-name="Grupo 1231712" transform="translate(-171 -3282)">
    <g id="Grupo_1231348" data-name="Grupo 1231348" transform="translate(0 -2580.629)">
      <g id="Grupo_1226966" data-name="Grupo 1226966" transform="translate(180 5868.629)">
        <g id="Grupo_1222970" data-name="Grupo 1222970">
          <g id="Grupo_1222589" data-name="Grupo 1222589">
            <g id="Grupo_1203109" data-name="Grupo 1203109">
              <g id="Grupo_1176881" data-name="Grupo 1176881">
                <g id="Grupo_1175148" data-name="Grupo 1175148">
                  <g id="Grupo_1173798" data-name="Grupo 1173798">
                    <g id="Grupo_1171925" data-name="Grupo 1171925">
                      <g id="Grupo_1164524" data-name="Grupo 1164524">
                        <g id="Grupo_1144123" data-name="Grupo 1144123">
                          <g transform="matrix(1, 0, 0, 1, -9, -6)" filter="url(#Trazado_978624)">
                            <g id="Trazado_978624-2" data-name="Trazado 978624" transform="translate(9 6)" fill="#e7f2f8">
                              <path d="M 42.5 83.5 C 36.96437835693359 83.5 31.59512901306152 82.41617584228516 26.54141235351562 80.27863311767578 C 21.65934181213379 78.21369171142578 17.27447128295898 75.25723266601562 13.50862312316895 71.49137878417969 C 9.742764472961426 67.72553253173828 6.786305904388428 63.34066009521484 4.721364498138428 58.45858764648438 C 2.583823442459106 53.40486907958984 1.5 48.03562164306641 1.5 42.5 C 1.5 36.96437835693359 2.583823442459106 31.59512901306152 4.721364498138428 26.54141235351562 C 6.786305904388428 21.65934181213379 9.742764472961426 17.27447128295898 13.50862312316895 13.50862312316895 C 17.27447128295898 9.742764472961426 21.65934181213379 6.786305904388428 26.54141235351562 4.721364498138428 C 31.59512901306152 2.583823442459106 36.96437835693359 1.5 42.5 1.5 C 48.03562164306641 1.5 53.40486907958984 2.583823442459106 58.45858764648438 4.721364498138428 C 63.34066009521484 6.786305904388428 67.72553253173828 9.742764472961426 71.49137878417969 13.50862312316895 C 75.25723266601562 17.27447128295898 78.21369171142578 21.65934181213379 80.27863311767578 26.54141235351562 C 82.41617584228516 31.59512901306152 83.5 36.96437835693359 83.5 42.5 C 83.5 48.03562164306641 82.41617584228516 53.40486907958984 80.27863311767578 58.45858764648438 C 78.21369171142578 63.34066009521484 75.25723266601562 67.72553253173828 71.49137878417969 71.49137878417969 C 67.72553253173828 75.25723266601562 63.34066009521484 78.21369171142578 58.45858764648438 80.27863311767578 C 53.40486907958984 82.41617584228516 48.03562164306641 83.5 42.5 83.5 Z" stroke="none"/>
                              <path d="M 42.5 3 C 37.16621398925781 3 31.99356079101562 4.043960571289062 27.125732421875 6.102882385253906 C 22.42246627807617 8.092185974121094 18.19785308837891 10.94070434570312 14.56928253173828 14.56928253173828 C 10.94070434570312 18.19785308837891 8.092185974121094 22.42246627807617 6.102882385253906 27.125732421875 C 4.043960571289062 31.99356079101562 3 37.16621398925781 3 42.5 C 3 47.83378601074219 4.043960571289062 53.00643920898438 6.102882385253906 57.87425231933594 C 8.092185974121094 62.57753372192383 10.94070434570312 66.80213165283203 14.56928253173828 70.43071746826172 C 18.19786834716797 74.05929565429688 22.42246627807617 76.90781402587891 27.125732421875 78.89711761474609 C 31.99356079101562 80.95603942871094 37.16621398925781 82 42.5 82 C 47.83378601074219 82 53.00642395019531 80.95603942871094 57.87425231933594 78.89711761474609 C 62.57753372192383 76.90781402587891 66.80213165283203 74.05929565429688 70.43071746826172 70.43071746826172 C 74.05929565429688 66.80213165283203 76.90781402587891 62.57753372192383 78.89711761474609 57.87425231933594 C 80.95603942871094 53.00642395019531 82 47.83378601074219 82 42.5 C 82 37.16621398925781 80.95603942871094 31.99356079101562 78.89711761474609 27.125732421875 C 76.90781402587891 22.42246627807617 74.05929565429688 18.19786834716797 70.43071746826172 14.56928253173828 C 66.80213165283203 10.94070434570312 62.57753372192383 8.092185974121094 57.87425231933594 6.102882385253906 C 53.00643920898438 4.043960571289062 47.83378601074219 3 42.5 3 M 42.5 0 C 65.97209167480469 0 85 19.02789306640625 85 42.5 C 85 65.97209167480469 65.97209167480469 85 42.5 85 C 19.02789306640625 85 0 65.97209167480469 0 42.5 C 0 19.02789306640625 19.02789306640625 0 42.5 0 Z" stroke="none" fill="#248abf"/>
                            </g>
                          </g>
                        </g>
                      </g>
                    </g>
                  </g>
                </g>
              </g>
            </g>
          </g>
        </g>
      </g>
    </g>
    <g id="delito_1_" data-name="delito (1)" transform="translate(194.49 3296.303)">
      <g id="Grupo_1231710" data-name="Grupo 1231710" transform="translate(0.821 10.368)">
        <g id="Grupo_1231709" data-name="Grupo 1231709" transform="translate(0 0)">
          <path id="Trazado_1192790" data-name="Trazado 1192790" d="M20.5,183.093a13,13,0,1,0,13,13A13,13,0,0,0,20.5,183.093Zm0,21.643a8.643,8.643,0,1,1,8.643-8.643A8.652,8.652,0,0,1,20.5,204.736Z" transform="translate(-7.5 -167.241)" fill="#cbc4cc"/>
          <path id="Trazado_1192791" data-name="Trazado 1192791" d="M14.52,144.929v3.522a1.086,1.086,0,0,1-.536.941,13,13,0,0,0,3.923,23.992,2.18,2.18,0,0,0,.847-4.276,8.657,8.657,0,0,1-6.9-8.551A8.781,8.781,0,0,1,20.611,152H23.48a3,3,0,0,0,3-3v-4.071a1.641,1.641,0,0,0-1.641-1.641H16.161a1.641,1.641,0,0,0-1.641,1.641Z" transform="translate(-7.5 -131.791)" fill="#e2dee2"/>
          <path id="Trazado_1192792" data-name="Trazado 1192792" d="M112.561,99.178a1.69,1.69,0,0,1-1.69-1.69v-5.07a1.69,1.69,0,1,1,3.38,0v5.07A1.69,1.69,0,0,1,112.561,99.178Z" transform="translate(-99.561 -84.982)" fill="#cbc4cc"/>
          <path id="Trazado_1192793" data-name="Trazado 1192793" d="M112.645,90.757v5.12a1.69,1.69,0,0,1-1.69,1.69c-.02,0-.04,0-.06,0a1.689,1.689,0,0,0,3.378-.05v-5.07a1.689,1.689,0,0,0-1.627-1.687Z" transform="translate(-99.582 -85.008)" fill="#b5adb6"/>
          <path id="Trazado_1192794" data-name="Trazado 1192794" d="M166.769,39.9a1.69,1.69,0,0,1,1.69-1.69h5.07a1.69,1.69,0,1,1,0,3.38h-5.07A1.69,1.69,0,0,1,166.769,39.9Z" transform="translate(-149.343 -38.21)" fill="#cbc4cc"/>
          <path id="Trazado_1192795" data-name="Trazado 1192795" d="M173.626,38.229c0,.044.007.088.007.133a1.69,1.69,0,0,1-1.69,1.69h-5.112a1.689,1.689,0,0,0,1.683,1.555h5.07a1.689,1.689,0,0,0,.042-3.378Z" transform="translate(-149.398 -38.227)" fill="#b5adb6"/>
          <g id="Grupo_1231708" data-name="Grupo 1231708" transform="translate(28.378 19.903)">
            <path id="Trazado_1192796" data-name="Trazado 1192796" d="M279.865,259.919a13,13,0,1,0,13,13A13,13,0,0,0,279.865,259.919Zm0,21.643a8.643,8.643,0,1,1,8.643-8.643A8.652,8.652,0,0,1,279.865,281.562Z" transform="translate(-266.865 -255.564)" fill="#cbc4cc"/>
            <path id="Trazado_1192797" data-name="Trazado 1192797" d="M273.885,221.756v3.522a1.086,1.086,0,0,1-.536.941,13,13,0,0,0,3.923,23.993,2.18,2.18,0,0,0,.847-4.276,8.657,8.657,0,0,1-6.9-8.551,8.781,8.781,0,0,1,8.752-8.557h2.869a3,3,0,0,0,3-3v-4.071a1.641,1.641,0,0,0-1.641-1.641h-8.678A1.641,1.641,0,0,0,273.885,221.756Z" transform="translate(-266.865 -220.115)" fill="#e2dee2"/>
          </g>
          <path id="Trazado_1192798" data-name="Trazado 1192798" d="M299.706,63.353a1.69,1.69,0,0,1,2.39,0l3.585,3.585a1.69,1.69,0,0,1-2.39,2.39l-3.585-3.585A1.69,1.69,0,0,1,299.706,63.353Z" transform="translate(-267.294 -60.161)" fill="#cbc4cc"/>
          <path id="Trazado_1192799" data-name="Trazado 1192799" d="M330.137,91.377,329.059,90.3a1.937,1.937,0,0,1-2.388,2.392l1.076,1.076a1.69,1.69,0,0,0,2.39-2.39Z" transform="translate(-291.749 -84.6)" fill="#b5adb6"/>
          <path id="Trazado_1192800" data-name="Trazado 1192800" d="M371.927,176a1.69,1.69,0,0,1-1.69-1.69v-5.07a1.69,1.69,0,1,1,3.38,0v5.07A1.69,1.69,0,0,1,371.927,176Z" transform="translate(-330.548 -153.402)" fill="#cbc4cc"/>
          <path id="Trazado_1192801" data-name="Trazado 1192801" d="M372.086,167.615v5.136a1.69,1.69,0,0,1-1.69,1.69c-.044,0-.086,0-.129-.007a1.689,1.689,0,0,0,3.377-.066V169.3A1.689,1.689,0,0,0,372.086,167.615Z" transform="translate(-330.575 -153.456)" fill="#b5adb6"/>
        </g>
      </g>
      <g id="Grupo_1231711" data-name="Grupo 1231711" transform="translate(0 6.947)">
        <path id="Trazado_1192802" data-name="Trazado 1192802" d="M353.321,261.7h.1a.821.821,0,1,0,0-1.641h-.1a.821.821,0,1,0,0,1.641Z" transform="translate(-313.931 -232.36)"/>
        <path id="Trazado_1192803" data-name="Trazado 1192803" d="M403.735,261.7h.1a.821.821,0,0,0,0-1.641h-.1a.821.821,0,0,0,0,1.641Z" transform="translate(-358.829 -232.36)"/>
        <path id="Trazado_1192804" data-name="Trazado 1192804" d="M94.059,184.869a.821.821,0,1,0,0-1.641h-.1a.821.821,0,1,0,0,1.641Z" transform="translate(-82.944 -163.94)"/>
        <path id="Trazado_1192805" data-name="Trazado 1192805" d="M144.474,184.869a.821.821,0,1,0,0-1.641h-.1a.821.821,0,1,0,0,1.641Z" transform="translate(-127.843 -163.94)"/>
        <path id="Trazado_1192806" data-name="Trazado 1192806" d="M49,35.592v-3.68a2.465,2.465,0,0,0-2.462-2.462H44.71V26.927a5.107,5.107,0,0,0,1.072-8.047l-1.793-1.793A5.106,5.106,0,0,0,39,15.779l-2.286-2.286a5.11,5.11,0,0,0-4.9-6.545H29.277a5.1,5.1,0,0,0-4.452,2.6H19.909a5.111,5.111,0,0,0-7.836-.733L10.28,10.608a5.108,5.108,0,0,0,1.03,8.022v2.414H9.482A2.465,2.465,0,0,0,7.02,23.506v3.522a.266.266,0,0,1-.128.231A13.823,13.823,0,0,0,3.2,48.068a.821.821,0,0,0,1.26-1.051A12.181,12.181,0,0,1,7.716,28.679a1.912,1.912,0,0,0,.945-1.651V23.506a.821.821,0,0,1,.821-.821H11.31v.189a2.511,2.511,0,1,0,5.021,0v-.189H18.16a.822.822,0,0,1,.821.821v4.071a2.182,2.182,0,0,1-2.18,2.18H13.869A9.566,9.566,0,0,0,7.234,32.5a9.326,9.326,0,0,0-2.876,6.624,9.482,9.482,0,0,0,7.55,9.362,1.362,1.362,0,0,1,.589,2.391,1.326,1.326,0,0,1-1.107.277,12.061,12.061,0,0,1-4.249-1.751.821.821,0,1,0-.9,1.372,13.7,13.7,0,0,0,4.824,1.988l.021,0A13.83,13.83,0,0,0,27.642,39.22a13.768,13.768,0,0,0-.881-4.861.821.821,0,0,0-1.536.578A12.184,12.184,0,0,1,14.2,51.394a3,3,0,0,0,.443-1.572,2.966,2.966,0,0,0-.237-1.156A9.457,9.457,0,0,0,18.495,31a3.843,3.843,0,0,0,1.871-2.052A12.33,12.33,0,0,1,23.48,31.8a.821.821,0,1,0,1.3-1,13.976,13.976,0,0,0-4.159-3.612V23.506a2.465,2.465,0,0,0-2.462-2.462H16.331V18.714a5.089,5.089,0,0,0,1.177-.879L19.3,16.043a5.131,5.131,0,0,0,1.027-1.474h4.5a5.1,5.1,0,0,0,4.452,2.6h2.535A5.091,5.091,0,0,0,33.12,17l2.332,2.332a5.106,5.106,0,0,0,1.309,4.987l1.793,1.793a5.085,5.085,0,0,0,1.134.854V29.45H37.86A2.465,2.465,0,0,0,35.4,31.912v3.522a.266.266,0,0,1-.128.231,13.824,13.824,0,0,0,4.172,25.507l.03.005A13.823,13.823,0,0,0,49,35.592ZM21.643,39.22A7.822,7.822,0,1,1,6,39.143a7.7,7.7,0,0,1,2.38-5.464,7.934,7.934,0,0,1,5.494-2.28,7.841,7.841,0,0,1,7.77,7.821ZM14.69,22.874a.869.869,0,0,1-1.739,0V17.8a.869.869,0,0,1,1.739,0Zm3.45-7.992-1.793,1.793c-.065.065-.132.126-.2.185a2.509,2.509,0,0,0-4.609-.1c-.032-.03-.065-.057-.1-.088a3.469,3.469,0,0,1,0-4.907l1.793-1.793a3.469,3.469,0,0,1,4.907,0c.057.057.111.116.164.177a2.507,2.507,0,0,0,.355,4.066A3.455,3.455,0,0,1,18.14,14.882Zm6.867-1.955h-5.07a.869.869,0,0,1,0-1.739h5.07a.869.869,0,1,1,0,1.739Zm7.646.052a2.512,2.512,0,0,0-.614,2.54c-.075,0-.151.008-.227.008H29.276a3.462,3.462,0,0,1-2.807-1.43,2.507,2.507,0,0,0,0-4.078,3.462,3.462,0,0,1,2.807-1.43h2.535a3.473,3.473,0,0,1,3.469,3.469q0,.168-.016.333A2.511,2.511,0,0,0,32.653,12.979Zm1.16,2.39a.869.869,0,0,1,1.23-1.23l3.585,3.585a.869.869,0,1,1-1.23,1.229Zm4.109,7.786a3.465,3.465,0,0,1-1.013-2.564,2.508,2.508,0,0,0,3.357-3.357,3.465,3.465,0,0,1,2.563,1.014l1.793,1.793a3.473,3.473,0,0,1,0,4.907c-.054.054-.111.106-.169.157a2.51,2.51,0,0,0-4.525.038c-.073-.062-.144-.126-.212-.195Zm5.146,3.054v5.07a.869.869,0,1,1-1.739,0V26.21a.869.869,0,0,1,1.739,0ZM40.876,59.286a1.327,1.327,0,0,1-1.107.277,12.183,12.183,0,0,1-3.674-22.479,1.912,1.912,0,0,0,.945-1.651V31.912a.822.822,0,0,1,.821-.821h1.828v.189a2.511,2.511,0,1,0,5.021,0v-.189h1.828a.822.822,0,0,1,.821.821v4.071a2.182,2.182,0,0,1-2.18,2.18H42.249a9.566,9.566,0,0,0-6.637,2.744,9.327,9.327,0,0,0-2.876,6.624,9.482,9.482,0,0,0,7.488,9.348h0l.059.013h0a1.362,1.362,0,0,1,.59,2.391Zm1.7.513a3,3,0,0,0,.443-1.572,2.964,2.964,0,0,0-.238-1.158,9.472,9.472,0,0,0,8.644-7.347.821.821,0,0,0-1.6-.364,7.821,7.821,0,0,1-15.448-1.81,7.7,7.7,0,0,1,2.38-5.464,7.934,7.934,0,0,1,5.494-2.28,7.725,7.725,0,0,1,4.876,1.753,7.868,7.868,0,0,1,2.7,4.335.821.821,0,1,0,1.6-.364,9.516,9.516,0,0,0-3.263-5.244,9.4,9.4,0,0,0-1.286-.88,3.845,3.845,0,0,0,1.868-2.051A12.18,12.18,0,0,1,42.577,59.8Z" transform="translate(0 -6.947)"/>
      </g>
    </g>
  </g>
</svg>
