<svg xmlns="http://www.w3.org/2000/svg" width="38.276" height="38.276" viewBox="0 0 38.276 38.276">
  <g id="gobierno" transform="translate(0)">
    <path id="Trazado_1192930" data-name="Trazado 1192930" d="M38.276,20.147a2.158,2.158,0,0,0-2.158-2.158H30.983a2.157,2.157,0,0,0-1.343-3.124A10.528,10.528,0,0,0,19.7,4.857V4.1h3.66a.561.561,0,0,0,.561-.561V.561A.561.561,0,0,0,23.359,0H19.138a.561.561,0,0,0-.561.561v4.3a10.49,10.49,0,0,0-4.919,1.523.561.561,0,0,0,.585.957,9.394,9.394,0,0,1,14.27,7.457h-7.44l-1.033-.588a1.831,1.831,0,0,0-1.8,0l-1.033.588H9.763a9.311,9.311,0,0,1,2.811-6.156.561.561,0,0,0-.784-.8,10.425,10.425,0,0,0-3.154,7.029,2.157,2.157,0,0,0-1.343,3.124H2.158a2.158,2.158,0,0,0-.339,4.29V37.716a.561.561,0,0,0,.561.561H35.9a.561.561,0,0,0,.561-.561V22.279a2.162,2.162,0,0,0,1.819-2.131ZM22.8,2.981H19.7V1.121h3.1Zm6.292,12.934a1.037,1.037,0,1,1,0,2.074h-2.4l-3.644-2.074Zm-10.3-.734h0a.7.7,0,0,1,.694,0l10.069,5.73a.7.7,0,0,1-.346,1.311H9.069a.7.7,0,0,1-.347-1.311ZM8.149,16.952a1.038,1.038,0,0,1,1.037-1.037h6.048l-3.644,2.074h-2.4a1.038,1.038,0,0,1-1.037-1.037Zm-7.027,3.2a1.038,1.038,0,0,1,1.037-1.037h7.46l-1.451.826a1.8,1.8,0,0,0-.893,1.248H2.158a1.037,1.037,0,0,1-1.037-1.037ZM2.94,35.695H5.213a.561.561,0,0,0,.561-.561V24.464a.561.561,0,0,0-.561-.561H2.94v-1.6H7.424a1.787,1.787,0,0,0,1.085.951V34.929H8.387a.561.561,0,0,0-.561.561v1.665H2.94Zm0-1.121V25.024H4.652v9.549Zm6.007,2.582v-1.1H29.329v1.1Zm5.4-2.226H12.052v-8.4a1.147,1.147,0,0,1,2.293,0Zm5.94,0H17.992v-8.4a1.147,1.147,0,1,1,2.293,0Zm5.94,0H23.931v-8.4a1.147,1.147,0,0,1,2.293,0Zm4.226,2.226V35.49a.561.561,0,0,0-.561-.561h-.122v-3.2a.561.561,0,1,0-1.121,0v3.2h-1.3v-8.4a2.268,2.268,0,0,0-4.536,0v8.4h-1.4v-8.4a2.268,2.268,0,0,0-4.536,0v8.4h-1.4v-8.4a2.268,2.268,0,0,0-4.536,0v8.4H9.63V23.343H28.647v6.143a.561.561,0,1,0,1.121,0V23.257a1.787,1.787,0,0,0,1.085-.951h4.483v1.6H33.063a.561.561,0,0,0-.561.561v10.67a.561.561,0,0,0,.561.561h2.273v1.46Zm4.886-12.131v9.549H33.624V25.024Zm.782-3.84H31a1.8,1.8,0,0,0-.893-1.248l-1.451-.826h7.46a1.037,1.037,0,1,1,0,2.074Z" transform="translate(0)" fill="#248abf"/>
  </g>
</svg>
